<svg xmlns="http://www.w3.org/2000/svg" xmlns:xlink="http://www.w3.org/1999/xlink" version="1.1" id="Layer_1" x="0px" y="0px" viewBox="0 0 32 32" style="enable-background:new 0 0 32 32;" xml:space="preserve">
<g>
	<path d="M23.1,18V5.5c0-1.2-0.9-2.1-2.1-2.1h-1.7V3.2c0-0.2-0.1-0.3-0.2-0.4S19,2.6,18.8,2.6H17c-0.2-1.3-1.3-2.3-2.6-2.6   c-1.7-0.3-3.4,0.8-3.7,2.6H8.9c-0.2,0-0.3,0.1-0.4,0.2C8.4,2.9,8.3,3,8.3,3.2v0.2H6.6c-1.2,0-2.1,0.9-2.1,2.1v21.1   c0,1.1,0.9,2.1,2.1,2.1H14c1.3,2,3.6,3.3,6.1,3.3c4,0,7.3-3.3,7.3-7.3C27.4,21.7,25.7,19.2,23.1,18L23.1,18z M11.2,3.7   c0.3,0,0.6-0.2,0.6-0.6c0-0.1,0-0.3,0-0.4c0.2-1,1-1.7,2-1.7s1.8,0.7,2,1.7c0,0.1,0,0.3,0,0.4c0,0.3,0.3,0.6,0.6,0.6h1.8v1H9.4V3.9   V3.7H11.2z M6.6,27.6c-0.5,0-1-0.4-1-1V5.5c0-0.5,0.4-1,1-1h1.7v0.8c0,0.3,0.2,0.6,0.6,0.6h10c0.3,0,0.6-0.2,0.6-0.6V4.5h1.7   c0.5,0,1,0.4,1,1v12.2c-0.6-0.2-1.2-0.2-1.9-0.2c-1.9,0-3.6,0.7-4.9,1.9c0,0,0,0-0.1,0h-5.1c-0.2,0-0.4,0.2-0.4,0.6   s0.2,0.6,0.4,0.6h4.1c-0.9,1.2-1.4,2.7-1.4,4.3c0,1,0.2,2,0.6,2.9L6.6,27.6L6.6,27.6z M20.1,30.9c-1.9,0-3.6-0.9-4.7-2.2   c-0.3-0.3-0.5-0.7-0.8-1.1c-0.4-0.9-0.7-1.8-0.7-2.9c0-3.4,2.8-6.2,6.2-6.2c0.7,0,1.3,0.1,1.9,0.3c0.4,0.1,0.8,0.3,1.1,0.5   c1.9,1.1,3.2,3.1,3.2,5.4C26.3,28.1,23.6,30.9,20.1,30.9L20.1,30.9z" fill="#ffffff"/>
	<path d="M23.2,26.2L23.2,26.2L22,25.8l-1.8-0.7v-4.3c0-0.3-0.2-0.6-0.6-0.6S19,20.4,19,20.8v4.7c0,0.2,0.2,0.5,0.4,0.5   c0,0,0,0,0.1,0l2.4,0.9l0.8,0.3c0.1,0,0.1,0,0.2,0l0,0c0.2,0,0.4-0.2,0.5-0.4C23.6,26.6,23.5,26.3,23.2,26.2L23.2,26.2z" fill="#ffffff"/>
</g>
<path d="M10.2,11.7h8.3c0.4,0,0.6-0.2,0.6-0.6s-0.3-0.6-0.6-0.6h-8.3c-0.4,0-0.6,0.2-0.6,0.6S9.8,11.7,10.2,11.7z" fill="#ffffff"/>
<path d="M6.9,10.4h1.4c0.1,0,0.2,0.1,0.2,0.2v1.1c0,0.1-0.1,0.2-0.2,0.2H6.9c-0.1,0-0.2-0.1-0.2-0.2v-1.1  C6.7,10.5,6.8,10.4,6.9,10.4z" fill="#ffffff"/>
<path d="M18.4,16.1c0.4,0,0.6-0.2,0.6-0.6S18.8,15,18.4,15h-8.3c-0.4,0-0.6,0.2-0.6,0.6c0,0.4,0.3,0.6,0.6,0.6h8.3V16.1z" fill="#ffffff"/>
<path d="M6.9,14.8h1.4c0.1,0,0.2,0.1,0.2,0.2v1.1c0,0.1-0.1,0.2-0.2,0.2H6.9c-0.1,0-0.2-0.1-0.2-0.2V15C6.7,14.9,6.8,14.8,6.9,14.8z  " fill="#ffffff"/>
<path d="M7.1,19h1.4c0.1,0,0.2,0.1,0.2,0.2v1.1c0,0.1-0.1,0.2-0.2,0.2H7.1c-0.1,0-0.2-0.1-0.2-0.2v-1.1C6.9,19,7,19,7.1,19z" fill="#ffffff"/>
</svg>