<svg id="Grupo_1213" data-name="Grupo 1213" xmlns="http://www.w3.org/2000/svg" width="25.069" height="31.528" viewBox="0 0 25.069 31.528">
  <path id="Trazado_469" data-name="Trazado 469" d="M256.606,185.676l-1.954-3.9a.091.091,0,0,0-.082-.051H233.6a.091.091,0,0,0-.083.051l-1.954,3.9a.088.088,0,0,0,0,.09.087.087,0,0,0,.079.044h24.882a.086.086,0,0,0,.079-.044A.088.088,0,0,0,256.606,185.676Zm-9.48,1.064h-6.087c0,.03,0,.06,0,.09,0,1.059,1.4,1.955,3.048,1.955s3.048-.9,3.048-1.955C247.13,186.8,247.128,186.77,247.126,186.74Zm-3.043-29.482a2.139,2.139,0,1,0,2.223,2.137A2.184,2.184,0,0,0,244.082,157.258Z" transform="translate(-231.547 -157.258)" fill="#069cb1"/>
  <path id="Trazado_470" data-name="Trazado 470" d="M280.928,244a20.722,20.722,0,0,1-.284,3.436H260.075A20.741,20.741,0,0,1,259.79,244c0-8.216,4.741-14.9,10.569-14.9S280.928,235.784,280.928,244Z" transform="translate(-257.824 -224.1)" fill="#069cb1"/>
</svg>
