<?xml version="1.0" encoding="utf-8"?>
<!-- Generator: Adobe Illustrator 27.3.1, SVG Export Plug-In . SVG Version: 6.00 Build 0)  -->
<svg version="1.1" id="Layer_1" xmlns="http://www.w3.org/2000/svg" xmlns:xlink="http://www.w3.org/1999/xlink" x="0px" y="0px"
	 viewBox="0 0 24 24" style="enable-background:new 0 0 24 24;" xml:space="preserve">
<style type="text/css">
	.st0{fill:none;}
	.st1{fill:#069CB1;}
</style>
<g>
	<g>
		<path class="st0" d="M23.1,8.7H0.9l0,0v11.1c0,0.7,0.5,1.1,1.1,1.1h19.8c0.7,0,1.1-0.5,1.1-1.1V8.7L23.1,8.7z"/>
		<path class="st1" d="M21.9,2.1H2.1C0.9,2.1,0,3,0,4.2v15.7c0,1.1,0.9,2.1,2.1,2.1h19.8c1.1,0,2.1-0.9,2.1-2.1V4.2
			C24,3,23.1,2.1,21.9,2.1z M21.9,21H2.1c-0.7,0-1.1-0.5-1.1-1.1V8.7l0,0h22.1l0,0v11.1C23.1,20.5,22.6,21,21.9,21z"/>
	</g>
</g>
</svg>
