<svg xmlns="http://www.w3.org/2000/svg" width="35.573" height="28.866" viewBox="0 0 35.573 28.866">
  <g id="Grupo_236" data-name="Grupo 236" transform="translate(-208.451 -227.098)">
    <path id="Trazado_233" data-name="Trazado 233" d="M241.872,303.105H210.6a2.155,2.155,0,0,1-2.152-2.152v-20.3a1.534,1.534,0,0,1,1.532-1.532h31.889a2.155,2.155,0,0,1,2.152,2.152v19.685A2.155,2.155,0,0,1,241.872,303.105Zm-31.546-22.114v19.962a.278.278,0,0,0,.277.277h31.268a.278.278,0,0,0,.277-.277V281.268a.278.278,0,0,0-.277-.277Z" transform="translate(0 -47.141)" fill="#069cb1"/>
    <path id="Trazado_234" data-name="Trazado 234" d="M323.307,233.856H309.425a1.522,1.522,0,0,1-1.451-1.982l1.177-3.714A1.517,1.517,0,0,1,310.6,227.1H322.13a1.517,1.517,0,0,1,1.451,1.062l1.177,3.714a1.522,1.522,0,0,1-1.451,1.982Zm-13.4-1.875h12.918l-.954-3.008H310.86Z" transform="translate(-90.129 0)" fill="#069cb1"/>
    <path id="Trazado_235" data-name="Trazado 235" d="M321.989,340.983a8.187,8.187,0,1,1,8.187-8.187A8.2,8.2,0,0,1,321.989,340.983Zm0-14.5A6.312,6.312,0,1,0,328.3,332.8,6.319,6.319,0,0,0,321.989,326.484Z" transform="translate(-95.474 -88.369)" fill="#069cb1"/>
  </g>
</svg>
