<svg id="Group_123" data-name="Group 123" xmlns="http://www.w3.org/2000/svg" width="9.636" height="12.558" viewBox="0 0 9.636 12.558">
  <path id="Trazado_232" data-name="Trazado 232" d="M214.055,177.308a.89.89,0,0,1-.757-.42l-3.356-4.578a5,5,0,0,1,4.112-7.561,4.745,4.745,0,0,1,3.4,1.4,5.032,5.032,0,0,1,1.414,3.579,4.819,4.819,0,0,1-.706,2.579l-.027.04-3.33,4.538a.888.888,0,0,1-.753.419Zm-3.166-5.6,3.165,4.313,3.164-4.313a3.7,3.7,0,0,0,.53-1.966,3.926,3.926,0,0,0-1.089-2.8,3.631,3.631,0,0,0-2.605-1.069,3.88,3.88,0,0,0-3.165,5.833Zm3.165.387a2.526,2.526,0,1,1,2.526-2.526A2.529,2.529,0,0,1,214.053,172.094Zm0-3.929a1.4,1.4,0,1,0,1.4,1.4A1.4,1.4,0,0,0,214.053,168.165Z" transform="translate(-209.235 -164.75)" fill="#069cb1"/>
</svg>
