<?xml version="1.0" encoding="utf-8"?>
<!-- Generator: Adobe Illustrator 27.4.1, SVG Export Plug-In . SVG Version: 6.00 Build 0)  -->
<svg version="1.1" id="Layer_1" xmlns="http://www.w3.org/2000/svg" xmlns:xlink="http://www.w3.org/1999/xlink" x="0px" y="0px"
	 viewBox="0 0 17.3 14.1" style="enable-background:new 0 0 17.3 14.1;" xml:space="preserve">
<g id="Group_2234" transform="translate(-0.197 -17.58)">
	<path id="Path_194" d="M6.6,31.7c-0.4,0-0.7-0.2-1-0.4l-5-5.5c-0.5-0.5-0.5-1.3,0-1.8c0,0,0,0,0,0c0.5-0.5,1.3-0.5,1.8,0
		c0,0,0,0,0,0l4.1,4.4L15.2,18c0.4-0.6,1.2-0.7,1.8-0.3c0.6,0.4,0.7,1.2,0.3,1.8c0,0-0.1,0.1-0.1,0.1L7.6,31.2
		C7.3,31.5,7,31.7,6.6,31.7L6.6,31.7z"/>
</g>
</svg>
