<?xml version="1.0" encoding="UTF-8"?>
<svg id="Layer_1" data-name="Layer 1" xmlns="http://www.w3.org/2000/svg" viewBox="0 0 32 32">
  <defs>
    <style>
      .cls-1 {
        fill: #0d9db1;
      }
    </style>
  </defs>
  <rect class="cls-1" x="6.54" y="11.46" width="19.72" height="1.35"/>
  <rect class="cls-1" x="6.54" y="15.1" width="19.72" height="1.35"/>
  <path class="cls-1" d="m31.03,7.17h0s-30.05,0-30.05,0c-.54,0-.97.44-.97.97v11.62c0,.54.44.97.97.97h23.8l3.71,3.88c.13.14.31.21.49.21.09,0,.18-.02.27-.05.26-.11.42-.37.41-.65l-.14-3.39h1.52c.54,0,.97-.44.97-.97v-11.62c0-.54-.44-.97-.97-.97Zm-.38,12.21h-1.85c-.18,0-.36.08-.49.21-.13.13-.2.31-.19.5l.1,2.3-2.67-2.79c-.13-.13-.3-.21-.49-.21H1.35v-10.85h29.29v10.85Z"/>
</svg>