<?xml version="1.0" encoding="UTF-8"?>
<svg id="Layer_1" data-name="Layer 1" xmlns="http://www.w3.org/2000/svg" viewBox="0 0 32 32">
  <defs>
    <style>
      .cls-1 {
        fill: #059cb1;
      }
    </style>
  </defs>
  <path class="cls-1" d="m15.59,25.48c.22.24.61.24.83,0l10.49-11.28c.21-.23.2-.58-.03-.79l-1.2-1.12c-.23-.21-.58-.2-.79.03l-6.79,7.31V.56c0-.31-.25-.56-.56-.56h-3.06c-.31,0-.56.25-.56.56v19.06l-6.79-7.3c-.21-.23-.57-.24-.79-.03l-1.2,1.12c-.23.21-.24.57-.03.79l10.49,11.28Z"/>
  <path class="cls-1" d="m31.57,28.82H.43c-.24,0-.43.22-.43.49v2.2c0,.27.19.49.43.49h31.13c.24,0,.43-.22.43-.49v-2.2c0-.27-.19-.49-.43-.49Z"/>
</svg>