<svg xmlns="http://www.w3.org/2000/svg" width="17.743" height="18.881" viewBox="0 0 17.743 18.881">
  <g id="Grupo_351" data-name="Grupo 351" transform="translate(-111.687 -132.487)">
    <path id="Trazado_252" data-name="Trazado 252" d="M113.131,150.868a.866.866,0,0,1-.635-1.454l14.853-16.071a.866.866,0,1,1,1.27,1.177l-14.853,16.071A.867.867,0,0,1,113.131,150.868Z" fill="#069cb1" stroke="#069cb1" stroke-width="1"/>
    <path id="Trazado_253" data-name="Trazado 253" d="M128.055,150.938a.858.858,0,0,1-.635-.277L112.567,134.59a.866.866,0,1,1,1.27-1.177l14.853,16.071a.871.871,0,0,1-.046,1.223A.853.853,0,0,1,128.055,150.938Z" transform="translate(-0.07 -0.07)" fill="#069cb1" stroke="#069cb1" stroke-width="1"/>
  </g>
</svg>
