<?xml version="1.0" encoding="UTF-8"?>
<svg id="Layer_1" data-name="Layer 1" xmlns="http://www.w3.org/2000/svg" viewBox="0 0 9.48 9.45">
  <defs>
    <style>
      .cls-1 {
        fill: #f9b233;
      }
    </style>
  </defs>
  <path class="cls-1" d="m9.4,3.45c-.08-.15-.22-.27-.4-.32l-2.39-.63L5.31.35c-.05-.1-.19-.23-.28-.28-.15-.08-.33-.09-.49-.04-.16.05-.3.17-.36.29l-1.31,2.19L.46,3.14c-.06.02-.17.08-.22.12-.14.11-.22.27-.24.44-.02.17.03.34.14.47l1.59,2-.16,2.56c-.01.09.01.25.05.33.1.25.34.39.6.39.08,0,.17-.02.25-.05l2.28-.96,2.29.96c.08.03.22.05.31.04.17-.02.32-.1.43-.24.11-.13.16-.3.14-.45l-.17-2.59,1.59-1.99c.04-.05.1-.16.12-.22.05-.17.03-.34-.05-.5Z"/>
</svg>