<svg xmlns="http://www.w3.org/2000/svg" width="18.297" height="9.002" viewBox="0 0 18.297 9.002">
  <g id="Grupo_2358" data-name="Grupo 2358" transform="translate(-240.503 -110.564)">
    <path id="Trazado_260" data-name="Trazado 260" d="M215.4,119.529a13.832,13.832,0,0,0-1.927-1.426,12.414,12.414,0,0,0-6.388-1.982,13.273,13.273,0,0,0-8.32,3.324c-.829.76-.829,1.052-.829,1.176s0,.374.831,1.124a13.548,13.548,0,0,0,1.931,1.425,11.426,11.426,0,0,0,12.773,0,13.548,13.548,0,0,0,1.931-1.425c.831-.751.831-.994.831-1.124S216.232,120.274,215.4,119.529Zm-2.613,3.009a12.471,12.471,0,0,1-3.886,1.511,9.35,9.35,0,0,1-3.632,0,12.466,12.466,0,0,1-3.886-1.511,10.512,10.512,0,0,1-2.491-1.936,9.552,9.552,0,0,1,2.477-1.936,12.452,12.452,0,0,1,3.864-1.473h0a9.906,9.906,0,0,1,1.852-.178,9.4,9.4,0,0,1,1.884.2,12.476,12.476,0,0,1,3.816,1.52,11.913,11.913,0,0,1,2.469,1.9A10.714,10.714,0,0,1,212.786,122.538Z" transform="translate(42.568 -5.556)" fill="#069cb1"/>
    <path id="Trazado_261" data-name="Trazado 261" d="M449.348,143.921a10.711,10.711,0,0,1-2.466,1.906,12.471,12.471,0,0,1-3.886,1.511,3.887,3.887,0,0,0,.068-6.838,12.476,12.476,0,0,1,3.816,1.52A11.913,11.913,0,0,1,449.348,143.921Z" transform="translate(-191.525 -28.845)" fill="#069cb1"/>
    <path id="Trazado_262" data-name="Trazado 262" d="M225.653,146.966a12.467,12.467,0,0,1-3.886-1.511,10.513,10.513,0,0,1-2.491-1.936,9.553,9.553,0,0,1,2.477-1.936,12.452,12.452,0,0,1,3.864-1.473,3.887,3.887,0,0,0,.036,6.856Z" transform="translate(22.184 -28.472)" fill="#069cb1"/>
    <path id="Trazado_263" data-name="Trazado 263" d="M321.268,130.078a3.881,3.881,0,0,0-3.736-.018h0a3.889,3.889,0,1,0,3.737.017Zm-1.884,6.394a2.994,2.994,0,1,1,2.994-2.994A3,3,0,0,1,319.384,136.472Z" transform="translate(-69.73 -18.423)" fill="#069cb1"/>
    <ellipse id="Elipse_39" data-name="Elipse 39" cx="1.916" cy="1.916" rx="1.916" ry="1.916" transform="translate(247.736 113.14)" fill="#069cb1"/>
  </g>
</svg>
