<svg id="Capa_1" data-name="Capa 1" xmlns="http://www.w3.org/2000/svg" viewBox="0 0 1995.849 1994.404"><defs><style>.cls-1{fill:#090807;}</style></defs><path class="cls-1" d="M-238.625,295.668H1179.657c3.334,0,6.668-.043,10,.012,12.76.208,17.889,5.4,18.075,18.449.109,7.665.083,15.334.011,23-3,318.309-.7,636.626-1.1,954.939-.034,27.934.6,55.922,1.277,83.873.345,14.257-5.391,22.025-22.239,22.006q-348.525-.4-697.05-.18-528.037,0-1056.075,0c-3.333,0-6.686.195-10-.091-9.27-.8-14.447-6.223-14.919-15.51-.169-3.325-.042-6.666-.042-10q0-517.037.088-1034.073A69.04,69.04,0,0,0-596,315.636q-44.638-132.507-89.037-265.1c-.424-1.263-.829-2.531-1.24-3.8-4.755-14.657-1.808-20.627,12.981-25.577q214.059-71.648,428.136-143.238,402.552-134.7,805.1-269.412,51.137-17.112,102.28-34.2Q880.517-498.71,1098.809-571.74q32.675-10.932,65.32-21.948c1.578-.53,3.155-1.068,4.753-1.535,11.53-3.371,18.538.065,22.447,11.59,10.05,29.637,19.882,59.348,29.827,89.021q41.736,124.529,83.5,249.048c.317.947.768,1.85,1.074,2.8,4.262,13.243,1,19.718-12.48,24.3-17.969,6.1-35.978,12.09-53.975,18.109Q505.628,44.966-227.994,290.354C-231.31,291.463-235.172,291.675-238.625,295.668ZM557.84,846.358c.683-3.038,2.769-2.833,4.12-3.326q129.963-47.424,259.974-94.723a35.827,35.827,0,0,1,12.714-2.007q27,.159,54,.028c14.17-.049,19-4.948,19.063-19.355.072-17.667-.486-35.353.142-53,.839-23.564-4.216-27.837-27.26-27.807q-328.017.424-656.037.169c-2.333,0-4.667.011-7,0-10.614-.056-9.87.88-9.878-9.526-.019-23.668.061-47.337-.034-71-.057-14.008-5.422-19.38-19.392-19.448q-30.5-.149-61-.008c-14.7.053-19.55,5.019-19.579,19.954-.047,23.335,0,46.67-.021,70-.009,10.057,1.228,10.074-9.482,10.031-1.666-.007-3.333,0-5,0H-268.851c-2.333,0-4.669-.06-7,.014-11.109.355-16.424,5.592-16.482,16.739q-.175,33.5,0,67c.067,11.286,5.133,16.033,16.7,16.242,2.666.048,5.334.009,8,.009q182.511,0,365.021,0c10.986,0,10.271-.635,10.27,10.289q-.006,82.5-.027,165.009c-.008,9.611,1.593,8.8-8.835,12.591Q-51.387,988.9-201.538,1043.648a46.21,46.21,0,0,1-16.586,2.788q-28.5-.253-57-.009c-11.8.118-16.985,5.485-17.228,17.16-.152,7.276.716,14.614-2.832,21.515-1.232,2.4-.588,5.286.517,7.785,2.511,5.679,2.37,11.662,2.31,17.667-.064,6.333-.1,12.669.015,19,.216,11.47,5.119,16.483,16.31,16.8,3,.086,6,.021,9,.021q574.529,0,1149.058,0c2.333,0,4.667.019,7,0,13.639-.141,18.609-5.021,18.681-18.74.1-19-.5-38.021.176-57,.657-18.508-4.92-24.477-24.659-24.45q-330.519.443-661.038.185a67.421,67.421,0,0,0-7.994.05c-5.524.666-6.641-2.041-6.594-6.952.195-20.333.278-40.672-.048-61-.087-5.474,2.251-7.4,6.954-9.036q27.356-9.524,54.445-19.8a51.016,51.016,0,0,1,18.47-3.338q150.509.146,301.017.052c14.3,0,19.2-4.881,19.251-19.164q.118-30.5,0-61c-.059-14.509-5.379-19.712-20.054-19.809C577.783,846.305,567.934,846.358,557.84,846.358ZM-131.116,152.507c-1.328-1.668-2.046-2.768-2.953-3.681Q-207.693,74.677-281.221.433c-4.221-4.283-7.664-3.681-12.358-2.1Q-392.5,31.575-491.46,64.727c-2.254.758-5.541.391-6.57,4.081,1.693,1.828,3.431,3.822,5.291,5.694q71.171,71.655,142.233,143.415c5.237,5.32,9.585,6.1,16.459,3.774,63.993-21.7,128.109-43.035,192.167-64.546C-138.474,156-134.787,155.417-131.116,152.507ZM709.746-127.772c-2.34-2.72-3.536-4.3-4.921-5.693q-72.56-73-145.048-146.077c-4.515-4.572-8.3-4.777-14.031-2.845-64.625,21.8-129.35,43.3-194.01,64.993-2.718.912-6.024.959-8.014,3.817.688,3.539,3.785,5.252,6.028,7.511,46.938,47.279,94.031,94.4,140.788,141.859,5.416,5.5,9.793,6.823,17.277,4.264,54.774-18.73,109.725-36.94,164.62-55.316C684.365-119.253,696.292-123.26,709.746-127.772Zm418.459-140.913c-.473-2.949-2.9-4.407-4.727-6.244q-71.822-72.291-143.586-144.639c-4.806-4.87-8.837-5.1-14.893-3.05-59.541,20.15-119.188,39.982-178.781,59.978-7.424,2.491-15.114,4.344-22.172,7.909.88,4.093,3.985,5.806,6.239,8.079,46.9,47.294,93.956,94.429,140.661,141.911,5.423,5.513,9.778,6.786,17.211,4.257,63.289-21.535,126.74-42.594,190.109-63.9C1121.657-265.519,1125.511-265.841,1128.205-268.685ZM-76.089-73.067c1.1,3.36,4.025,5.226,6.325,7.541C-22.826-18.277,24.271,28.815,70.976,76.292c5.553,5.645,10.006,6.518,17.318,4.037,63.935-21.691,128.012-42.965,192.039-64.385,2.682-.9,5.291-2.01,7.679-2.924-.432-3.559-2.63-4.781-4.212-6.375q-72.131-72.681-144.219-145.4c-4.391-4.449-8.082-5.144-13.87-3.187Q28.826-109.192-68.2-76.855C-70.931-75.939-74.152-75.859-76.089-73.067Zm-416.4,419.354a49.947,49.947,0,0,0,50.068-50.117c-.182-26.965-22.711-49.55-49.7-49.825a49.959,49.959,0,0,0-50.242,49.95C-542.423,324.412-520.581,346.305-492.486,346.287Z" transform="translate(688.368 596.456)"/><path class="cls-1" d="M609.543,747.158c-2.125,2.936-5.666,3.164-8.6,4.234q-125.67,45.873-251.376,91.644a54.837,54.837,0,0,1-19.462,3.392c-36.981-.153-73.964-.072-110.947-.073-2,0-4.014-.171-5.993.024-4.559.45-5.909-1.874-5.494-5.943a19.87,19.87,0,0,0,0-2q0-41.981.022-83.96c.016-8,.135-8.113,8.353-8.114q194.907-.033,389.815.015C607.031,746.379,608.371,745.866,609.543,747.158Z" transform="translate(688.368 596.456)"/><path class="cls-1" d="M7.11,1045l100.5-36.537c0,12.461,0,23.277,0,34.093,0,2.423-1.294,3.657-3.645,3.734-2.663.087-5.33.081-7.995.081q-38.985.008-77.97-.036C14.815,1046.323,11.521,1047.034,7.11,1045Z" transform="translate(688.368 596.456)"/></svg>