<svg id="Capa_1" data-name="Capa 1" xmlns="http://www.w3.org/2000/svg" viewBox="0 0 479.103 478.653"><defs><style>.cls-1{fill:#020101;}.cls-2{fill:#069cb1;}.cls-3{fill:#fff;}.cls-4{fill:#fdfcfb;}.cls-5{fill:#019cb1;}.cls-6{fill:#12a6b9;}.cls-7{fill:#12a6ba;}.cls-8{fill:#030202;}.cls-9{fill:#12a5b9;}.cls-10{fill:#13a6ba;}.cls-11{fill:#11a5b9;}</style></defs><path class="cls-1" d="M-418.491,281.921h342c.56,0,1.121-.026,1.679.006a3.081,3.081,0,0,1,3.181,3.166c-.109,6.466.4,12.941-.28,19.4a18.322,18.322,0,0,0-.013,1.919q0,107.755.074,215.51c.01,6.459.042,12.936.293,19.4.142,3.656-1.157,5.14-5.253,5.136q-132.955-.105-265.91-.053H-498.711c-.56,0-1.122.029-1.68-.006a3.178,3.178,0,0,1-3.2-3.167c-.038-.638-.007-1.279-.007-1.919q0-124.556.016-249.109a14.374,14.374,0,0,0-.773-4.675q-10.335-30.719-20.6-61.461c-.456-1.36-1.033-2.685-1.4-4.068-.856-3.261-.06-5.018,3.107-6.069q46.88-15.562,93.706-31.283,34.143-11.409,68.29-22.8,34.142-11.415,68.275-22.856,33.117-11.084,66.236-22.158,12.127-4.059,24.245-8.145,22.665-7.589,45.334-15.16,34.259-11.439,68.52-22.87c2.343-.783,4.681-1.588,7-2.452a6.682,6.682,0,0,1,3.543-.281c1.738.308,2.313,1.755,2.807,3.242q5.505,16.57,11.039,33.133Q-56.59,127.2-48.908,150.1c.329.982.741,1.939,1.031,2.932.849,2.914-.008,4.579-2.866,5.535-8.695,2.909-17.4,5.787-26.1,8.7q-34.254,11.459-68.5,22.931-33.912,11.344-67.83,22.67t-67.836,22.661q-34.138,11.423-68.265,22.877-33.232,11.118-66.473,22.212A5.673,5.673,0,0,0-418.491,281.921Z" transform="translate(526.668 -67.799)"/><path class="cls-2" d="M-294.427,438.016l-17.129,6.253c-.743.944-1.876,1.144-2.913,1.538-7,2.655-14.17,4.879-21.034,7.909-7.268,2.378-14.34,5.3-21.567,7.789a9.3,9.3,0,0,1-2.292.636c-2.813.331-5.329,1.6-7.947,2.541-6,2.152-12.013,4.281-17.964,6.568a5.7,5.7,0,0,1-.642.264,32.459,32.459,0,0,0-5.05,1.808,5.416,5.416,0,0,1-.648.273q-10.558,3.678-21.012,7.637c-3.415,1.095-6.762,2.38-10.108,3.666a4.487,4.487,0,0,1-4.819-.4,2.265,2.265,0,0,1-.519-.5c-1.686-2.974-2.4-6.315-3.569-9.486a3.953,3.953,0,0,1,.093-4.82,5.318,5.318,0,0,1,2.34-1.583c5.406-1.827,10.679-4.031,16.138-5.7.531-.276,1.173,0,1.692-.342,4.7-2.018,9.563-3.6,14.361-5.349q29.708-10.852,59.438-21.645c.672-.245,1.312-.577,1.967-.869a6,6,0,0,1,2.685-1.494c16.541-5.966,33.028-12.077,49.59-17.983.98-.35,1.87-.907,2.851-1.263,16.047-5.684,32.008-11.6,48-17.429,4.954-1.806,9.89-3.662,14.752-5.325q-46.886-.016-94.062-.01c-7.175.144-14.348.028-21.52.066a6.842,6.842,0,0,1-2.34-.41,8.624,8.624,0,0,0-3.089-.227q-43.77-.01-87.539-.006c-.64,0-1.281.033-1.918-.006-2.181-.131-3.4-1.287-3.42-3.5q-.079-8.514,0-17.028a3.427,3.427,0,0,1,3.449-3.543c.635-.049,1.278-.009,1.918-.009q43.769,0,87.538-.01a5.978,5.978,0,0,0,3.062-.3,5.511,5.511,0,0,1,2.314-.485c6.441,0,12.882-.028,19.323.017a3.34,3.34,0,0,1,2.454.721c1.038.019,2.077.056,3.116.056q79.634,0,159.268,0c.56,0,1.12-.016,1.679,0,2.508.085,3.906,1.378,3.927,3.843q.073,8.274,0,16.55a3.372,3.372,0,0,1-3.556,3.665c-4.714.031-9.428-.053-14.142-.089.016-1.144,1.006-1.006,1.678-1.241,4.026-1.4,7.991-2.979,12.031-4.345a7.886,7.886,0,0,0,2.094-1.119,3.833,3.833,0,0,0,.716-4.613c-1.211-2.651-1.952-5.488-3.1-8.166,1.148,2.669,1.847,5.51,3.067,8.148a3.885,3.885,0,0,1-.679,4.629c-3.731,2-7.843,3.01-11.744,4.566-1.837.733-3.759,1.246-5.53,2.15q-18.967,6.938-37.937,13.873-12.575,4.592-25.156,9.165c-.666.243-1.3.588-1.943.886a2.3,2.3,0,0,1-1.385.874c-16.65,5.908-33.2,12.085-49.84,18.027C-284.11,434.665-289.074,436.926-294.427,438.016Z" transform="translate(526.668 -67.799)"/><path class="cls-2" d="M-311.562,461.978c1.119.019,2.239.056,3.358.056q79.662,0,159.326,0c.48,0,.961-.017,1.44,0,2.479.1,3.847,1.416,3.87,3.905.044,4.878.012,9.757.012,14.636,0,.64.031,1.282-.006,1.92a3.5,3.5,0,0,1-3.638,3.614c-.558.028-1.119.006-1.679.006H-426.5c-.56,0-1.122.028-1.68,0-2.194-.128-3.393-1.272-3.442-3.477-.05-2.235.053-4.473.089-6.709,1.177.017.856,1.114,1.113,1.7.943,2.137,1.412,4.476,2.742,6.453l0,0c1.712,1.644,3.527,1.335,5.382.283,3.178-1.082,6.293-2.338,9.481-3.392,7.179-2.719,14.443-5.208,21.62-7.931l0,0c1.714-.771,3.584-1.113,5.284-1.922l0,0c7.615-2.779,15.256-5.485,22.848-8.327a12.708,12.708,0,0,1,4.158-1.03c4.983-.977,10.016-.368,15.023-.5,2.787-.076,5.579.017,8.367-.157,6.769.293,13.541.045,20.311.141C-313.962,461.262-312.639,461.04-311.562,461.978Z" transform="translate(526.668 -67.799)"/><path class="cls-3" d="M-393.255,247.744l-5.53,1.86q-21.526,7.232-43.049,14.473c-1.262.425-2.227.565-3.35-.6-11.575-12.046-23.5-23.747-35.286-35.585a2.8,2.8,0,0,1-.278-.4c.151-.722.807-.638,1.3-.8q18.474-6.184,36.949-12.366,5.438-1.822,10.848-3.724a2.251,2.251,0,0,1,2.708.62c11.534,11.975,23.4,23.621,35.129,35.4C-393.547,246.893-393.164,247.119-393.255,247.744Z" transform="translate(526.668 -67.799)"/><path class="cls-3" d="M-191.636,180.293c-5.349,1.814-10.693,3.642-16.048,5.439-10.726,3.6-21.465,7.161-32.18,10.794a2.853,2.853,0,0,1-3.531-.76c-11.312-11.852-23.029-23.3-34.581-34.919-.325-.326-.765-.579-.837-1.1.506-.617,1.286-.629,1.95-.851q19.038-6.375,38.091-12.708c2.569-.857,5.187-1.608,7.67-2.671a3.419,3.419,0,0,1,4.522.979c6.483,7.067,13.41,13.7,20.173,20.5q6.6,6.628,13.235,13.218a18.446,18.446,0,0,0,1.9,1.461Z" transform="translate(526.668 -67.799)"/><path class="cls-3" d="M-177.885,126.121c.2-.42.585-.5.969-.633q23.808-7.957,47.6-15.959a2.234,2.234,0,0,1,2.719.595q17.7,17.912,35.458,35.76a3.907,3.907,0,0,1,.347.523,5.026,5.026,0,0,1-1.815.808q-19.281,6.424-38.553,12.877c-2.644.885-5.285,1.784-7.9,2.755a2.646,2.646,0,0,1-3.327-.739c-2.58-2.834-5.289-5.554-8-8.269q-13.125-13.167-26.282-26.3A4.279,4.279,0,0,1-177.885,126.121Z" transform="translate(526.668 -67.799)"/><path class="cls-3" d="M-292.487,214.088q-21.834,7.29-43.592,14.556c-1.663.556-3.351,1.056-4.967,1.727a2.118,2.118,0,0,1-2.733-.629c-2.217-2.409-4.5-4.764-6.806-7.082q-13.638-13.68-27.31-27.325c-.56-.56-1.1-1.143-1.838-1.919,2.914-1.032,5.626-2.037,8.367-2.955q20.185-6.759,40.378-13.492a2.219,2.219,0,0,1,2.721.523c11.582,12.051,23.529,23.742,35.314,35.592A1.136,1.136,0,0,1-292.487,214.088Z" transform="translate(526.668 -67.799)"/><path class="cls-4" d="M-335.656,390.353a3.4,3.4,0,0,1,.9-.256q11.6.018,23.205.067c.985.956.78,2.21.788,3.378.036,5.18.011,10.36.017,15.54,0,4.137.007,4.143,4.037,4.147,7.491.006,14.982-.018,22.473.019,1.233.007,2.59-.275,3.564.877-.714.345-1.4.756-2.146,1.026q-25.812,9.418-51.634,18.8a8.36,8.36,0,0,1-1.156.248Z" transform="translate(526.668 -67.799)"/><path class="cls-4" d="M-294.427,438.016a20.018,20.018,0,0,1,4.172-1.7q29.632-10.8,59.274-21.584a9.007,9.007,0,0,1,3.2-.787c2.554.038,5.11.08,7.666.113,3.233.04,4.519,1.287,4.532,4.491q.029,7.555,0,15.11c-.011,3.237-1.238,4.458-4.5,4.46q-36.216.012-72.431,0C-293.151,438.114-293.789,438.05-294.427,438.016Z" transform="translate(526.668 -67.799)"/><path class="cls-4" d="M-311.561,365.978q-11.616.043-23.23.072a2.667,2.667,0,0,1-.861-.326q.006-9.463.015-18.929c.007-3.587,1.143-4.731,4.7-4.738q7.428-.014,14.856,0c3.207.012,4.491,1.3,4.5,4.509C-311.558,353.038-311.565,359.508-311.561,365.978Z" transform="translate(526.668 -67.799)"/><path class="cls-3" d="M-467.728,282.149a12.057,12.057,0,0,1-11.934,11.859A12.046,12.046,0,0,1-491.526,282.1a11.888,11.888,0,0,1,11.9-11.834C-472.941,270.293-467.959,275.455-467.728,282.149Z" transform="translate(526.668 -67.799)"/><path class="cls-4" d="M-311.562,461.978q-11.712.039-23.425.07a2.339,2.339,0,0,1-.669-.212,13.731,13.731,0,0,1-.105-8.65,3.4,3.4,0,0,1,1.427-.835q10.812-3.915,21.614-7.855a7.441,7.441,0,0,1,1.164-.227Z" transform="translate(526.668 -67.799)"/><path class="cls-5" d="M-411.377,462.064c-.365.507-.916.4-1.425.431-6.263,2.18-12.442,4.593-18.733,6.695-.037-1.028-.115-2.056-.1-3.083.037-2.768,1.3-4.055,4.084-4.065C-422.16,462.022-416.769,462.054-411.377,462.064Z" transform="translate(526.668 -67.799)"/><path class="cls-6" d="M-431.535,469.19c2.273-1.345,4.842-1.952,7.28-2.879,3.4-1.295,6.845-2.479,10.28-3.686a5.131,5.131,0,0,1,1.173-.13c-1.172,1.214-2.855,1.294-4.3,1.858-4.783,1.862-9.624,3.572-14.443,5.341Z" transform="translate(526.668 -67.799)"/><path class="cls-7" d="M-145.436,383.282c-.479.969-1.437,1.17-2.338,1.49q-6.067,2.156-12.121,4.348a2.353,2.353,0,0,0-1.377.888,2.738,2.738,0,0,1-1.47.009,3.983,3.983,0,0,1,2.02-1.223c5.083-1.866,10.184-3.684,15.278-5.518Z" transform="translate(526.668 -67.799)"/><path class="cls-7" d="M-427.679,484.082c-1.62-1.153-1.625-3.141-2.433-4.715-.567-1.1-.54-2.459-1.422-3.437q-.053-.708-.106-1.416a1.475,1.475,0,0,1,.882,1.063C-429.717,478.407-428.7,481.246-427.679,484.082Z" transform="translate(526.668 -67.799)"/><path class="cls-1" d="M-280.675,414.125q-14.1-.035-28.21-.076c-3.108-.014-2.673.427-2.68-2.607-.018-7.093,0-14.186.011-21.279.319-.013.638-.039.957-.039q47.452,0,95.055,0c-.353.954-1.253.96-1.889,1.193q-19.215,7.038-38.455,14.009-11.133,4.05-22.263,8.109A9.812,9.812,0,0,1-280.675,414.125Z" transform="translate(526.668 -67.799)"/><path class="cls-8" d="M-335.761,453.186c.269,2.879.069,5.765.105,8.649-.71.069-1.42.195-2.129.195q-10.878.012-21.755-.013-.369-.353.128-.469c4.891-1.456,9.6-3.425,14.41-5.111Q-340.38,454.816-335.761,453.186Z" transform="translate(526.668 -67.799)"/><path class="cls-9" d="M-150.077,367.79c-3.919.274-7.2,2.15-10.709,3.3-4.617,1.515-9.14,3.319-13.705,4.992q-12.126,4.443-24.257,8.873c-5.081,1.845-10.181,3.638-15.45,5.517.046-.81.532-.837.93-.981q16.644-6.015,33.284-12.04c8.993-3.263,17.974-6.559,26.976-9.8C-152.14,367.343-151.146,366.558-150.077,367.79Z" transform="translate(526.668 -67.799)"/><path class="cls-6" d="M-359.412,461.548c-.043.157-.085.313-.128.469-7.954,2.576-15.717,5.69-23.617,8.419a6.746,6.746,0,0,1-2.765.685c1.45-1.374,3.443-1.576,5.183-2.249,6.137-2.371,12.362-4.515,18.566-6.711A5.565,5.565,0,0,1-359.412,461.548Z" transform="translate(526.668 -67.799)"/><path class="cls-6" d="M-391.2,473.039c-1.308,1.321-3.164,1.455-4.766,2.071-5.568,2.144-11.218,4.076-16.836,6.089-.163-.107-.217-.213-.163-.32s.108-.16.163-.16c2.073-1.2,4.424-1.682,6.629-2.541,4.411-1.717,8.9-3.223,13.356-4.838A4.338,4.338,0,0,1-391.2,473.039Z" transform="translate(526.668 -67.799)"/><path class="cls-9" d="M-145.444,383.276c1.118-1.993.667-3.847-.209-5.841-1.073-2.438-1.81-5.024-2.717-7.613a.715.715,0,0,1,.8.59c1.167,3.131,2.382,6.246,3.431,9.416a2.574,2.574,0,0,1-1.3,3.454Z" transform="translate(526.668 -67.799)"/><path class="cls-10" d="M-412.8,480.719v.48c-3.187,1.155-6.3,2.511-9.6,3.363a.287.287,0,0,1-.489,0,3.661,3.661,0,0,1,.941-.672C-418.855,482.948-415.942,481.5-412.8,480.719Z" transform="translate(526.668 -67.799)"/><path class="cls-11" d="M-422.885,484.559l.489,0c-2.871,1.473-3.668,1.4-5.285-.483A6.353,6.353,0,0,0-422.885,484.559Z" transform="translate(526.668 -67.799)"/><path class="cls-6" d="M-385.918,471.119a11.393,11.393,0,0,1-5.284,1.922A11.389,11.389,0,0,1-385.918,471.119Z" transform="translate(526.668 -67.799)"/></svg>