<svg id="Capa_1" data-name="Capa 1" xmlns="http://www.w3.org/2000/svg" viewBox="0 0 384.047 480.093"><defs><style>.cls-1{fill:#090807;}</style></defs><path class="cls-1" d="M-664.161,435.219q0-116.88,0-233.759c0-.72-.016-1.44,0-2.16.073-2.766,1.344-4.072,4.177-4.1q7.678-.069,15.36,0c3.143.022,4.445,1.38,4.453,4.624.02,8.4.007,16.8.007,25.2,0,1.36,0,2.72,0,4.08,0,2.2-.087,2.087,2.1,2.087q9.96,0,19.92-.006c1.95,0,1.977-.03,1.979-1.977q.015-14.04,0-28.079c0-.64-.016-1.281,0-1.92.082-2.533,1.317-3.953,3.791-3.989q8.159-.115,16.319,0c2.589.04,3.868,1.589,3.878,4.457.025,7.84.009,15.68.009,23.52,0,2.16.049,4.322-.018,6.48-.035,1.123.31,1.649,1.488,1.521a15.663,15.663,0,0,1,1.679-.009q116.878,0,233.759,0c3.555,0,3.076.37,3.084-3.03.02-9.36,0-18.72.009-28.08,0-3.734,1.132-4.872,4.845-4.882q7.2-.019,14.4,0c3.481.015,4.744,1.292,4.749,4.815q.021,13.92,0,27.84c0,.48-.007.96,0,1.44.033,1.856.035,1.86,1.8,1.9.639.013,1.28,0,1.92,0,5.759,0,11.519.012,17.279,0,3.433-.01,2.985.339,2.991-2.884q.027-13.8.007-27.6c0-.56-.02-1.121.006-1.68.11-2.363,1.36-3.763,3.735-3.8q8.158-.122,16.319-.006c2.457.032,3.786,1.468,3.932,3.928.038.638.009,1.28.009,1.92q0,234.239.037,468.477c0,3.745-.745,5.905-5.56,5.7-4.711-.2-9.438-.028-14.158-.052-3.138-.015-4.309-1.2-4.314-4.371q-.024-14.4-.007-28.8c0-.64,0-1.28-.016-1.92a.821.821,0,0,0-.9-.887c-.32-.011-.64-.014-.96-.014q-10.08,0-20.16,0c-1.931,0-1.958.03-1.96,2q-.015,14.16,0,28.32c0,.56.021,1.121,0,1.68-.123,2.65-1.405,3.938-4.05,3.988-2.239.043-4.48.011-6.72.011-3.04,0-6.08.025-9.12-.01-2.85-.033-4.081-1.251-4.1-4.1-.03-5.92,0-11.84-.014-17.76,0-2.1-.023-2.1-2.084-2.127-.4,0-.8,0-1.2,0q-116.757,0-233.514.007c-3.625,0-3.174-.515-3.191,3.163-.023,5.2,0,10.4-.006,15.6,0,.56.034,1.125-.02,1.68a3.529,3.529,0,0,1-3.763,3.53q-8.28.076-16.56,0c-2.37-.026-3.615-1.363-3.643-3.817-.048-4.239-.015-8.479-.015-12.719,0-5.84.009-11.68-.006-17.52,0-1.872-.036-1.909-1.81-1.913q-10.2-.024-20.4,0c-1.744,0-1.775.041-1.777,1.936q-.018,14.28-.006,28.56c0,.64.038,1.284-.02,1.919a3.526,3.526,0,0,1-3.737,3.556q-8.278.08-16.559,0c-2.383-.024-3.585-1.35-3.678-3.791-.03-.8-.007-1.6-.007-2.4Q-664.161,552.1-664.161,435.219Zm191.954-72.028h116.88c.64,0,1.281-.029,1.92,0,.924.047,1.317-.364,1.252-1.281-.034-.477,0-.959,0-1.439q0-51.24,0-102.48c0-3.123.32-2.8-2.848-2.8q-117.12-.006-234.239,0c-.56,0-1.123.036-1.68,0-.961-.068-1.285.411-1.236,1.3.027.479,0,.96,0,1.44q0,51.24,0,102.48c0,3.171-.384,2.78,2.829,2.781Q-530.767,363.2-472.207,363.191Zm.124,132h117.359c2.9,0,2.543.127,2.566-2.6,0-.08,0-.16,0-.24q0-51.12,0-102.24c0-.56-.028-1.121,0-1.68.052-.937-.4-1.3-1.3-1.245-.479.029-.96,0-1.44,0q-117.24,0-234.48,0c-3.052,0-2.786-.377-2.787,2.853q-.006,51.12,0,102.24c0,3.323-.41,2.9,2.952,2.9Q-530.643,495.2-472.083,495.191Zm-.294,132h116.64c.56,0,1.12.01,1.68,0,1.854-.038,1.856-.041,1.9-1.825.011-.48,0-.96,0-1.44q0-50.76-.006-101.52c0-3.652.459-3.208-3.155-3.209q-116.76-.011-233.519,0c-.4,0-.8,0-1.2,0-2.093.024-2.094.024-2.123,2.084,0,.32,0,.64,0,.96q0,51,.006,102c0,3.366-.42,2.95,2.9,2.951Q-530.817,627.2-472.377,627.191ZM-616.159,267.353c0-3.52-.044-7.041.024-10.559.025-1.281-.456-1.661-1.675-1.624-2.318.07-4.64.02-6.96.02-4.56,0-9.12.025-13.679-.017-1.146-.011-1.746.2-1.736,1.552.053,7.04.042,14.08.008,21.12,0,1.064.406,1.363,1.411,1.359q10.56-.042,21.12,0c1.153.006,1.527-.4,1.508-1.536C-616.2,274.233-616.159,270.793-616.159,267.353Zm299.815,11.836c3.6,0,7.2-.022,10.8.014,1.019.009,1.4-.351,1.4-1.392q-.045-10.56,0-21.12c.006-1.146-.4-1.524-1.531-1.518q-10.56.054-21.119,0c-1.052,0-1.384.4-1.381,1.411.024,7.04.033,14.08-.009,21.12-.007,1.155.377,1.523,1.518,1.5C-323.224,279.153-319.784,279.19-316.344,279.189Zm-311.973,48c3.52,0,7.041-.041,10.559.022,1.266.023,1.632-.434,1.623-1.668-.049-6.64-.023-13.28-.023-19.92,0-.4-.024-.8,0-1.2.058-.943-.412-1.245-1.3-1.243q-10.679.025-21.359-.006c-1.078,0-1.356.457-1.353,1.438.022,7.04.034,14.08-.011,21.119-.008,1.19.437,1.493,1.545,1.476C-635.2,327.156-631.757,327.19-628.317,327.19Zm324.159-12.076c0-3.44-.046-6.881.023-10.319.026-1.28-.454-1.662-1.674-1.625-2.318.07-4.64.02-6.96.02-4.56,0-9.12.025-13.679-.017-1.144-.011-1.747.2-1.737,1.551.053,7.04.042,14.08.008,21.12,0,1.063.4,1.364,1.411,1.36q10.559-.042,21.119,0c1.152.006,1.527-.393,1.509-1.535C-304.195,322.154-304.159,318.634-304.158,315.114Zm-312,48.219c0-3.519-.023-7.04.015-10.559.011-1.055-.209-1.612-1.445-1.6-7.04.044-14.08.033-21.12.007-.973,0-1.469.234-1.465,1.328q.043,10.679,0,21.359c0,1.085.446,1.343,1.431,1.34q10.56-.041,21.119,0c1.178.006,1.5-.441,1.488-1.556C-616.192,370.214-616.159,366.773-616.159,363.333Zm299.836-12.142c-3.44,0-6.881.036-10.32-.021-1.141-.019-1.541.357-1.535,1.509q.055,10.56,0,21.12c0,1.008.3,1.413,1.363,1.407q10.56-.05,21.12,0c1.09,0,1.565-.283,1.556-1.486q-.07-10.44,0-20.88c.008-1.218-.347-1.7-1.626-1.672C-309.283,351.235-312.8,351.19-316.323,351.191Zm-311.808,72c3.44,0,6.881-.035,10.32.019,1.2.019,1.691-.3,1.68-1.611-.058-6.88-.017-13.76-.034-20.64,0-1.711-.046-1.756-1.72-1.76-6.88-.019-13.76.018-20.639-.031-1.249-.01-1.665.383-1.658,1.633.044,6.96.058,13.92-.008,20.88-.014,1.4.635,1.536,1.74,1.524C-635.011,423.167-631.571,423.19-628.131,423.19Zm311.811,0c3.52,0,7.04-.041,10.559.022,1.261.023,1.636-.426,1.626-1.665-.05-6.479-.023-12.959-.023-19.439,0-.56-.028-1.122,0-1.68.051-.94-.406-1.248-1.3-1.246q-10.68.025-21.36-.006c-1.074,0-1.36.451-1.356,1.434.022,7.04.034,14.08-.011,21.12-.007,1.185.43,1.5,1.542,1.479C-323.2,423.156-319.76,423.19-316.32,423.19Zm-311.976,24c-3.28,0-6.56-.011-9.84,0-1.986.009-2.016.027-2.02,1.937q-.021,10.08,0,20.16c0,1.856.032,1.89,1.8,1.894q10.2.022,20.4,0c1.748,0,1.79-.043,1.794-1.677q.027-10.32,0-20.64c0-1.63-.053-1.66-1.809-1.671C-621.416,447.175-624.856,447.19-628.3,447.19Zm324.138,11.924c0-3.44-.046-6.881.023-10.319.025-1.279-.453-1.662-1.674-1.625-2.318.07-4.639.02-6.959.02-4.56,0-9.12.025-13.68-.017-1.143-.011-1.747.2-1.737,1.551.053,7.04.042,14.08.008,21.119,0,1.064.4,1.365,1.41,1.361q10.56-.042,21.12,0c1.151.006,1.527-.392,1.509-1.534C-304.195,466.155-304.159,462.634-304.158,459.114Zm-324.137,60.077c3.44,0,6.88.016,10.32-.007,1.761-.011,1.805-.042,1.809-1.662q.027-10.32,0-20.639c0-1.645-.052-1.682-1.794-1.686q-10.2-.025-20.4,0c-1.74,0-1.788.04-1.793,1.679q-.029,10.32,0,20.639c0,1.631.046,1.659,1.778,1.67C-635.015,519.205-631.655,519.191-628.295,519.191Zm312.2-24c-3.52,0-7.041.038-10.56-.022-1.158-.019-1.527.388-1.521,1.523q.053,10.558,0,21.119c0,1.025.325,1.4,1.376,1.395q10.56-.049,21.12,0c1.106,0,1.55-.314,1.543-1.5q-.069-10.438,0-20.879c.008-1.235-.377-1.684-1.64-1.66C-309.215,495.234-312.656,495.19-316.1,495.191Zm-300.062,60.174c0-3.52-.043-7.041.022-10.56.024-1.264-.428-1.644-1.662-1.636q-10.438.066-20.879,0c-1.188-.007-1.5.44-1.5,1.545q.048,10.56,0,21.12c0,1.054.379,1.376,1.4,1.372q10.56-.045,21.12,0c1.137.006,1.541-.366,1.521-1.523C-616.2,562.246-616.159,558.8-616.158,555.365Zm300.048-12.174c-3.52,0-7.04.04-10.559-.023-1.178-.02-1.513.422-1.507,1.537q.048,10.56,0,21.12c0,1.044.36,1.385,1.391,1.38q10.56-.047,21.119,0c1.126,0,1.536-.348,1.529-1.515q-.066-10.439,0-20.879c.008-1.252-.41-1.668-1.654-1.645C-309.229,543.232-312.67,543.19-316.11,543.191Zm-312.2,48c-3.44,0-6.881.034-10.32-.02-1.123-.017-1.556.324-1.55,1.494q.058,10.56,0,21.119c-.009,1.262.558,1.425,1.6,1.421,6.96-.029,13.92-.043,20.88.009,1.332.01,1.573-.558,1.566-1.721-.037-6.8-.009-13.6-.024-20.4,0-1.857-.036-1.886-1.826-1.9C-621.429,591.175-624.869,591.19-628.309,591.191Zm324.151,11.936c0-3.44-.044-6.881.022-10.32.025-1.262-.426-1.646-1.66-1.638q-10.44.066-20.88,0c-1.185-.008-1.5.436-1.5,1.543q.048,10.558,0,21.119c0,1.053.376,1.378,1.4,1.374q10.56-.045,21.119,0c1.135.006,1.542-.362,1.523-1.521C-304.2,610.167-304.159,606.647-304.158,603.127Z" transform="translate(664.169 -195.158)"/></svg>