<svg xmlns="http://www.w3.org/2000/svg" width="23.428" height="28.835" viewBox="0 0 23.428 28.835">
  <g id="Grupo_130" data-name="Grupo 130" transform="translate(-1440.976 -938.945)">
    <path id="Rectangle_158_-_Outline" data-name="Rectangle 158 - Outline" d="M1.006,0h16.1a1.006,1.006,0,0,1,0,2.013H1.006A1.006,1.006,0,0,1,1.006,0Z" transform="translate(1443.632 953.974)" fill="#069cb1"/>
    <path id="Rectangle_162_-_Outline" data-name="Rectangle 162 - Outline" d="M1.006,0h16.1a1.006,1.006,0,0,1,0,2.013H1.006A1.006,1.006,0,0,1,1.006,0Z" transform="translate(1443.632 958)" fill="#069cb1"/>
    <path id="Rectangle_159_-_Outline" data-name="Rectangle 159 - Outline" d="M1.006,0h16.1a1.006,1.006,0,0,1,0,2.013H1.006A1.006,1.006,0,0,1,1.006,0Z" transform="translate(1443.632 949.949)" fill="#069cb1"/>
    <path id="Rectangle_161" data-name="Rectangle 161" d="M3.6,1.8A1.8,1.8,0,0,0,1.8,3.6V25.23a1.8,1.8,0,0,0,1.8,1.8h16.22a1.8,1.8,0,0,0,1.8-1.8V3.6a1.8,1.8,0,0,0-1.8-1.8H3.6M3.6,0h16.22a3.6,3.6,0,0,1,3.6,3.6V25.23a3.6,3.6,0,0,1-3.6,3.6H3.6A3.6,3.6,0,0,1,0,25.23V3.6A3.6,3.6,0,0,1,3.6,0Z" transform="translate(1440.976 938.945)" fill="#069cb1"/>
  </g>
</svg>
