<svg id="Componente_219_3" data-name="Componente 219 – 3" xmlns="http://www.w3.org/2000/svg" width="65" height="65" viewBox="0 0 65 65">
  <g id="Grupo_1333" data-name="Grupo 1333" transform="translate(-1790 -1068)">
    <circle id="Elipse_87" data-name="Elipse 87" cx="32.5" cy="32.5" r="32.5" transform="translate(1790 1068)" fill="#069cb1"/>
    <g id="Grupo_310" data-name="Grupo 310" transform="translate(1028 -3542.023)">
      <g id="Trazado_482" data-name="Trazado 482" transform="translate(782 4634.005)" fill="none">
        <path d="M2.212,0H23.23a2.212,2.212,0,0,1,2.212,2.212V18.805a2.212,2.212,0,0,1-2.212,2.212H2.212A2.212,2.212,0,0,1,0,18.805V2.212A2.212,2.212,0,0,1,2.212,0Z" stroke="none"/>
        <path d="M 2.212366104125977 0.9999980926513672 C 1.543865203857422 0.9999980926513672 0.9999961853027344 1.543869018554688 0.9999961853027344 2.212368011474609 L 0.9999961853027344 18.80510902404785 C 0.9999961853027344 19.47360801696777 1.543865203857422 20.01747894287109 2.212366104125977 20.01747894287109 L 23.22984504699707 20.01747894287109 C 23.89834594726562 20.01747894287109 24.44220542907715 19.47360801696777 24.44220542907715 18.80510902404785 L 24.44220542907715 2.212368011474609 C 24.44220542907715 1.543869018554688 23.89834594726562 0.9999980926513672 23.22984504699707 0.9999980926513672 L 2.212366104125977 0.9999980926513672 M 2.212366104125977 -1.9073486328125e-06 L 23.22984504699707 -1.9073486328125e-06 C 24.45169639587402 -1.9073486328125e-06 25.44220542907715 0.990509033203125 25.44220542907715 2.212368011474609 L 25.44220542907715 18.80510902404785 C 25.44220542907715 20.02696800231934 24.45169639587402 21.01747894287109 23.22984504699707 21.01747894287109 L 2.212366104125977 21.01747894287109 C 0.9905052185058594 21.01747894287109 -3.814697265625e-06 20.02696800231934 -3.814697265625e-06 18.80510902404785 L -3.814697265625e-06 2.212368011474609 C -3.814697265625e-06 0.990509033203125 0.9905052185058594 -1.9073486328125e-06 2.212366104125977 -1.9073486328125e-06 Z" stroke="none" fill="#fff"/>
      </g>
      <rect id="Rectángulo_300" data-name="Rectángulo 300" width="25" height="7" rx="1" transform="translate(782 4634.023)" fill="#fff"/>
    </g>
  </g>
</svg>
