<svg xmlns="http://www.w3.org/2000/svg" width="36" height="36" viewBox="0 0 36 36">
  <g id="Grupo_2358" data-name="Grupo 2358" transform="translate(-1004 -1197)">
    <g id="Trazado_609" data-name="Trazado 609" transform="translate(1004 1197)" fill="#069cb1">
      <path d="M 18 35.5 C 13.32557964324951 35.5 8.930950164794922 33.67967987060547 5.625629901885986 30.37437057495117 C 2.320319890975952 27.06904983520508 0.5 22.67441940307617 0.5 18 C 0.5 13.32557964324951 2.320319890975952 8.930950164794922 5.625629901885986 5.625629901885986 C 8.930950164794922 2.320319890975952 13.32557964324951 0.5 18 0.5 C 22.67441940307617 0.5 27.06904983520508 2.320319890975952 30.37437057495117 5.625629901885986 C 33.67967987060547 8.930950164794922 35.5 13.32557964324951 35.5 18 C 35.5 22.67441940307617 33.67967987060547 27.06904983520508 30.37437057495117 30.37437057495117 C 27.06904983520508 33.67967987060547 22.67441940307617 35.5 18 35.5 Z" stroke="none"/>
      <path d="M 18 1 C 13.45914077758789 1 9.190059661865234 2.768310546875 5.979190826416016 5.979190826416016 C 2.768310546875 9.190059661865234 1 13.45914077758789 1 18 C 1 22.54085922241211 2.768310546875 26.80994033813477 5.979190826416016 30.02080917358398 C 9.190059661865234 33.231689453125 13.45914077758789 35 18 35 C 22.54085922241211 35 26.80994033813477 33.231689453125 30.02080917358398 30.02080917358398 C 33.231689453125 26.80994033813477 35 22.54085922241211 35 18 C 35 13.45914077758789 33.231689453125 9.190059661865234 30.02080917358398 5.979190826416016 C 26.80994033813477 2.768310546875 22.54085922241211 1 18 1 M 18 0 C 27.94112014770508 0 36 8.058879852294922 36 18 C 36 27.94112014770508 27.94112014770508 36 18 36 C 8.058879852294922 36 0 27.94112014770508 0 18 C 0 8.058879852294922 8.058879852294922 0 18 0 Z" stroke="none" fill="#069cb1"/>
    </g>
    <g id="Grupo_1674" data-name="Grupo 1674" transform="translate(802.996 978.339)">
      <path id="Trazado_233" data-name="Trazado 233" d="M228.281,293.35H209.728a1.279,1.279,0,0,1-1.277-1.277V280.025a.91.91,0,0,1,.909-.909h18.921a1.279,1.279,0,0,1,1.277,1.277v11.68A1.279,1.279,0,0,1,228.281,293.35Zm-18.717-13.121v11.844a.165.165,0,0,0,.164.165h18.553a.165.165,0,0,0,.165-.165v-11.68a.165.165,0,0,0-.165-.164Z" transform="translate(0 -49.124)" fill="#fff"/>
      <path id="Trazado_234" data-name="Trazado 234" d="M317.043,231.108h-8.237a.9.9,0,0,1-.861-1.176l.7-2.2a.9.9,0,0,1,.861-.63h6.84a.9.9,0,0,1,.861.63l.7,2.2a.9.9,0,0,1-.861,1.176ZM309.092,230h7.665l-.566-1.785h-6.533Z" transform="translate(-93.92 0)" fill="#fff"/>
      <path id="Trazado_235" data-name="Trazado 235" d="M318.66,334.324a4.858,4.858,0,1,1,4.858-4.858A4.863,4.863,0,0,1,318.66,334.324Zm0-8.6a3.745,3.745,0,1,0,3.745,3.745A3.749,3.749,0,0,0,318.66,325.722Z" transform="translate(-99.491 -92.087)" fill="#fff"/>
    </g>
  </g>
</svg>
