<?xml version="1.0" encoding="utf-8"?>
<!-- Generator: Adobe Illustrator 25.4.0, SVG Export Plug-In . SVG Version: 6.00 Build 0)  -->
<svg version="1.1" id="Capa_1" xmlns="http://www.w3.org/2000/svg" xmlns:xlink="http://www.w3.org/1999/xlink" x="0px" y="0px"
	 viewBox="0 0 17.3 17.2" style="enable-background:new 0 0 17.3 17.2;" xml:space="preserve">
<style type="text/css">
	.st0{fill:#F9B233;}
</style>
<path id="Trazado_274" class="st0" d="M8.9,0.1l2.8,4.7c0,0.1,0.1,0.1,0.2,0.1l5.2,1.4c0.2,0,0.3,0.2,0.2,0.4c0,0,0,0.1-0.1,0.1
	l-3.4,4.3c0,0.1-0.1,0.1-0.1,0.2l0.4,5.6c0,0.2-0.1,0.3-0.3,0.3c0,0-0.1,0-0.1,0l-4.9-2.1c-0.1,0-0.1,0-0.2,0l-4.9,2.1
	c-0.2,0.1-0.3,0-0.4-0.2c0,0,0-0.1,0-0.1l0.4-5.6c0-0.1,0-0.2-0.1-0.2L0.1,6.8C0,6.7,0,6.5,0.1,6.4c0,0,0.1,0,0.1-0.1L5.4,5
	c0.1,0,0.1-0.1,0.2-0.1l2.8-4.7C8.5,0,8.6,0,8.8,0C8.8,0.1,8.9,0.1,8.9,0.1z"/>
</svg>
