<?xml version="1.0" encoding="utf-8"?>
<!-- Generator: Adobe Illustrator 27.7.0, SVG Export Plug-In . SVG Version: 6.00 Build 0)  -->
<svg version="1.1" id="Capa_1" xmlns="http://www.w3.org/2000/svg" xmlns:xlink="http://www.w3.org/1999/xlink" x="0px" y="0px"
	 viewBox="0 0 94 68.5" style="enable-background:new 0 0 94 68.5;" xml:space="preserve">
<style type="text/css">
	.st0{fill:#008CA3;}
</style>
<path class="st0" d="M6.4,26.02c-2.34,0-4.23-1.89-4.23-4.23V5.23C2.17,2.89,4.07,1,6.4,1h18.28c2.34,0,4.23,1.89,4.23,4.23
	c0,2.34-1.89,4.23-4.23,4.23H10.63v12.33C10.63,24.13,8.74,26.02,6.4,26.02z"/>
<path class="st0" d="M88.52,26.02c-2.34,0-4.23-1.89-4.23-4.23V9.46H70.24c-2.34,0-4.23-1.89-4.23-4.23C66.01,2.89,67.9,1,70.24,1
	h18.28c2.34,0,4.23,1.89,4.23,4.23v16.56C92.75,24.13,90.86,26.02,88.52,26.02z"/>
<path class="st0" d="M88.52,67H70.24c-2.34,0-4.23-1.89-4.23-4.23c0-2.34,1.89-4.23,4.23-4.23h14.05V46.21
	c0-2.34,1.89-4.23,4.23-4.23c2.34,0,4.23,1.89,4.23,4.23v16.56C92.75,65.11,90.86,67,88.52,67z"/>
<path class="st0" d="M24.69,67H6.4c-2.34,0-4.23-1.89-4.23-4.23V46.21c0-2.34,1.89-4.23,4.23-4.23s4.23,1.89,4.23,4.23v12.33h14.05
	c2.34,0,4.23,1.89,4.23,4.23C28.92,65.11,27.02,67,24.69,67z"/>
</svg>
