<svg xmlns="http://www.w3.org/2000/svg" width="20.059" height="14.045" viewBox="0 0 20.059 14.045">
  <path id="Trazado_207" data-name="Trazado 207" d="M238.131,177.03a4.308,4.308,0,0,0-.8-1.982,2.876,2.876,0,0,0-2.01-.846c-2.807-.2-7.017-.2-7.017-.2H228.3s-4.211,0-7.017.2a2.876,2.876,0,0,0-2.01.846,4.308,4.308,0,0,0-.8,1.982,30.057,30.057,0,0,0-.2,3.232v1.515a30.059,30.059,0,0,0,.2,3.232,4.308,4.308,0,0,0,.8,1.982,3.409,3.409,0,0,0,2.212.853c1.6.153,6.82.2,6.82.2s4.215-.006,7.022-.208a2.876,2.876,0,0,0,2.01-.846,4.308,4.308,0,0,0,.8-1.982,30.106,30.106,0,0,0,.2-3.232v-1.515A30.1,30.1,0,0,0,238.131,177.03Zm-15.453,8.336h-1.343v-7.725h-1.411v-1.275h4.232v1.276h-1.478Zm4.837,0h-1.276v-.739a1.887,1.887,0,0,1-1.341.835.8.8,0,0,1-.8-.519,2.7,2.7,0,0,1-.142-.987v-5.307h1.276v5.441c.03.188.11.257.272.257.244,0,.465-.212.736-.593v-5.105h1.276Zm4.635-2.015a5.164,5.164,0,0,1-.134,1.343,1,1,0,0,1-1,.758,1.728,1.728,0,0,1-1.282-.763l0,.676h-1.209v-9h1.209V179.3a1.74,1.74,0,0,1,1.285-.758.985.985,0,0,1,.972.782,4.711,4.711,0,0,1,.163,1.341Zm2.672,1a.523.523,0,0,0,.543-.488c.011-.066.009-.356.009-.844h1.276v.19a7.645,7.645,0,0,1-.043.791,1.733,1.733,0,0,1-.284.729,1.682,1.682,0,0,1-1.471.728,1.741,1.741,0,0,1-1.472-.688,2.484,2.484,0,0,1-.424-1.549v-2.351a2.7,2.7,0,0,1,.409-1.612,1.742,1.742,0,0,1,1.457-.7,1.7,1.7,0,0,1,1.435.7,2.634,2.634,0,0,1,.4,1.582v1.373h-2.421v1.206C234.227,184.035,234.4,184.347,234.821,184.347Z" transform="translate(-218.272 -174)" fill="#069cb1"/>
</svg>
