<svg xmlns="http://www.w3.org/2000/svg" width="16.309" height="16.259" viewBox="0 0 16.309 16.259">
  <path id="Trazado_215" data-name="Trazado 215" d="M270.041,271.009l2.673,4.45a.278.278,0,0,0,.167.127l4.87,1.285a.3.3,0,0,1,.145.467l-3.218,4.035a.3.3,0,0,0-.064.205l.337,5.244a.28.28,0,0,1-.38.289l-4.662-1.956a.266.266,0,0,0-.206,0l-4.662,1.956a.28.28,0,0,1-.38-.289l.337-5.244a.3.3,0,0,0-.064-.205l-3.218-4.035a.3.3,0,0,1,.145-.467l4.87-1.285a.279.279,0,0,0,.167-.127l2.673-4.45A.271.271,0,0,1,270.041,271.009Z" transform="translate(-261.652 -270.874)" fill="#f9b233"/>
</svg>
