<svg xmlns="http://www.w3.org/2000/svg" width="38.13" height="15.858" viewBox="0 0 38.13 15.858">
  <g id="Grupo_244" data-name="Grupo 244" transform="translate(-49.651 -240.607)">
    <path id="Trazado_239" data-name="Trazado 239" d="M592.61,256.518h-.739a3.311,3.311,0,0,1-1.842-1.043c-.074-.079-.109-.078-.136.03-.047.188-.109.373-.145.563s-.126.236-.308.235c-1-.008-2,0-2.993-.005-.442,0-.442.1-.441-.435q.007-7.443.016-14.887c0-.013,0-.026,0-.039,0-.271,0-.273.268-.273h3.363c.277,0,.284.006.284.282q0,1.533.006,3.067c0,.068-.037.165.029.2s.118-.059.169-.1a3.032,3.032,0,0,1,1.783-.824,3.259,3.259,0,0,1,1.909.307,2.008,2.008,0,0,1,1.127,1.832c0,1.611.006,3.222,0,4.833-.008,1.332.048,2.666-.04,4a2.22,2.22,0,0,1-.638,1.461A2.932,2.932,0,0,1,592.61,256.518Zm-1.57-6.5c0-1.041,0-2.082,0-3.123a5.359,5.359,0,0,0-.078-.965.51.51,0,0,0-.513-.387.416.416,0,0,0-.426.417c-.019.173-.036.347-.041.522-.046,1.61-.042,3.22-.041,4.83,0,.7-.009,1.4.039,2.094a1.808,1.808,0,0,0,.087.495.46.46,0,0,0,.466.31.449.449,0,0,0,.428-.358,2.992,2.992,0,0,0,.076-.575C591.044,252.195,591.04,251.109,591.04,250.022Z" transform="translate(-507.185 -0.053)" fill="#fff"/>
    <path id="Trazado_240" data-name="Trazado 240" d="M49.651,240.677c.071,0,.142-.012.213-.012h3.577c.286,0,.292,0,.292.295q0,2.417,0,4.834,0,5.067,0,10.134c0,.372,0,.372-.37.372H49.922c-.09,0-.181-.008-.271-.013Z" transform="translate(0 -0.055)" fill="#fff"/>
    <path id="Trazado_241" data-name="Trazado 241" d="M150.834,247.567q.121-.939.241-1.878.224-1.75.448-3.5c.057-.442.121-.884.169-1.327.02-.18.083-.258.278-.256,1.626.011,3.253,0,4.879.038.151,0,.217.052.2.2-.005.058,0,.116,0,.175q0,7.406,0,14.811c0,.058-.005.117,0,.175.015.152-.053.2-.2.2-1.049.041-2.1.02-3.149.035-.189,0-.248-.068-.247-.249,0-.815,0-1.631,0-2.446,0-2.433,0-4.866-.019-7.3q-.233,1.735-.466,3.47c-.175,1.313-.346,2.627-.523,3.94-.1.775-.223,1.548-.325,2.323a.244.244,0,0,1-.263.247c-.7.02-1.4.018-2.1,0-.193,0-.254-.12-.28-.3q-.453-3.167-.917-6.332-.2-1.4-.4-2.8a.564.564,0,0,0-.059-.2v9.2c0,.052,0,.1,0,.155,0,.279-.008.284-.283.285-1.03,0-2.061,0-3.091,0-.19,0-.261-.051-.261-.251q.007-7.571,0-15.141c0-.181.053-.251.243-.25,1.484.009,2.968.008,4.452.013.136,0,.272.028.407.021.17-.008.225.081.247.228q.214,1.477.433,2.954.269,1.832.537,3.664c0,.025.011.05.016.075Z" transform="translate(-89.655)" fill="#fff"/>
    <path id="Trazado_242" data-name="Trazado 242" d="M396.419,248.48q0-3.707,0-7.415c0-.078,0-.155,0-.233,0-.121.059-.172.181-.17,1.322.013,2.643-.021,3.965.028.725.027,1.449.046,2.171.129a4.373,4.373,0,0,1,1.384.365,2.738,2.738,0,0,1,1.641,2.467c.176,2.669.123,5.341.1,8.012a16.333,16.333,0,0,1-.138,2.477,2.252,2.252,0,0,1-1.377,1.8,4.227,4.227,0,0,1-1.707.314c-2,.022-3.991.034-5.986.05-.225,0-.236-.01-.236-.289q0-2.6,0-5.2Zm4.1,0q0,2.368,0,4.737c0,.473,0,.365.38.33a.733.733,0,0,0,.766-.743,14.334,14.334,0,0,0,.1-1.9q.018-2.514,0-5.028c-.006-.607,0-1.216-.07-1.822a.544.544,0,0,0-.456-.572,2.19,2.19,0,0,0-.477-.086c-.245-.018-.246-.021-.246.228Q400.517,246.053,400.517,248.479Z" transform="translate(-327.909 -0.052)" fill="#fff"/>
  </g>
</svg>
