<svg xmlns="http://www.w3.org/2000/svg" width="50.498" height="21.073" viewBox="0 0 50.498 21.073">
  <g id="Grupo_249" data-name="Grupo 249" transform="translate(-59.499 -174)">
    <path id="u" d="M169.95,237.673h-1.915v-1.109a2.832,2.832,0,0,1-2.012,1.252,1.2,1.2,0,0,1-1.2-.779,4.055,4.055,0,0,1-.213-1.481v-8.063h1.915v8.265c.045.283.165.386.408.386.367,0,.7-.319,1.1-.89v-7.761h1.915Z" transform="translate(-91.603 -46.619)" fill="#fff"/>
    <path id="o" d="M116.712,230.316a4.054,4.054,0,0,0-.6-2.419,2.54,2.54,0,0,0-2.117-.981,2.413,2.413,0,0,0-2.117.981,4.042,4.042,0,0,0-.6,2.428l0,3.62a3.755,3.755,0,0,0,.58,2.338,2.668,2.668,0,0,0,2.142,1.062,2.7,2.7,0,0,0,2.157-1.062,3.8,3.8,0,0,0,.564-2.338Zm-1.915,3.83c.1,1.008-.212,1.508-.806,1.508s-.907-.5-.806-1.508v-4.031c-.1-1.008.212-1.48.806-1.48s.908.472.807,1.48Z" transform="translate(-45.118 -46.117)" fill="#fff"/>
    <path id="y" d="M64.035,208.887v5.543H62.019v-5.543s-2.089-6.8-2.52-8.063h2.117l1.415,5.309,1.408-5.309h2.117Z" transform="translate(0 -23.377)" fill="#fff"/>
    <g id="Grupo_248" data-name="Grupo 248" transform="translate(79.9 174)">
      <path id="Trazado_245" data-name="Trazado 245" d="M248.068,178.546a6.465,6.465,0,0,0-1.2-2.974,4.315,4.315,0,0,0-3.016-1.269c-4.212-.3-10.529-.3-10.529-.3h-.013s-6.318,0-10.529.3a4.315,4.315,0,0,0-3.016,1.269,6.463,6.463,0,0,0-1.2,2.974,45.1,45.1,0,0,0-.3,4.849v2.273a45.1,45.1,0,0,0,.3,4.849,6.463,6.463,0,0,0,1.2,2.974,5.115,5.115,0,0,0,3.319,1.281c2.408.23,10.233.3,10.233.3s6.324-.01,10.536-.312a4.314,4.314,0,0,0,3.016-1.269,6.464,6.464,0,0,0,1.2-2.974,45.176,45.176,0,0,0,.3-4.849V183.4A45.173,45.173,0,0,0,248.068,178.546Zm-23.186,12.507h-2.016V179.463H220.75v-1.913l6.35,0v1.915h-2.217Zm7.257,0h-1.915v-1.109a2.832,2.832,0,0,1-2.012,1.252,1.2,1.2,0,0,1-1.2-.779,4.055,4.055,0,0,1-.213-1.481v-7.962h1.915v8.164c.045.283.165.386.408.386.367,0,.7-.319,1.1-.89v-7.66h1.915Zm6.954-3.024a7.748,7.748,0,0,1-.2,2.016,1.5,1.5,0,0,1-1.5,1.138,2.592,2.592,0,0,1-1.923-1.145l0,1.015h-1.814V177.547h1.814l0,4.4a2.61,2.61,0,0,1,1.928-1.138,1.478,1.478,0,0,1,1.458,1.174,7.068,7.068,0,0,1,.244,2.011Zm4.009,1.5a.785.785,0,0,0,.815-.732c.017-.1.014-.535.014-1.267h1.915v.286a11.489,11.489,0,0,1-.065,1.187,2.6,2.6,0,0,1-.427,1.093,2.524,2.524,0,0,1-2.207,1.092,2.612,2.612,0,0,1-2.209-1.032,3.728,3.728,0,0,1-.636-2.323V184.3a4.051,4.051,0,0,1,.614-2.418,2.614,2.614,0,0,1,2.186-1.054,2.554,2.554,0,0,1,2.153,1.054,3.952,3.952,0,0,1,.593,2.373v2.06h-3.632v1.81C242.212,189.056,242.477,189.525,243.1,189.525Z" transform="translate(-218.272 -174)" fill="#fff"/>
      <path id="Trazado_246" data-name="Trazado 246" d="M406.347,241.305c0-.932-.241-1.211-.846-1.211s-.868.257-.868,1.2v1.115l1.713,0Z" transform="translate(-380.688 -231.601)" fill="#fff"/>
      <path id="Trazado_247" data-name="Trazado 247" d="M353.016,240.094a1.417,1.417,0,0,0-.95.46l0,6.113a1.4,1.4,0,0,0,.952.46c.526,0,.764-.386.764-1.394V241.4C353.78,240.39,353.542,240.094,353.016,240.094Z" transform="translate(-334.873 -231.601)" fill="#fff"/>
    </g>
  </g>
</svg>
