<svg xmlns="http://www.w3.org/2000/svg" width="26.526" height="21.526" viewBox="0 0 26.526 21.526">
  <g id="Grupo_2359" data-name="Grupo 2359" transform="translate(-667.438 -977.617)">
    <path id="Trazado_233" data-name="Trazado 233" d="M233.372,297H210.056a1.607,1.607,0,0,1-1.6-1.6V280.258a1.144,1.144,0,0,1,1.142-1.142h23.779a1.607,1.607,0,0,1,1.6,1.6V295.4A1.607,1.607,0,0,1,233.372,297Zm-23.523-16.49V295.4a.207.207,0,0,0,.207.207h23.316a.207.207,0,0,0,.207-.207V280.721a.207.207,0,0,0-.207-.207Z" transform="translate(458.987 702.138)" fill="#069cb1"/>
    <path id="Trazado_234" data-name="Trazado 234" d="M319.39,232.138H309.038a1.135,1.135,0,0,1-1.082-1.478l.878-2.77a1.131,1.131,0,0,1,1.082-.792h8.6a1.131,1.131,0,0,1,1.082.792l.878,2.77a1.135,1.135,0,0,1-1.082,1.478Zm-9.992-1.4h9.633l-.711-2.243h-8.211Z" transform="translate(366.488 750.519)" fill="#069cb1"/>
    <path id="Trazado_235" data-name="Trazado 235" d="M319.907,336.819a6.1,6.1,0,1,1,6.1-6.1A6.112,6.112,0,0,1,319.907,336.819Zm0-10.811a4.707,4.707,0,1,0,4.706,4.707A4.712,4.712,0,0,0,319.907,326.007Z" transform="translate(361.001 659.824)" fill="#069cb1"/>
  </g>
</svg>
