<svg xmlns="http://www.w3.org/2000/svg" width="34.391" height="24.213" viewBox="0 0 34.391 24.213">
  <g id="Grupo_399" data-name="Grupo 399" transform="translate(-180.319 -394.031)">
    <g id="Grupo_388" data-name="Grupo 388" transform="translate(181.739 398.647)">
      <g id="Grupo_387" data-name="Grupo 387" transform="translate(0 0)">
        <path id="Trazado_264" data-name="Trazado 264" d="M223.614,461.29c-8.659,0-15.679,6.393-15.679,7.3,0,.679,7.02,7.3,15.679,7.3s15.679-6.626,15.679-7.3C239.293,468.058,232.273,461.29,223.614,461.29Zm0,13.488a6.2,6.2,0,1,1,6.2-6.2A6.2,6.2,0,0,1,223.614,474.778Z" transform="translate(-207.129 -460.484)" fill="#f9b233"/>
        <path id="Trazado_265" data-name="Trazado 265" d="M214.42,467.511a22.478,22.478,0,0,1-11.508-3.517,24.355,24.355,0,0,1-3.479-2.568c-1.5-1.353-1.5-1.791-1.5-2.026s0-.75,1.494-2.12a23.912,23.912,0,0,1,14.992-5.99,22.369,22.369,0,0,1,11.511,3.572,25.022,25.022,0,0,1,3.473,2.57c1.5,1.343,1.5,1.719,1.5,1.968s0,.673-1.5,2.026a24.355,24.355,0,0,1-3.479,2.568A22.478,22.478,0,0,1,214.42,467.511Zm3.4-14.254a7.005,7.005,0,0,1-.124,12.32,22.428,22.428,0,0,0,7-2.723,19.277,19.277,0,0,0,4.444-3.435,21.476,21.476,0,0,0-4.449-3.424A22.493,22.493,0,0,0,217.818,453.256Zm-18.163,6.109a18.919,18.919,0,0,0,4.49,3.488,22.426,22.426,0,0,0,7,2.723,7.005,7.005,0,0,1-.064-12.353,22.47,22.47,0,0,0-6.962,2.655A17.231,17.231,0,0,0,199.655,459.366Zm14.765-5.377a5.395,5.395,0,1,0,5.395,5.395A5.4,5.4,0,0,0,214.42,453.988ZM229.36,459.7Zm-29.841-.12Zm29.824-.423h0Zm-29.844,0" transform="translate(-197.935 -451.29)" fill="#f9b233"/>
      </g>
      <path id="Trazado_266" data-name="Trazado 266" d="M322.5,478.774a7.007,7.007,0,1,1,7.007-7.007A7.015,7.015,0,0,1,322.5,478.774Zm0-12.4a5.395,5.395,0,1,0,5.395,5.395A5.4,5.4,0,0,0,322.5,466.372Z" transform="translate(-306.017 -463.674)" fill="#f9b233"/>
      <path id="Trazado_267" data-name="Trazado 267" d="M322.5,478.774a7.007,7.007,0,1,1,7.007-7.007A7.015,7.015,0,0,1,322.5,478.774Zm0-12.4a5.395,5.395,0,1,0,5.395,5.395A5.4,5.4,0,0,0,322.5,466.372Z" transform="translate(-306.017 -463.674)" fill="#f9b233"/>
      <circle id="Elipse_40" data-name="Elipse 40" cx="3.453" cy="3.453" r="3.453" transform="translate(13.032 4.64)" fill="#f9b233"/>
    </g>
    <g id="Grupo_389" data-name="Grupo 389" transform="translate(180.319 394.031)">
      <path id="Trazado_268" data-name="Trazado 268" d="M221.36,426.629a2.123,2.123,0,0,1-1.175-.352l-28.749-19.033c-.95-.629-1.483-1.5-.833-2.421a1.854,1.854,0,0,1,2.685-.391l28.749,19.033a1.884,1.884,0,0,1,.753,2.667C222.387,426.7,222.025,426.629,221.36,426.629Z" transform="translate(-189.511 -403.225)" fill="#f9b233"/>
      <path id="Trazado_269" data-name="Trazado 269" d="M182.87,394.837a2.237,2.237,0,0,1,1.227.4l28.749,19.033a1.884,1.884,0,0,1,.753,2.667,1.073,1.073,0,0,1-1.058.5c-.114,0-.237,0-.372,0a2.123,2.123,0,0,1-1.175-.352l-28.749-19.033c-.95-.629-1.483-1.5-.833-2.421a1.755,1.755,0,0,1,1.459-.79m0-.806h0a2.549,2.549,0,0,0-2.117,1.131,2.15,2.15,0,0,0-.4,1.661,3.053,3.053,0,0,0,1.445,1.9l28.749,19.033a2.925,2.925,0,0,0,1.62.486l.193,0h.179a1.857,1.857,0,0,0,1.717-.841,2.374,2.374,0,0,0,.411-1.845,3.1,3.1,0,0,0-1.377-1.96l-28.749-19.033a3.042,3.042,0,0,0-1.672-.533Z" transform="translate(-180.319 -394.031)" fill="#ebebeb"/>
    </g>
  </g>
</svg>