<svg xmlns="http://www.w3.org/2000/svg" width="17.633" height="17.633" viewBox="0 0 17.633 17.633">
  <g id="Grupo_232" data-name="Grupo 232" transform="translate(-167.164 -167.164)">
    <g id="Grupo_231" data-name="Grupo 231" transform="translate(167.164 167.164)">
      <path id="Trazado_230" data-name="Trazado 230" d="M175.98,184.8a8.816,8.816,0,1,1,6.234-2.582A8.759,8.759,0,0,1,175.98,184.8Zm0-16.5a7.68,7.68,0,1,0,7.68,7.68A7.689,7.689,0,0,0,175.98,168.3Z" transform="translate(-167.164 -167.164)" fill="#fff"/>
    </g>
    <path id="Trazado_231" data-name="Trazado 231" d="M207.788,173.111h-4.23a13.49,13.49,0,0,0-.785-2.931c-.707-1.74-1.713-2.765-2.831-2.886a2.1,2.1,0,0,0-.714.046c-1.06.254-1.97,1.294-2.631,3.008a13.761,13.761,0,0,0-.717,2.763h-4.23v1.136h4.087c-.057.6-.087,1.224-.087,1.851a19.565,19.565,0,0,0,.123,2.2H191.65v1.136h4.289a13.169,13.169,0,0,0,.708,2.539c.693,1.728,1.681,2.764,2.781,2.919l.158-1.125c-.973-.137-1.995-1.793-2.492-4.333h5.249a11.726,11.726,0,0,1-.622,2.152c-.535,1.315-1.227,2.112-1.9,2.184l.122,1.129c1.118-.121,2.123-1.145,2.831-2.886a13.106,13.106,0,0,0,.725-2.58h4.289V178.3h-4.123a19.567,19.567,0,0,0,.123-2.2c0-.629-.029-1.249-.086-1.851h4.086Zm-8.295-4.666a.962.962,0,0,1,.328-.022c.673.073,1.366.869,1.9,2.184a12.138,12.138,0,0,1,.687,2.5h-5.38C197.485,170.429,198.518,168.679,199.493,168.445Zm-2.577,9.856a18.357,18.357,0,0,1-.13-2.2c0-.648.032-1.267.09-1.851h5.685c.06.6.091,1.22.091,1.851a18.423,18.423,0,0,1-.13,2.2Z" transform="translate(-23.559 -0.114)" fill="#fff"/>
  </g>
</svg>
