<svg xmlns="http://www.w3.org/2000/svg" width="30.104" height="14.81" viewBox="0 0 30.104 14.81">
  <g id="Grupo_400" data-name="Grupo 400" transform="translate(-197.935 -116.12)">
    <circle id="Elipse_38" data-name="Elipse 38" cx="6.662" cy="6.662" r="6.662" transform="translate(206.347 117.038)" fill="#ebebeb"/>
    <g id="Grupo_385" data-name="Grupo 385" transform="translate(197.935 116.12)">
      <path id="Trazado_260" data-name="Trazado 260" d="M226.668,121.728a22.756,22.756,0,0,0-3.171-2.347,20.424,20.424,0,0,0-10.511-3.261,21.837,21.837,0,0,0-13.688,5.469c-1.363,1.251-1.363,1.731-1.363,1.935s0,.615,1.368,1.85a22.289,22.289,0,0,0,3.176,2.345,18.8,18.8,0,0,0,21.015,0,22.286,22.286,0,0,0,3.176-2.345c1.368-1.235,1.368-1.635,1.368-1.85S228.039,122.954,226.668,121.728Zm-4.3,4.951a20.518,20.518,0,0,1-6.394,2.487,15.383,15.383,0,0,1-5.976,0,20.51,20.51,0,0,1-6.394-2.487,17.294,17.294,0,0,1-4.1-3.185,15.715,15.715,0,0,1,4.076-3.185,20.487,20.487,0,0,1,6.357-2.423h0a16.3,16.3,0,0,1,3.047-.293,15.471,15.471,0,0,1,3.1.322,20.525,20.525,0,0,1,6.278,2.5,19.6,19.6,0,0,1,4.062,3.127A17.627,17.627,0,0,1,222.369,126.678Z" transform="translate(-197.935 -116.12)" fill="#f9b233"/>
      <path id="Trazado_261" data-name="Trazado 261" d="M453.447,146.128a17.625,17.625,0,0,1-4.058,3.136,20.516,20.516,0,0,1-6.394,2.487,6.395,6.395,0,0,0,.112-11.25,20.525,20.525,0,0,1,6.278,2.5A19.6,19.6,0,0,1,453.447,146.128Z" transform="translate(-424.955 -138.705)" fill="#f9b233"/>
      <path id="Trazado_262" data-name="Trazado 262" d="M229.768,151.389a20.51,20.51,0,0,1-6.394-2.487,17.3,17.3,0,0,1-4.1-3.185,15.717,15.717,0,0,1,4.076-3.185,20.487,20.487,0,0,1,6.357-2.423,6.395,6.395,0,0,0,.06,11.279Z" transform="translate(-217.704 -138.344)" fill="#f9b233"/>
      <path id="Trazado_263" data-name="Trazado 263" d="M324.993,130.393a6.385,6.385,0,0,0-6.147-.029h0a6.4,6.4,0,1,0,6.147.029Zm-3.1,10.52a4.925,4.925,0,1,1,4.925-4.925A4.931,4.931,0,0,1,321.893,140.913Z" transform="translate(-306.841 -128.598)" fill="#f9b233"/>
      <circle id="Elipse_39" data-name="Elipse 39" cx="3.153" cy="3.153" r="3.153" transform="translate(11.899 4.237)" fill="#f9b233"/>
    </g>
  </g>
</svg>