<svg xmlns="http://www.w3.org/2000/svg" width="13" height="13" viewBox="0 0 13 13">
  <g id="Grupo_1114" data-name="Grupo 1114" transform="translate(1.007 0)">
    <g id="Grupo_273" data-name="Grupo 273" transform="translate(-1.007)">
      <path id="Trazado_211" data-name="Trazado 211" d="M339.833,133.333c-1.765,0-1.987.008-2.68.039a4.771,4.771,0,0,0-1.578.3,3.324,3.324,0,0,0-1.9,1.9,4.773,4.773,0,0,0-.3,1.578c-.032.693-.039.915-.039,2.68s.008,1.987.039,2.68a4.773,4.773,0,0,0,.3,1.578,3.324,3.324,0,0,0,1.9,1.9,4.772,4.772,0,0,0,1.578.3c.693.032.915.039,2.68.039s1.987-.008,2.68-.039a4.773,4.773,0,0,0,1.578-.3,3.324,3.324,0,0,0,1.9-1.9,4.773,4.773,0,0,0,.3-1.578c.032-.693.039-.915.039-2.68s-.008-1.987-.039-2.68a4.773,4.773,0,0,0-.3-1.578,3.324,3.324,0,0,0-1.9-1.9,4.771,4.771,0,0,0-1.578-.3C341.82,133.341,341.6,133.333,339.833,133.333Zm0,1.171c1.736,0,1.941.007,2.626.038a3.6,3.6,0,0,1,1.207.224A2.151,2.151,0,0,1,344.9,136a3.6,3.6,0,0,1,.224,1.207c.031.685.038.891.038,2.627s-.007,1.941-.038,2.627a3.6,3.6,0,0,1-.224,1.207,2.152,2.152,0,0,1-1.234,1.234,3.6,3.6,0,0,1-1.207.224c-.685.031-.891.038-2.626.038s-1.941-.007-2.627-.038A3.6,3.6,0,0,1,336,144.9a2.153,2.153,0,0,1-1.234-1.234,3.6,3.6,0,0,1-.224-1.207c-.031-.685-.038-.891-.038-2.627s.007-1.941.038-2.627a3.6,3.6,0,0,1,.224-1.207A2.152,2.152,0,0,1,336,134.766a3.6,3.6,0,0,1,1.207-.224c.685-.031.891-.038,2.627-.038" transform="translate(-333.333 -133.333)" fill="#069cb1"/>
      <path id="Trazado_212" data-name="Trazado 212" d="M466.4,232.068a2.167,2.167,0,1,1,2.167-2.167A2.167,2.167,0,0,1,466.4,232.068Zm0-5.5a3.338,3.338,0,1,0,3.338,3.338,3.338,3.338,0,0,0-3.338-3.338m4.25-.132a.78.78,0,1,1-.78-.78.78.78,0,0,1,.78.78" transform="translate(-459.901 -223.402)" fill="#069cb1"/>
    </g>
  </g>
</svg>
