<svg xmlns="http://www.w3.org/2000/svg" width="17.274" height="17.222" viewBox="0 0 17.274 17.222">
  <path id="Trazado_274" data-name="Trazado 274" d="M270.537,271.017l2.831,4.713a.3.3,0,0,0,.177.134l5.158,1.361a.312.312,0,0,1,.154.5l-3.409,4.274a.317.317,0,0,0-.068.218l.357,5.554a.3.3,0,0,1-.4.306L270.4,286a.282.282,0,0,0-.219,0l-4.938,2.072a.3.3,0,0,1-.4-.306l.357-5.554a.317.317,0,0,0-.068-.218l-3.409-4.274a.312.312,0,0,1,.154-.5l5.158-1.361a.3.3,0,0,0,.177-.134l2.831-4.713A.287.287,0,0,1,270.537,271.017Z" transform="translate(-261.652 -270.874)" fill="#069cb1"/>
</svg>
