<svg xmlns="http://www.w3.org/2000/svg" width="22.087" height="19.048" viewBox="0 0 22.087 19.048">
  <path id="Trazado_206" data-name="Trazado 206" d="M158.977,142.33a3.171,3.171,0,0,0-.41-2.595c-.8-1.008-2.493-1.046-3.655-.868a7.668,7.668,0,0,0-5.231,4.932c1.928-.146,2.938.139,2.752,2.261a7.8,7.8,0,0,1-1.027,2.793c-.579,1.075-1.663,3.186-3.084,1.665-1.281-1.37-1.185-3.989-1.477-5.733a24,24,0,0,0-.656-3.2,3.271,3.271,0,0,0-1.685-2.135,3.441,3.441,0,0,0-2.465.493,44.461,44.461,0,0,0-5.055,4.067v.124c.33.315.419.832.9.9,1.145.169,2.237-1.068,3,.219a13.224,13.224,0,0,1,.9,2.495c.4,1.128.7,2.357,1.027,3.655.549,2.2,1.224,5.483,3.123,6.287a4.1,4.1,0,0,0,3.164-.577,17.656,17.656,0,0,0,4.888-4.641A31.572,31.572,0,0,0,158.977,142.33Z" transform="translate(-136.984 -138.786)" fill="#fff" fill-rule="evenodd"/>
</svg>
