<svg id="Capa_1" data-name="Capa 1" xmlns="http://www.w3.org/2000/svg" viewBox="0 0 202.93 225.45"><defs><style>.cls-1{fill:#069cb1;}</style></defs><path class="cls-1" d="M136.89,205.35H115.82c-1,0-1,0-1,1v19a6.79,6.79,0,0,1,0,1,1.65,1.65,0,0,1-1.58,1.48c-.27,0-.53,0-.79,0H94.64c-.19,0-.38,0-.56,0-1.2,0-1.74-.62-1.78-1.85,0-.26,0-.52,0-.79V206.32c0-1,0-1-1-1H49.82c-.3,0-.6,0-.9,0a1.59,1.59,0,0,1-1.7-1.68c0-.75,0-1.5,0-2.26a55.63,55.63,0,0,0,0-5.63A6.73,6.73,0,0,1,48,192q8.27-17.64,16.51-35.28a3.92,3.92,0,0,1,.92-1.4,2.24,2.24,0,0,1,3.14-.24,61.77,61.77,0,0,0,18.62,8.6,62,62,0,0,0,51.22-8.57,2.34,2.34,0,0,1,1.55-.54,1.77,1.77,0,0,1,1.88,1.57,4.43,4.43,0,0,0,.32.95l17.24,36.81a5,5,0,0,1,.51,2.27c0,2.33,0,4.66,0,7,0,1.6-.56,2.14-2.19,2.14Z" transform="translate(-2.1 -2.44)"/><path class="cls-1" d="M205,103.88v54.21c0,1.62-.56,2.16-2.17,2.17-2.78,0-5.56,0-8.34,0a3.8,3.8,0,0,1-1.6-.46l-34.19-16c-1-.46-2-.91-2.95-1.39a2.3,2.3,0,0,1-1.49-2.51,2.52,2.52,0,0,1,.56-1.2A61.6,61.6,0,0,0,162.22,124a60.61,60.61,0,0,0,3-13.84A61.57,61.57,0,0,0,154.74,69a2.77,2.77,0,0,1-.44-1.8,1.47,1.47,0,0,1,1.15-1.49,9.78,9.78,0,0,0,1.86-.75l36.42-17a4.61,4.61,0,0,1,2.17-.4c2.17.06,4.35,0,6.53,0,.3,0,.61,0,.91,0A1.72,1.72,0,0,1,205,49.21a10.65,10.65,0,0,1,0,1.13Z" transform="translate(-2.1 -2.44)"/><path class="cls-1" d="M103.62,2.45h53.63c2.26,0,2.68.43,2.68,2.71,0,2.1,0,4.2,0,6.31a4.45,4.45,0,0,1-.44,2.06q-8.66,18.51-17.29,37a3.76,3.76,0,0,0-.32.83c-.34,1.81-1.79,2.4-3.33,1.36a66.24,66.24,0,0,0-6.37-3.82A62.24,62.24,0,0,0,68.62,52.7a2.19,2.19,0,0,1-3.31-.53A6.37,6.37,0,0,1,64.62,51Q56.07,32.71,47.51,14.4a5,5,0,0,1-.32-2.5c.08-2,0-3.9,0-5.86,0-.6,0-1.2,0-1.8A1.67,1.67,0,0,1,49,2.45c.33,0,.67,0,1,0Z" transform="translate(-2.1 -2.44)"/><path class="cls-1" d="M2.12,103.88q0-26.88,0-53.76c0-2.26.93-2.63,2.57-2.6,2.4,0,4.8.1,7.21-.05a3.12,3.12,0,0,1,1.49.44L40.72,60.67c2.82,1.31,5.62,2.68,8.48,3.93a25.19,25.19,0,0,1,2.94,1.81,1.62,1.62,0,0,1,.27,2.46,63.32,63.32,0,0,0-6.33,11.78,60.53,60.53,0,0,0-4.07,16A61.3,61.3,0,0,0,52.33,138.8a3.35,3.35,0,0,1,.48,2.46,1.54,1.54,0,0,1-1.42,1.38,4.39,4.39,0,0,0-1.38.45q-17.7,8.25-35.4,16.53a6.36,6.36,0,0,1-2.81.65c-2.59,0-5.18,0-7.77,0-1.34,0-1.9-.57-1.9-1.94,0-2.74,0-5.48,0-8.22Z" transform="translate(-2.1 -2.44)"/><path class="cls-1" d="M103.61,160.26c-30.95.17-56.31-25.15-56.43-56.15a56.37,56.37,0,1,1,56.43,56.15Zm0-101.45a45.1,45.1,0,1,0,45,45.25,45.17,45.17,0,0,0-45-45.25Z" transform="translate(-2.1 -2.44)"/><path class="cls-1" d="M103.05,77a23.79,23.79,0,0,0-4.84.4,5.11,5.11,0,0,1-1.35.08,1.7,1.7,0,0,1-1.56-1.26c-.44-1.59-.85-3.19-1.28-4.78a1.48,1.48,0,0,1,.54-1.51,3.15,3.15,0,0,1,1.71-.79,35.75,35.75,0,0,1,28.61,6.77,35.26,35.26,0,0,1,12.21,16.52,4.38,4.38,0,0,1,.36,1.86A1.58,1.58,0,0,1,136.1,96c-1.44.41-2.89.79-4.35,1.16a1.81,1.81,0,0,1-2.25-1,7.61,7.61,0,0,1-.39-.93c-4-10-11.29-15.92-21.83-17.91A18.16,18.16,0,0,0,103.05,77Z" transform="translate(-2.1 -2.44)"/></svg>