<svg xmlns="http://www.w3.org/2000/svg" width="20.069" height="6.746" viewBox="0 0 20.069 6.746">
  <g id="Grupo_409" data-name="Grupo 409" transform="translate(-731.164 -951.328)">
    <path id="Trazado_238" data-name="Trazado 238" d="M22.1,24.323H6.075A2.023,2.023,0,0,1,4.054,22.3V19.6a2.023,2.023,0,0,1,2.021-2.021H22.1A2.023,2.023,0,0,1,24.123,19.6v2.7A2.023,2.023,0,0,1,22.1,24.323ZM6.075,18.713a.886.886,0,0,0-.885.885v2.7a.886.886,0,0,0,.885.885H22.1a.886.886,0,0,0,.885-.885V19.6a.886.886,0,0,0-.885-.885Z" transform="translate(727.11 933.751)" fill="#069cb1"/>
    <rect id="Rectángulo_289" data-name="Rectángulo 289" width="1.215" height="1.916" rx="0.608" transform="translate(735.9 955.27)" fill="#069cb1"/>
    <rect id="Rectángulo_290" data-name="Rectángulo 290" width="1.215" height="3.064" rx="0.608" transform="translate(739.027 954.122)" fill="#069cb1"/>
    <rect id="Rectángulo_291" data-name="Rectángulo 291" width="1.215" height="1.916" rx="0.608" transform="translate(742.154 955.27)" fill="#069cb1"/>
    <rect id="Rectángulo_292" data-name="Rectángulo 292" width="1.215" height="3.064" rx="0.608" transform="translate(745.282 954.122)" fill="#069cb1"/>
  </g>
</svg>
