<svg xmlns="http://www.w3.org/2000/svg" width="15.125" height="15.125" viewBox="0 0 15.125 15.125">
  <path id="linkedin-3" d="M11.974,0H3.151A3.151,3.151,0,0,0,0,3.151v8.823a3.151,3.151,0,0,0,3.151,3.151h8.823a3.151,3.151,0,0,0,3.151-3.151V3.151A3.151,3.151,0,0,0,11.974,0ZM5.042,11.974H3.151V5.042H5.042ZM4.1,4.242A1.112,1.112,0,1,1,5.2,3.131,1.108,1.108,0,0,1,4.1,4.242ZM12.6,11.974H10.713V8.443c0-2.123-2.521-1.962-2.521,0v3.531H6.3V5.042H8.193V6.154A2.4,2.4,0,0,1,12.6,7.714Z" fill="#069cb1"/>
</svg>
