<svg xmlns="http://www.w3.org/2000/svg" width="21" height="21" viewBox="0 0 21 21">
  <g id="Grupo_245" data-name="Grupo 245" transform="translate(-333.333 -133.333)">
    <path id="Trazado_243" data-name="Trazado 243" d="M343.833,133.333c-2.852,0-3.209.012-4.329.063a7.709,7.709,0,0,0-2.549.488,5.369,5.369,0,0,0-3.071,3.071,7.706,7.706,0,0,0-.488,2.549c-.051,1.12-.063,1.478-.063,4.329s.012,3.209.063,4.329a7.706,7.706,0,0,0,.488,2.549,5.369,5.369,0,0,0,3.071,3.071,7.709,7.709,0,0,0,2.549.488c1.12.051,1.478.063,4.329.063s3.209-.012,4.329-.063a7.709,7.709,0,0,0,2.549-.488,5.369,5.369,0,0,0,3.071-3.071,7.709,7.709,0,0,0,.488-2.549c.051-1.12.063-1.478.063-4.329s-.012-3.209-.063-4.329a7.709,7.709,0,0,0-.488-2.549,5.369,5.369,0,0,0-3.071-3.071,7.709,7.709,0,0,0-2.549-.488C347.042,133.345,346.685,133.333,343.833,133.333Zm0,1.892c2.8,0,3.136.011,4.243.061a5.81,5.81,0,0,1,1.95.362,3.477,3.477,0,0,1,1.993,1.993,5.809,5.809,0,0,1,.362,1.95c.05,1.107.061,1.439.061,4.243s-.011,3.136-.061,4.243a5.809,5.809,0,0,1-.362,1.95,3.477,3.477,0,0,1-1.993,1.993,5.81,5.81,0,0,1-1.95.362c-1.107.051-1.439.061-4.243.061s-3.136-.011-4.243-.061a5.809,5.809,0,0,1-1.95-.362,3.477,3.477,0,0,1-1.993-1.993,5.81,5.81,0,0,1-.362-1.95c-.05-1.107-.061-1.439-.061-4.243s.011-3.136.061-4.243a5.809,5.809,0,0,1,.362-1.95,3.477,3.477,0,0,1,1.993-1.993,5.81,5.81,0,0,1,1.95-.362c1.107-.051,1.439-.061,4.243-.061" fill="#fff"/>
    <path id="Trazado_244" data-name="Trazado 244" d="M468.455,236.017a3.5,3.5,0,1,1,3.5-3.5A3.5,3.5,0,0,1,468.455,236.017Zm0-8.892a5.392,5.392,0,1,0,5.392,5.392,5.392,5.392,0,0,0-5.392-5.392m6.865-.213a1.26,1.26,0,1,1-1.26-1.26,1.26,1.26,0,0,1,1.26,1.26" transform="translate(-124.622 -88.684)" fill="#fff"/>
  </g>
</svg>
