<svg xmlns="http://www.w3.org/2000/svg" width="13.613" height="11.062" viewBox="0 0 13.613 11.062">
  <path id="Trazado_213" data-name="Trazado 213" d="M13.554,6.926a5.592,5.592,0,0,1-1.605.44,2.8,2.8,0,0,0,1.229-1.545A5.61,5.61,0,0,1,11.4,6.5,2.794,2.794,0,0,0,6.645,9.046,7.929,7.929,0,0,1,.889,6.127a2.8,2.8,0,0,0,.864,3.73,2.787,2.787,0,0,1-1.266-.35v.035a2.8,2.8,0,0,0,2.24,2.739,2.786,2.786,0,0,1-.735.1,2.689,2.689,0,0,1-.526-.051,2.8,2.8,0,0,0,2.609,1.941A5.6,5.6,0,0,1,.606,15.463a5.532,5.532,0,0,1-.665-.039,7.893,7.893,0,0,0,4.281,1.255,7.892,7.892,0,0,0,7.946-7.945c0-.121,0-.243-.007-.362A5.683,5.683,0,0,0,13.554,6.926Z" transform="translate(0.059 -5.617)" fill="#069cb1"/>
</svg>
