<svg id="Grupo_1263" data-name="Grupo 1263" xmlns="http://www.w3.org/2000/svg" width="25" height="10.397" viewBox="0 0 25 10.397">
  <g id="Grupo_272" data-name="Grupo 272" transform="translate(0 0)">
    <path id="Trazado_221" data-name="Trazado 221" d="M590.336,251.058h-.484a2.172,2.172,0,0,1-1.208-.684c-.048-.052-.071-.051-.089.019-.031.123-.071.245-.1.369s-.082.155-.2.154c-.654-.005-1.308,0-1.962,0-.29,0-.29.065-.29-.285q.005-4.88.01-9.76v-.025c0-.177,0-.179.176-.179h2.2c.182,0,.186,0,.186.185q0,1.005,0,2.011c0,.044-.024.108.019.13s.077-.039.111-.068a1.988,1.988,0,0,1,1.169-.54,2.136,2.136,0,0,1,1.252.2,1.316,1.316,0,0,1,.739,1.2c0,1.056,0,2.112,0,3.169-.005.873.031,1.748-.026,2.62a1.455,1.455,0,0,1-.418.958A1.922,1.922,0,0,1,590.336,251.058Zm-1.029-4.259c0-.683,0-1.365,0-2.048a3.542,3.542,0,0,0-.051-.633.334.334,0,0,0-.336-.254.272.272,0,0,0-.279.274c-.013.114-.024.228-.027.342-.03,1.055-.027,2.111-.027,3.167,0,.458-.006.916.026,1.373a1.189,1.189,0,0,0,.057.324.3.3,0,0,0,.306.2.294.294,0,0,0,.281-.235,1.963,1.963,0,0,0,.05-.377C589.309,248.224,589.306,247.511,589.306,246.8Z" transform="translate(-566.88 -240.661)" fill="#069cb1"/>
    <path id="Trazado_222" data-name="Trazado 222" d="M49.651,240.673c.047,0,.093-.008.14-.008h2.345c.187,0,.191,0,.191.193q0,1.585,0,3.169,0,3.322,0,6.644c0,.244,0,.244-.243.244H49.829c-.059,0-.119-.005-.178-.008Z" transform="translate(-49.651 -240.662)" fill="#069cb1"/>
    <path id="Trazado_223" data-name="Trazado 223" d="M148.64,245.17q.079-.616.158-1.231.147-1.147.294-2.295c.037-.29.079-.579.111-.87.013-.118.055-.169.182-.168,1.066.007,2.132,0,3.2.025.1,0,.142.034.133.133,0,.038,0,.076,0,.114q0,4.855,0,9.711c0,.038,0,.077,0,.114.01.1-.035.13-.132.134-.688.027-1.376.013-2.064.023-.124,0-.163-.045-.162-.163,0-.535,0-1.069,0-1.6,0-1.6,0-3.19-.013-4.786q-.153,1.138-.306,2.275c-.115.861-.227,1.722-.343,2.583-.069.508-.146,1.015-.213,1.523a.16.16,0,0,1-.173.162c-.459.013-.917.012-1.376,0-.127,0-.167-.079-.184-.2q-.3-2.076-.6-4.151-.133-.918-.264-1.837a.37.37,0,0,0-.039-.129v6.033c0,.034,0,.068,0,.1,0,.183-.005.187-.185.187-.676,0-1.351,0-2.026,0-.125,0-.171-.034-.171-.165q0-4.964,0-9.927c0-.119.035-.164.159-.164.973.006,1.946.005,2.919.008.089,0,.178.018.267.014.112-.005.148.053.162.149q.141.969.284,1.937l.352,2.4c0,.016.007.033.01.049Z" transform="translate(-141.081 -240.607)" fill="#069cb1"/>
    <path id="Trazado_224" data-name="Trazado 224" d="M396.419,245.787q0-2.431,0-4.861c0-.051,0-.1,0-.153,0-.079.039-.113.119-.112.866.008,1.733-.014,2.6.018.475.017.95.03,1.423.084a2.867,2.867,0,0,1,.907.239,1.8,1.8,0,0,1,1.076,1.618c.115,1.75.08,3.5.066,5.253a10.708,10.708,0,0,1-.09,1.624,1.476,1.476,0,0,1-.9,1.178,2.772,2.772,0,0,1-1.119.206c-1.308.015-2.616.023-3.925.033-.148,0-.154-.007-.155-.189q0-1.705,0-3.411Zm2.687,0q0,1.553,0,3.106c0,.31,0,.239.249.216a.48.48,0,0,0,.5-.487,9.414,9.414,0,0,0,.069-1.244q.012-1.648,0-3.3c0-.4,0-.8-.046-1.195a.356.356,0,0,0-.3-.375,1.435,1.435,0,0,0-.313-.056c-.161-.012-.161-.014-.161.149Q399.106,244.2,399.106,245.787Z" transform="translate(-384.054 -240.66)" fill="#069cb1"/>
  </g>
</svg>
