<svg xmlns="http://www.w3.org/2000/svg" width="13.432" height="11.585" viewBox="0 0 13.432 11.585">
  <path id="Trazado_206" data-name="Trazado 206" d="M150.359,140.941a1.929,1.929,0,0,0-.249-1.578,2.451,2.451,0,0,0-2.223-.528,4.663,4.663,0,0,0-3.181,3c1.172-.089,1.787.085,1.674,1.375a4.741,4.741,0,0,1-.625,1.7c-.352.654-1.011,1.938-1.876,1.012-.779-.833-.72-2.426-.9-3.487a14.6,14.6,0,0,0-.4-1.949,1.99,1.99,0,0,0-1.025-1.3,2.093,2.093,0,0,0-1.5.3,27.045,27.045,0,0,0-3.074,2.473v.076c.2.192.255.506.55.549.7.1,1.361-.649,1.824.133a8.045,8.045,0,0,1,.55,1.517c.241.686.427,1.434.624,2.223.334,1.337.744,3.334,1.9,3.824a2.491,2.491,0,0,0,1.924-.351,10.738,10.738,0,0,0,2.973-2.823A19.2,19.2,0,0,0,150.359,140.941Z" transform="translate(-136.984 -138.786)" fill="#069cb1" fill-rule="evenodd"/>
</svg>
