<svg xmlns="http://www.w3.org/2000/svg" width="23.518" height="19.112" viewBox="0 0 23.518 19.112">
  <path id="Trazado_210" data-name="Trazado 210" d="M23.459,7.879a9.66,9.66,0,0,1-2.774.761,4.839,4.839,0,0,0,2.123-2.669A9.692,9.692,0,0,1,19.744,7.14a4.827,4.827,0,0,0-8.221,4.4A13.7,13.7,0,0,1,1.578,6.5a4.835,4.835,0,0,0,1.494,6.444,4.815,4.815,0,0,1-2.187-.6V12.4a4.831,4.831,0,0,0,3.869,4.733,4.813,4.813,0,0,1-1.27.169,4.646,4.646,0,0,1-.909-.088,4.836,4.836,0,0,0,4.507,3.353,9.673,9.673,0,0,1-5.991,2.064,9.558,9.558,0,0,1-1.15-.068,13.637,13.637,0,0,0,7.4,2.168A13.634,13.634,0,0,0,21.065,11c0-.209-.006-.42-.013-.625A9.818,9.818,0,0,0,23.459,7.879Z" transform="translate(0.059 -5.617)" fill="#fff"/>
</svg>
