<svg xmlns="http://www.w3.org/2000/svg" width="27.886" height="27.886" viewBox="0 0 27.886 27.886">
  <g id="Grupo_650" data-name="Grupo 650" transform="translate(-167.164 -167.164)">
    <g id="Grupo_231" data-name="Grupo 231" transform="translate(167.164 167.164)">
      <path id="Trazado_230" data-name="Trazado 230" d="M181.107,195.05a13.943,13.943,0,1,1,9.859-4.084A13.851,13.851,0,0,1,181.107,195.05Zm0-26.089a12.146,12.146,0,1,0,12.146,12.146A12.16,12.16,0,0,0,181.107,168.96Z" transform="translate(-167.164 -167.164)" fill="#069cb1"/>
    </g>
    <path id="Trazado_231" data-name="Trazado 231" d="M217.171,176.5h-6.689a21.334,21.334,0,0,0-1.241-4.636c-1.119-2.752-2.709-4.373-4.477-4.563a3.325,3.325,0,0,0-1.128.073c-1.677.4-3.115,2.046-4.161,4.757a21.763,21.763,0,0,0-1.134,4.37h-6.69v1.8h6.463c-.09.955-.137,1.935-.137,2.928a30.945,30.945,0,0,0,.194,3.483h-6.52v1.8h6.784a20.828,20.828,0,0,0,1.12,4.015c1.1,2.732,2.658,4.372,4.4,4.616l.25-1.779c-1.538-.216-3.155-2.836-3.941-6.852h8.3a18.547,18.547,0,0,1-.984,3.4c-.846,2.08-1.941,3.339-3.005,3.454l.193,1.786c1.768-.191,3.358-1.811,4.477-4.564a20.73,20.73,0,0,0,1.146-4.08h6.784v-1.8h-6.52a30.946,30.946,0,0,0,.194-3.483c0-.994-.046-1.975-.136-2.928h6.462Zm-13.118-7.379a1.52,1.52,0,0,1,.518-.034c1.064.115,2.16,1.374,3.005,3.454a19.193,19.193,0,0,1,1.086,3.959h-8.508C200.878,172.258,202.511,169.49,204.054,169.121Zm-4.076,15.587a29.04,29.04,0,0,1-.205-3.483c0-1.025.05-2,.142-2.928h8.99c.095.948.144,1.93.144,2.928a29.132,29.132,0,0,1-.205,3.483Z" transform="translate(-23.02 -0.111)" fill="#069cb1"/>
  </g>
</svg>
