<?xml version="1.0" encoding="UTF-8"?>
<svg id="Layer_1" data-name="Layer 1" xmlns="http://www.w3.org/2000/svg" viewBox="0 0 32 32">
  <defs>
    <style>
      .cls-1 {
        fill: #039db2;
      }
    </style>
  </defs>
  <path class="cls-1" d="m30.32,10.54H1.68c-.93,0-1.68.75-1.68,1.68v7.55c0,.93.75,1.68,1.68,1.68h28.63c.93,0,1.68-.75,1.68-1.68v-7.55c0-.93-.75-1.68-1.68-1.68Zm.27,9.23c0,.15-.12.27-.27.27h-5.34c.02-.06.03-.13.03-.2v-2.73c0-.39-.32-.69-.69-.69h-.44c-.39,0-.69.32-.69.69v2.73c0,.07.01.14.03.2h-3.73c.02-.06.03-.13.03-.2v-1.34c0-.39-.32-.69-.69-.69h-.44c-.39,0-.69.32-.69.69v1.34c0,.07.01.14.03.2h-3.43c.02-.06.03-.13.03-.2v-2.73c0-.39-.32-.69-.69-.69h-.44c-.39,0-.69.32-.69.69v2.73c0,.07.01.14.03.2h-3.73c.02-.06.03-.13.03-.2v-1.34c0-.39-.32-.69-.69-.69h-.44c-.39,0-.69.32-.69.69v1.34c0,.07.01.14.03.2H1.68c-.15,0-.27-.12-.27-.27v-7.55c0-.15.12-.27.27-.27h28.63c.15,0,.27.12.27.27v7.55Z"/>
</svg>