<svg xmlns="http://www.w3.org/2000/svg" width="21.906" height="32.56" viewBox="0 0 21.906 32.56">
  <g id="Grupo_657" data-name="Grupo 657" transform="translate(-215.033 -126.533)">
    <path id="Trazado_320" data-name="Trazado 320" d="M277.381,148.857H275.8a7.086,7.086,0,0,1-7.078-7.078v-8.168a7.086,7.086,0,0,1,7.078-7.078h1.579a7.086,7.086,0,0,1,7.078,7.078v8.168A7.086,7.086,0,0,1,277.381,148.857ZM275.8,127.945a5.673,5.673,0,0,0-5.667,5.667v8.168a5.673,5.673,0,0,0,5.667,5.667h1.579a5.673,5.673,0,0,0,5.667-5.667v-8.168a5.673,5.673,0,0,0-5.667-5.667Z" transform="translate(-50.66 0)" fill="#069cb1"/>
    <rect id="Rectángulo_411" data-name="Rectángulo 411" width="2.505" height="1.412" transform="translate(219.262 134.009)" fill="#069cb1"/>
    <rect id="Rectángulo_412" data-name="Rectángulo 412" width="2.505" height="1.412" transform="translate(219.262 137.442)" fill="#069cb1"/>
    <rect id="Rectángulo_413" data-name="Rectángulo 413" width="2.505" height="1.412" transform="translate(219.262 140.874)" fill="#069cb1"/>
    <rect id="Rectángulo_414" data-name="Rectángulo 414" width="2.505" height="1.412" transform="translate(230.439 134.009)" fill="#069cb1"/>
    <rect id="Rectángulo_415" data-name="Rectángulo 415" width="2.505" height="1.412" transform="translate(230.439 137.442)" fill="#069cb1"/>
    <rect id="Rectángulo_416" data-name="Rectángulo 416" width="2.505" height="1.412" transform="translate(230.439 140.874)" fill="#069cb1"/>
    <path id="Trazado_321" data-name="Trazado 321" d="M225.986,427.544a11.776,11.776,0,0,1-7.706-2.754,8.89,8.89,0,0,1-3.247-6.772.706.706,0,1,1,1.412,0c0,4.475,4.28,8.115,9.542,8.115s9.542-3.64,9.542-8.115a.706.706,0,1,1,1.412,0,8.89,8.89,0,0,1-3.247,6.772A11.777,11.777,0,0,1,225.986,427.544Z" transform="translate(0 -274.361)" fill="#069cb1"/>
    <rect id="Rectángulo_417" data-name="Rectángulo 417" width="1.412" height="5.91" transform="translate(225.36 152.477)" fill="#069cb1"/>
    <path id="Trazado_322" data-name="Trazado 322" d="M287.815,679.625H273.887a.706.706,0,1,1,0-1.412h13.929a.706.706,0,1,1,0,1.412Z" transform="translate(-54.865 -520.531)" fill="#069cb1"/>
  </g>
</svg>
