<?xml version="1.0" encoding="utf-8"?>
<!-- Generator: Adobe Illustrator 27.4.1, SVG Export Plug-In . SVG Version: 6.00 Build 0)  -->
<svg version="1.1" id="Layer_1" xmlns="http://www.w3.org/2000/svg" xmlns:xlink="http://www.w3.org/1999/xlink" x="0px" y="0px"
	 viewBox="0 0 34.4 24.2" style="enable-background:new 0 0 34.4 24.2;" xml:space="preserve">
<g>
	<path d="M17.2,17.3c-2.9,0-5.3-2.4-5.3-5.3c0-0.2,0-0.4,0.1-0.5l-6.1-4C4.7,8.1,3.6,9,2.5,9.9C1,11.2,1,11.7,1,12s0,0.7,1.5,2.1
		c1.1,1,2.3,1.8,3.5,2.5c5.3,3.5,11.7,4.4,17.5,2.5l-3.7-2.5C19,17,18.2,17.3,17.2,17.3z"/>
	<path d="M32.2,9.9c-1.1-1-2.2-1.8-3.5-2.5c-3.4-2.2-7.4-3.5-11.4-3.6c-2,0.1-4.3,0.5-6.2,1.1l3.7,2.4c0.7-0.4,1.6-0.6,2.5-0.6
		c2.9,0,5.3,2.4,5.3,5.3c0,0.2,0,0.3,0,0.4l6.2,4.1c1.2-0.8,2.4-1.6,3.5-2.5c1.5-1.3,1.5-1.7,1.5-2C33.7,11.7,33.7,11.2,32.2,9.9z"
		/>
	<path d="M6.2,2.9C5.6,2.5,4.7,2.6,4.3,3.2C3.9,3.7,4,4.5,4.6,4.9l23.2,15.7c0.6,0.4,1.5,0.3,1.9-0.3l0,0c0.4-0.6,0.3-1.3-0.3-1.8
		L6.2,2.9z"/>
</g>
</svg>
