<?xml version="1.0" encoding="utf-8"?>
<!-- Generator: Adobe Illustrator 27.4.1, SVG Export Plug-In . SVG Version: 6.00 Build 0)  -->
<svg version="1.1" id="Layer_1" xmlns="http://www.w3.org/2000/svg" xmlns:xlink="http://www.w3.org/1999/xlink" x="0px" y="0px"
	 viewBox="0 0 32 32" style="enable-background:new 0 0 32 32;" xml:space="preserve">
<path d="M26.6,29.4h-1c-0.4-5.5-2.9-10.1-6.5-11.9v-3.1c3.6-1.7,6.2-6.4,6.5-11.9h1c0.7,0,1.3-0.6,1.3-1.3S27.3,0,26.6,0H5.4
	C4.7,0,4.1,0.6,4.1,1.3s0.6,1.3,1.3,1.3h0.8c0.3,5.5,2.9,10.1,6.5,11.9v3.1c-3.6,1.7-6.2,6.4-6.5,11.9H5.4c-0.7,0-1.3,0.6-1.3,1.3
	S4.7,32,5.4,32h21.1c0.7,0,1.3-0.6,1.3-1.3S27.3,29.4,26.6,29.4L26.6,29.4z M14.4,19.5c0.5-0.2,0.8-0.6,0.8-1.1v-4.7
	c0-0.5-0.3-1-0.8-1.1C11.3,11.4,9,7.4,8.7,2.6h14.5c-0.4,4.8-2.6,8.9-5.7,9.9c-0.5,0.2-0.8,0.6-0.8,1.1v4.7c0,0.5,0.3,1,0.8,1.1
	c3.1,1.1,5.4,5.1,5.7,9.9H8.7C9,24.6,11.3,20.5,14.4,19.5z"/>
</svg>
