<?xml version="1.0" encoding="utf-8"?>
<!-- Generator: Adobe Illustrator 27.4.1, SVG Export Plug-In . SVG Version: 6.00 Build 0)  -->
<svg version="1.1" id="Layer_1" xmlns="http://www.w3.org/2000/svg" xmlns:xlink="http://www.w3.org/1999/xlink" x="0px" y="0px"
	 viewBox="0 0 32 32" style="enable-background:new 0 0 32 32;" xml:space="preserve">
<path d="M22.7,19.3l-6.4-2.5V7.4c0-0.7-0.6-1.2-1.2-1.2s-1.2,0.6-1.2,1.2v10.3c0,0.5,0.4,1,0.8,1.1c0.1,0,0.1,0.1,0.1,0.1l7,2.7
	c0.1,0,0.3,0.1,0.4,0.1c0.5,0,1-0.3,1.1-0.8C23.6,20.2,23.3,19.5,22.7,19.3L22.7,19.3z"/>
<path d="M16,0C7.2,0,0,7.2,0,16s7.2,16,16,16c8.8,0,16-7.2,16-16C32,7.2,24.8,0,16,0z M16,29.6C8.5,29.6,2.4,23.5,2.4,16
	S8.5,2.4,16,2.4l0,0c7.5,0,13.5,6.1,13.6,13.6C29.6,23.5,23.5,29.6,16,29.6z"/>
</svg>
