<svg xmlns="http://www.w3.org/2000/svg" width="25.514" height="19.783" viewBox="0 0 25.514 19.783">
  <g id="Grupo_1318" data-name="Grupo 1318" transform="translate(710.833 -242.553)">
    <path id="Trazado_495" data-name="Trazado 495" d="M-587.835,295.921a.94.94,0,0,0-.744-.361h-19.2a.918.918,0,0,0-.232.029.936.936,0,0,0-.512.332.94.94,0,0,0-.175.808l1.825,7.473a.944.944,0,0,0,.919.721H-590.4a.943.943,0,0,0,.918-.721l1.826-7.473A.939.939,0,0,0-587.835,295.921Zm-2.677,7.918h-15.331l-1.758-7.2h18.847Z" transform="translate(-97.686 -50.71)" fill="#fff"/>
    <path id="Trazado_496" data-name="Trazado 496" d="M-564,320.56l-1.758,7.2h-15.331l-1.758-7.2Z" transform="translate(-122.438 -74.627)" fill="#fff"/>
    <path id="Trazado_497" data-name="Trazado 497" d="M-552.673,586.17a2.45,2.45,0,0,0-2.447,2.447,2.45,2.45,0,0,0,2.447,2.447,2.45,2.45,0,0,0,2.447-2.447A2.45,2.45,0,0,0-552.673,586.17Zm0,3.811a1.365,1.365,0,0,1-1.364-1.364,1.365,1.365,0,0,1,1.364-1.364,1.365,1.365,0,0,1,1.364,1.364A1.365,1.365,0,0,1-552.673,589.981Z" transform="translate(-148.966 -328.728)" fill="#fff"/>
    <path id="Trazado_498" data-name="Trazado 498" d="M-527.393,612.534a1.365,1.365,0,0,1-1.364,1.364,1.365,1.365,0,0,1-1.364-1.364,1.365,1.365,0,0,1,1.364-1.364A1.365,1.365,0,0,1-527.393,612.534Z" transform="translate(-172.883 -352.645)" fill="#fff"/>
    <path id="Trazado_499" data-name="Trazado 499" d="M-286.123,586.17a2.45,2.45,0,0,0-2.447,2.447,2.45,2.45,0,0,0,2.447,2.447,2.45,2.45,0,0,0,2.447-2.447A2.45,2.45,0,0,0-286.123,586.17Zm0,3.811a1.365,1.365,0,0,1-1.364-1.364,1.365,1.365,0,0,1,1.364-1.364,1.365,1.365,0,0,1,1.364,1.364A1.365,1.365,0,0,1-286.123,589.981Z" transform="translate(-403.966 -328.728)" fill="#fff"/>
    <path id="Trazado_500" data-name="Trazado 500" d="M-260.843,612.534a1.365,1.365,0,0,1-1.364,1.364,1.365,1.365,0,0,1-1.364-1.364,1.365,1.365,0,0,1,1.364-1.364A1.365,1.365,0,0,1-260.843,612.534Z" transform="translate(-427.883 -352.645)" fill="#fff"/>
    <path id="Trazado_501" data-name="Trazado 501" d="M-710.292,243.89a.542.542,0,0,1-.542-.539.542.542,0,0,1,.539-.544l3.543-.017h0a.542.542,0,0,1,.542.539.542.542,0,0,1-.539.544l-3.543.017Z" transform="translate(0 -0.226)" fill="#fff"/>
    <path id="Trazado_502" data-name="Trazado 502" d="M-534.541,548.1h-15.428a.542.542,0,0,1-.542-.542.542.542,0,0,1,.542-.542h15.428a.542.542,0,0,1,.542.542A.542.542,0,0,1-534.541,548.1Z" transform="translate(-153.375 -291.275)" fill="#fff"/>
    <path id="Trazado_503" data-name="Trazado 503" d="M-624.248,256.829a.542.542,0,0,1-.525-.408l-3.364-13.193a.542.542,0,0,1,.391-.659.542.542,0,0,1,.659.391l3.364,13.193a.542.542,0,0,1-.391.659A.543.543,0,0,1-624.248,256.829Z" transform="translate(-79.097 0)" fill="#fff"/>
  </g>
</svg>
