<?xml version="1.0" encoding="utf-8"?>
<!-- Generator: Adobe Illustrator 27.4.1, SVG Export Plug-In . SVG Version: 6.00 Build 0)  -->
<svg version="1.1" id="Layer_1" xmlns="http://www.w3.org/2000/svg" xmlns:xlink="http://www.w3.org/1999/xlink" x="0px" y="0px"
	 viewBox="0 0 12.3 13.1" style="enable-background:new 0 0 12.3 13.1;" xml:space="preserve">
<path d="M7.6,6.6L12,1.9c0.4-0.4,0.4-1.1-0.1-1.5C11.5,0,10.8,0,10.4,0.5L6.2,5L1.9,0.4C1.7,0.2,1.5,0.1,1.2,0.1S0.6,0.2,0.4,0.4
	c-0.4,0.4-0.5,1,0,1.5l4.3,4.7l-4.3,4.7c-0.2,0.2-0.3,0.5-0.3,0.7c0,0.3,0.1,0.6,0.3,0.8s0.5,0.3,0.8,0.3l0,0c0.3,0,0.6-0.1,0.8-0.3
	l4.2-4.6l4.2,4.6c0.2,0.2,0.5,0.4,0.8,0.4s0.5-0.1,0.7-0.3c0.4-0.4,0.5-1.1,0.1-1.5L7.6,6.6z M1.6,12.4L1.6,12.4L1.6,12.4L1.6,12.4z
	 M11.6,12.4L11.6,12.4L11.6,12.4L11.6,12.4z"/>
</svg>
