<?xml version="1.0" encoding="utf-8"?>
<!-- Generator: Adobe Illustrator 25.4.0, SVG Export Plug-In . SVG Version: 6.00 Build 0)  -->
<svg version="1.1" id="Capa_1" xmlns="http://www.w3.org/2000/svg" xmlns:xlink="http://www.w3.org/1999/xlink" x="0px" y="0px"
	 viewBox="0 0 373 364" style="enable-background:new 0 0 373 364;" xml:space="preserve">
<style type="text/css">
	.st0{fill:#090807;}
	.st1{fill:#BE1622;}
	.st2{fill:#4EB106;}
	.st3{fill:#069CB1;}
</style>
<path class="st0" d="M137.4,115c0.5,3.1,1.6,6.1,2.3,9.2c0.6,2.5,1.3,5,2,7.5c-0.6,0.2-1.3,0.2-2,0.1c-12.3,0-24.6,0-36.9,0
	c-2.2,0-1.9-0.3-1.9,2c0,19.2,0,38.3,0,57.5c0,2.1,0,2.1,2,2.1H156c0.4,0,0.7,0,1.1,0c0.9-0.1,1.3,0.3,1.5,1.2
	c1.7,6.5,3.4,12.9,5.2,19.3c0.4,1.5,0.4,1.5,2,1.5c19.3,0,38.7,0,58,0h1.6c-2-7.4-3.9-14.6-5.8-21.7c0.4-0.4,0.7-0.3,1.1-0.3
	c5,0,10.1,0,15.1,0c1.5,0,1.5-0.1,1.5,1.4c0,13.8,0,27.5,0,41.3c0,1.2,0,1.2-1.2,1.3c-0.4,0-0.7,0-1.1,0h-167c-2.2,0-2.2,0-2.2-2.3
	c0-49.8,0-99.5,0-149.3c0-0.7,0-1.4,0-2.1c0.5-0.4,1.1-0.2,1.7-0.2c25.6,0,51.2,0,76.8,0c2,0,2.4,0.2,2.9,2.3
	c2.2,8.5,4.6,17,6.8,25.5c0.1,0.4,0.2,0.8,0.3,1.2c0.3,1.7,0,2-1.6,2c-4.6,0-9.1,0-13.7,0C138.4,114.4,137.5,113.9,137.4,115z"/>
<path class="st0" d="M204.2,136.2h4.1c4.7,0,9.5,0,14.2,0c1.4,0,1.4,0,1.4-1.6c0-11.8,0-23.6,0-35.3c0-4.7,0-9.5,0-14.2
	c0-1.5,0-1.5,1.5-1.5c9.9,0,19.8,0,29.7,0h32.3c0.2,0,0.5,0,0.7,0c2,0,1.7,0,1.7,1.7c0,22.1,0,44.3,0,66.5c0,27.9,0,55.8,0,83.7
	c0,2.2,0.3,2-1.9,2c-14.8,0-29.7,0-44.5,0c-0.2,0-0.4,0-0.5,0c-1.7,0-1.5,0-1.5-1.6c0-2.2,0-4.3,0-6.5v-38.3c0-0.4,0-0.8,0-1.2
	c0-0.5-0.2-0.7-0.7-0.7c-0.4,0-0.8,0-1.2,0c-6.6,0-13.2,0-19.9,0c-1.4,0-1.4,0-1.8-1.3c-4.5-16.8-9-33.7-13.5-50.5
	C204.4,136.9,204.3,136.7,204.2,136.2z"/>
<path class="st0" d="M176.1,241.9c0.6-0.2,1.2-0.3,1.7-0.2c19.2,0,38.3,0,57.5,0c0.2,0,0.5,0,0.7,0c0.9-0.1,1.2,0.3,1.4,1.1
	c1,3.7,2,7.5,3,11.2c8.1,30.2,16.2,60.4,24.3,90.7c1.3,5,2.7,9.9,4,14.9c0.1,0.2,0.1,0.4,0.1,0.8h-59.3c-0.2,0-0.4,0-0.5,0
	c-1,0.2-1.4-0.3-1.7-1.2c-0.9-3.5-1.8-6.9-2.8-10.3c-8-29.9-16-59.9-24-89.8c-1.4-5.3-2.9-10.6-4.3-15.9
	C176.1,242.7,176.1,242.3,176.1,241.9z"/>
<path class="st0" d="M177.9,118.4c5.1,0,10.2,0,15.3,0c1.7,0,1.7,0,2.2,1.7c4.1,15.4,8.2,30.8,12.4,46.2
	c3.9,14.4,7.7,28.8,11.6,43.2c0.1,0.4,0.2,0.8,0.2,1.2c-0.5,0.2-1.1,0.2-1.6,0.1c-16.3,0-32.6,0-48.9,0h-0.2c-1.5,0-1.5,0-1.9-1.4
	c-1.1-4.1-2.2-8.1-3.3-12.2c-6.1-22.6-12.1-45.2-18.2-67.7c-1-3.7-1.9-7.3-2.9-11.1h12.6c0.9,0.6,0.9,1.6,1.2,2.5
	c3.4,12.6,6.7,25.2,10.2,37.7c1,3.7,0.6,3.6,4.6,3.6c5,0,9.9,0,14.9,0c2.8,0,2.9-0.1,2.1-2.7c-0.6-2-1.1-4.1-1.7-6.1
	c-2.4-9.4-4.9-18.8-7.5-28.1c-0.5-1.7-0.9-3.5-1.4-5.3C177.6,119.5,177.4,118.9,177.9,118.4z"/>
<path class="st0" d="M369,93.6v132.2c-0.4,0.3-0.6-0.1-0.8-0.3c-11.1-9.2-22.2-18.3-33.4-27.5c-0.7-0.6-1-1.4-0.9-2.3
	c0-16.1,0-32.1,0-48.2c0-8,0-15.9,0-23.9c-0.1-0.8,0.3-1.6,0.9-2.1c11.1-9.1,22.3-18.3,33.4-27.5C368.4,94,368.6,93.9,369,93.6z"/>
<path class="st0" d="M157,188.7c-0.6,0.3-1.2,0.4-1.8,0.2c-16,0-32,0-48,0c-0.3,0-0.6,0-0.9,0c-0.7,0.1-1-0.2-0.9-0.9
	c0-0.4,0-0.7,0-1.1c0-16.3,0-32.6,0-48.9c0-1.9,0-1.9,2-1.9c11.3,0,22.6,0,33.9,0c1.7,0,1.7,0,2.2,1.7c4.4,16.4,8.8,32.9,13.2,49.3
	C156.7,187.7,156.9,188.2,157,188.7z"/>
<path class="st0" d="M159.3,117.2c-0.1-1-0.3-2-0.8-3c-0.5-0.6-0.9-1.4-1-2.2c-2.3-8.7-4.6-17.3-6.9-25.9c-0.3-0.9-0.4-1.9-0.4-2.9
	c-0.4-2.6-1.3-5.1-1.9-7.6c-0.1-0.6-0.5-0.8-1.1-0.8c-1.8,0-3.6,0-5.4,0c-7.3,0-14.5,0-21.8,0c-1.4,0-1.5,0-1.5-1.4c0-5,0-10,0-14.9
	c-0.1-0.4,0-0.8,0.2-1.1c1.8,0.1,3.6,0.3,5.4,0.4c4.8,0.4,9.7,0.9,14.5,1.3c6.1,0.5,12.1,1.1,18.2,1.6c4.7,0.4,9.4,0.8,14.2,1.2
	c1.3,0.1,2.6,0.3,3.8,0.3c0.7,0,1,0.2,1,1c0,3.5,0,7,0,10.5c0,1-0.6,1-1.2,1c-3.6,0-7.3,0-10.9,0c-0.6-0.1-1.3,0-1.8,0.2
	c0.8,2.9,1.4,5.8,2.4,8.7c0.9,1.1,1,2.5,1.4,3.7c2.2,8,4.3,16,6.5,24c0.3,1.2,0.5,2.4,0.5,3.6c0.1,1,0.3,1.9,0.7,2.8
	c2,4.4,2.8,9.3,4.1,13.9c2,7.1,3.8,14.3,5.8,21.5c0.3,1.1,0.7,2.2,0.9,3.4c0.3,1.5-0.1,2.1-1.7,2.2c-3.5,0.1-7.1,0.1-10.6,0
	c-1.1,0-2.1-0.7-2.3-1.8c-0.3-0.9-0.5-1.8-0.7-2.7c-2.7-10.8-5.7-21.5-8.6-32.2C159.7,120.4,159.4,118.8,159.3,117.2z"/>
<path class="st0" d="M219.7,83.7c0,4.4,0,8.8,0,13.2c0,10.8,0,21.7,0,32.5v0.9c0,1.6,0.2,1.5-1.5,1.5h-9.5c-1.5,0-3.1,0-4.6,0
	c-0.9,0-1.2-0.3-1.4-1.1c-1.3-5-2.7-10.1-4.1-15.1c-0.4-1.4-0.4-1.4-1.9-1.4c-6.1,0-12.2,0-18.3,0c-0.6,0-1.3,0-1.9-0.1
	c-0.7-0.4-0.8-1.2-1-2c-2.4-8.8-4.7-17.6-7.1-26.5c-0.6-2.1-0.4-2.3,1.8-2.3c15.9,0,31.8,0,47.8,0C218.5,83.4,219.2,83.2,219.7,83.7
	z"/>
<path class="st0" d="M9.8,105.4h49.5c0.2,0,0.5,0,0.7,0c1.3,0,1.3-0.1,1.3,1.4c0,13.8,0,27.5,0,41.3c0,1.3,0,1.3-1.4,1.3
	c-7.7,0-15.3,0-23,0c-0.8,0.1-1.5-0.4-1.8-1.1c-8-13.4-16.1-26.8-24.1-40.2C10.6,107.3,10.2,106.4,9.8,105.4z"/>
<path class="st0" d="M294.3,159.7v-34.8c0-0.3,0-0.6,0-0.9c0-1.5,0-1.5,1.5-1.5c3.5,0,7,0,10.5,0c0.9,0,1.3,0.3,1.2,1.2
	c0,0.3,0,0.6,0,0.9c0,23.6,0,47.1,0,70.7c0,2.2,0.3,1.9-2,1.9c-3.2,0-6.4,0-9.7,0c-1.8,0-1.6,0.1-1.6-1.6
	C294.3,183.6,294.3,171.7,294.3,159.7z"/>
<path class="st0" d="M325.1,160.1v35c0,0.4,0,0.8,0,1.2c0.1,0.7-0.2,0.9-0.9,0.9c-2.3,0-4.6,0-6.9,0c-1.5,0-3.1,0-4.6,0
	c-0.7,0-1-0.2-0.9-0.9c0-0.4,0-0.7,0-1.1v-70.7c0-0.1,0-0.2,0-0.4c0-1.7-0.3-1.7,1.7-1.7c3.3,0,6.7,0,10,0c1.5,0,1.5,0,1.5,1.5
	c0,9,0,18,0,27.1L325.1,160.1z"/>
<path class="st0" d="M241.9,241.9c0.5-0.2,1-0.3,1.6-0.2c7.8,0,15.6,0,23.4,0c0.3,0,0.6,0,0.9,0c0.6,0,0.9,0.2,0.8,0.8
	c0,0.3,0,0.7,0,1.1c0,9,0,18,0,27.1c0,0.4,0,0.7,0,1.1c0,0.5-0.2,0.7-0.7,0.7c-0.2,0-0.4,0-0.5,0c-5.4,0-10.8,0-16.2,0
	c-0.7,0.1-1.3-0.3-1.4-1c0,0,0-0.1,0-0.1c-2.6-9.6-5.1-19.2-7.7-28.8C241.9,242.4,241.9,242.1,241.9,241.9z"/>
<path class="st1" d="M89.9,109.9c-3.2,0-6.4,0-9.7,0c-1.3,0-1.3,0-1.3-1.3c0-2.1,0-4.2,0-6.3c0-0.9,0.3-1.2,1.2-1.2c4,0,8,0,11.9,0
	c2.5,0,5,0,7.6,0c0.9,0,1.2,0.3,1.2,1.2c-0.1,2.1,0,4.2,0,6.3c0,1.2,0,1.3-1.3,1.3C96.4,109.9,93.2,109.9,89.9,109.9z"/>
<path class="st2" d="M83.4,118.7c1.1,0,2.2,0,3.3,0c0.7,0,1.1,0.3,1.1,1c0,2.2,0,4.5,0,6.7c0,0.7-0.3,0.9-1,0.9c-2.3,0-4.6,0-6.9,0
	c-0.6,0-1-0.2-1-0.9c0-2.3,0-4.6,0-6.9c0-0.6,0.3-0.8,0.9-0.8C81,118.7,82.2,118.7,83.4,118.7L83.4,118.7z"/>
<path class="st3" d="M83.4,144.9c-2.4,0-4.4-1.9-4.4-4.3c0-2.4,1.9-4.4,4.3-4.4s4.4,1.9,4.4,4.3C87.7,142.9,85.8,144.9,83.4,144.9
	L83.4,144.9z"/>
</svg>
