<svg id="Capa_1" data-name="Capa 1" xmlns="http://www.w3.org/2000/svg" viewBox="0 0 480.029 479.953"><path d="M-275.612,520.847v2.79c0,10.8.029,21.6-.031,32.4a16.653,16.653,0,0,1-.711,4.946,11.844,11.844,0,0,1-13.209,7.972,11.806,11.806,0,0,1-10-11.5c-.081-11.279-.027-22.559-.03-33.839v-2.762c-48.147-3.662-89.625-21.942-123.688-55.977s-52.39-75.5-56.083-123.691c-.912-.041-1.76-.112-2.609-.112-11.2-.008-22.4.02-33.6-.019a11.825,11.825,0,0,1-11.392-7.994,12.028,12.028,0,0,1,10.8-15.94c.8-.056,1.6-.029,2.4-.029q15.84,0,31.68,0h2.713c3.693-48.175,22-89.636,56.056-123.688s75.536-52.331,123.724-56.02v-2.725c0-11.12.073-22.24-.031-33.359a12.038,12.038,0,0,1,9.088-11.8,12,12,0,0,1,14.9,11.455c.058,1.358.015,2.72.015,4.08v32.345c48.077,3.682,89.556,21.949,123.612,55.981s52.38,75.505,56.092,123.726h2.667c10.8,0,21.6-.02,32.4.022a17.869,17.869,0,0,1,4.506.514A11.99,11.99,0,0,1-47.682,330.2c-.723,6.162-5.462,10.771-11.493,10.826-11.2.1-22.4.036-33.6.04h-3.119c-3.665,48.047-21.9,89.537-55.912,123.608C-185.84,498.768-227.281,517.107-275.612,520.847Zm155.469-203.756c-5.9-88.269-79.982-152.1-155.469-155.258v23.961c0,3.76.079,7.522-.02,11.279a12.012,12.012,0,0,1-15.863,11.395,11.856,11.856,0,0,1-8.082-11.569c-.032-10.88-.011-21.76-.011-32.64,0-.852,0-1.7,0-2.744-28.827,2.173-55.14,10.832-79.071,26.39q-44.988,29.25-65.163,79.1c-7.492,18.407-11.83,43.21-10.918,50.091h2.594q13.56,0,27.12,0c1.92,0,3.844-.072,5.759.032a12.069,12.069,0,0,1,11.6,11.059,11.975,11.975,0,0,1-9.043,12.522,15.982,15.982,0,0,1-3.8.349q-15.96.04-31.92.016h-2.8a164.907,164.907,0,0,0,24.214,75.636q28.234,45.8,77.729,67.139c19.814,8.6,45.172,13.153,53.7,12.393v-2.58q0-22.2,0-44.4c0-4.24-.08-8.482.035-12.719a11.882,11.882,0,0,1,10.949-11.39,12,12,0,0,1,12.489,8.782,18.628,18.628,0,0,1,.482,4.511q.048,27.6.021,55.2V496.7a164.79,164.79,0,0,0,74.544-23.593,166.582,166.582,0,0,0,67.559-77.047,162.38,162.38,0,0,0,13.428-54.994h-2.95c-10.96,0-21.92.048-32.879-.027a11.817,11.817,0,0,1-11.555-9.935,11.877,11.877,0,0,1,8.126-13.335,17.315,17.315,0,0,1,4.959-.652c10.479-.057,20.96-.029,31.44-.029Z" transform="translate(527.641 -89.14)"/><path d="M-234.37,356.511c.786,2.918,1.6,5.911,2.4,8.908,4.906,18.348,9.867,36.683,14.665,55.06a14.428,14.428,0,0,1-.923,10.736c-3.441,6.412-12.048,8.18-18.018,3.839-6.784-4.934-13.639-9.77-20.463-14.65q-14.718-10.527-29.436-21.055c-.71-.508-1.429-1-2.267-1.587-2.859,2.05-5.718,4.081-8.557,6.141-14.1,10.226-28.234,20.4-42.263,30.719-6.66,4.9-17.578,2.646-19.533-7.182a16.1,16.1,0,0,1,.308-7.357q3.4-12.6,6.779-25.2c3.454-12.867,6.9-25.734,10.4-38.766-2.79-2.253-5.56-4.52-8.361-6.747q-20.16-16.023-40.32-32.047a18.153,18.153,0,0,1-3.573-3.51c-4.315-6.09-2.248-16.243,6.709-18.642a26.907,26.907,0,0,1,6.163-.616c4.634-.129,9.273-.1,13.908-.193,6.066-.125,12.13-.309,18.195-.474,5.745-.155,11.49-.3,17.234-.485,3.5-.115,7.006-.305,10.76-.473.457-1.305.978-2.708,1.442-4.129q6.571-20.152,13.125-40.31c1.876-5.77,3.725-11.549,5.611-17.317,1.377-4.214,3.943-7.463,8.406-8.388,5.153-1.068,10.3-1.016,14.1,3.5a14.709,14.709,0,0,1,2.671,4.753c5.1,15.469,10.084,30.974,15.113,46.465,1.5,4.632,3.089,9.239,4.534,13.889a2.128,2.128,0,0,0,2.4,1.731c7.746.1,15.49.278,23.234.456,6.066.14,12.13.314,18.2.479,5.745.155,11.494.224,17.233.513,3.388.17,6.822.158,9.853,2.3,5.93,4.192,6.963,13.177,1.759,18.263a108.865,108.865,0,0,1-8.463,7.043q-21.18,16.859-42.391,33.679A7.467,7.467,0,0,0-234.37,356.511Z" transform="translate(527.641 -89.14)"/><path d="M-374.548,231.992c4.78-.062,7.546,1.079,9.793,3.313,8.679,8.626,17.369,17.241,25.946,25.968a11.6,11.6,0,0,1-.295,16.777,11.606,11.606,0,0,1-16.609.154q-13.084-12.87-25.954-25.959A11,11,0,0,1-384.05,239.4C-382,234.664-378.2,232.165-374.548,231.992Z" transform="translate(527.641 -89.14)"/><path d="M-230.181,281.543c-4.023-.182-7.736-2.719-9.891-7.412a11.4,11.4,0,0,1,2.558-13.039c6.746-6.826,13.559-13.586,20.345-20.372,1.753-1.753,3.479-3.535,5.267-5.251a11.721,11.721,0,0,1,16.968.168,11.659,11.659,0,0,1-.037,16.787c-8.49,8.588-17.06,17.1-25.607,25.628C-222.891,280.361-225.682,281.571-230.181,281.543Z" transform="translate(527.641 -89.14)"/><path d="M-177.967,401.536c-5.015.031-7.856-1.374-10.282-3.813q-9.645-9.695-19.335-19.343c-1.98-1.979-3.986-3.932-5.93-5.945a11.714,11.714,0,0,1,.135-16.962,11.649,11.649,0,0,1,16.785,0q12.887,12.728,25.622,25.61a11.562,11.562,0,0,1,2.587,13.046C-170.317,398.626-174.684,401.535-177.967,401.536Z" transform="translate(527.641 -89.14)"/><path d="M-398.366,401.543c-4.045-.149-7.831-2.681-9.921-7.38a10.964,10.964,0,0,1,2.349-12.848c6.132-6.307,12.415-12.468,18.635-18.689q3.477-3.478,6.957-6.954c3.49-3.5,7.668-4.647,12.315-3.079a11.712,11.712,0,0,1,8.265,9.973,11.2,11.2,0,0,1-3.4,9.826c-2.693,2.736-5.423,5.435-8.138,8.149q-8.654,8.652-17.3,17.306C-390.979,400.224-393.78,401.552-398.366,401.543Z" transform="translate(527.641 -89.14)"/></svg>