<?xml version="1.0" encoding="utf-8"?>
<!-- Generator: Adobe Illustrator 25.4.0, SVG Export Plug-In . SVG Version: 6.00 Build 0)  -->
<svg version="1.1" id="Capa_1" xmlns="http://www.w3.org/2000/svg" xmlns:xlink="http://www.w3.org/1999/xlink" x="0px" y="0px"
	 viewBox="0 0 776.4 120" style="enable-background:new 0 0 776.4 120;" xml:space="preserve">
<style type="text/css">
	.st0{fill:#FDFDFD;}
	.st1{fill:#FEF4DD;}
	.st2{fill:#FFF0D4;}
	.st3{fill:#EA9D21;}
	.st4{fill:#FFF5E2;}
	.st5{fill:#FFF0D3;}
	.st6{fill:#FFE4AF;}
	.st7{fill:#FFD278;}
	.st8{fill:#090807;}
	.st9{fill:#BE1622;}
	.st10{fill:#4EB106;}
	.st11{fill:#069CB1;}
</style>
<path d="M610.7,85c0-0.5,0.1-0.9,0.1-1.4c0-18.4,0-36.7,0-55.1c0-0.4-0.2-0.9,0.1-1.1c0.5-0.2,0.7,0.4,1,0.6
	c3.8,3.8,7.6,7.7,11.5,11.4c6.2,5.9,12.1,12.1,18.3,18c4.7,4.5,9.2,9.1,13.8,13.6c0.2,0.2,0.4,0.7,0.8,0.5c0.3-0.2,0.1-0.7,0.1-1
	c0-13.7,0-27.4,0-41.1c0-1,0.2-1.3,1.2-1.2c2.6,0.1,2.6,0,2.6,2.6v53.9c0,0.2,0,0.5,0,0.7c0,0.2,0.1,0.5-0.2,0.6
	c-0.3,0.1-0.4-0.1-0.6-0.3c-1.1-1-2.2-2-3.2-3c-4.4-4.4-8.8-8.8-13.3-13.2c-6.1-6-12.3-12-18.3-18.1c-3.2-3.2-6.7-6.2-9.7-9.5
	c-0.7,0.3-0.3,0.8-0.3,1.2c0,8.5,0,16.9,0,25.4v14c0,2.7,0,2.7-2.8,2.7C611.5,85.3,611,85.5,610.7,85z"/>
<path d="M259.8,27.8c0.5,0,0.7,0.4,1,0.7c3.5,3.5,7,7,10.6,10.5c6.6,6.3,13,12.9,19.5,19.3c4.5,4.4,8.9,8.8,13.4,13.2
	c0.3,0.3,0.5,0.8,0.9,0.7c0.4-0.2,0.2-0.7,0.2-1.1c0-13.6,0-27.3,0-40.9c0-1.1,0.2-1.5,1.4-1.4c2.4,0.1,2.4,0,2.4,2.4
	c0,18.1,0,36.1,0,54.2c0,0.4,0.3,1-0.2,1.2c-0.4,0.2-0.6-0.4-0.9-0.6c-5.6-5-10.8-10.5-16.2-15.8c-6.1-6-12.3-12-18.3-18.1
	c-3.2-3.2-6.7-6.2-9.7-9.5c-0.7,0.3-0.3,0.8-0.3,1.2c0,9.1,0,18.2,0,27.3c0,4.5,0,9,0,13.5c0,0.9-0.2,1.2-1.2,1.2
	c-2.7-0.1-2.7,0-2.7-2.7c0-17.9,0-35.9,0-53.8C259.6,28.8,259.7,28.3,259.8,27.8z"/>
<path d="M210.1,28.8h36.5c0.1,1.3,0.2,2.7,0.1,4.1c0,0.5-0.2,0.6-0.6,0.6c-0.3,0-0.6,0-0.8,0h-26.5c-1.3,0-1.3,0-1.3,1.3
	c0,5.9,0,11.8,0,17.7c-0.1,0.4,0,0.8,0.1,1.2c0.9,0,1.8,0.1,2.7,0.1c7.4,0,14.8,0,22.2,0c0.2,1.1,0.2,2.3,0.1,3.4
	c0,0.3-0.2,0.5-0.5,0.5c-0.3,0-0.6,0-1,0c-7.5,0-15,0-22.5,0c-0.9,0-1.2,0.2-1.2,1.2c0,7,0,14.1,0,21.1c-0.1,0.4,0,0.7,0.1,1
	c0.4,0,0.8,0.1,1.2,0.1c9.3,0,18.6,0,27.9,0c0.1,1.3,0.2,2.7,0.1,4.1c0,0.5-0.2,0.7-0.6,0.6c-0.2,0-0.5,0-0.7,0h-34
	c-1.3,0-1.3,0-1.3-1.3c0-18.2,0-36.3,0-54.5C210,29.6,210,29.1,210.1,28.8z"/>
<path d="M680.7,28.3h36.5c0.1,1.3,0.2,2.7,0.1,4.1c0,0.5-0.2,0.6-0.6,0.6c-0.3,0-0.6,0-0.8,0h-26.5c-1.3,0-1.3,0-1.3,1.3
	c0,5.9,0,11.8,0,17.7c-0.1,0.4,0,0.8,0.1,1.2c0.8,0,1.7,0.1,2.5,0.1c7.5,0,15,0,22.4,0c0.2,1.1,0.2,2.3,0.1,3.4
	c0,0.3-0.2,0.5-0.5,0.5c-0.3,0-0.6,0-1,0c-7.5,0-15,0-22.5,0c-0.9,0-1.2,0.2-1.2,1.2c0,7,0,14.1,0,21.1c-0.1,0.4,0,0.7,0.1,1.1
	c0.4,0,0.8,0.1,1.2,0.1c9.3,0,18.6,0,27.9,0c0.1,1.3,0.2,2.7,0.1,4.1c0,0.5-0.2,0.7-0.6,0.6c-0.2,0-0.5,0-0.7,0h-34
	c-1.3,0-1.3,0-1.3-1.3c0-18.2,0-36.4,0-54.5C680.6,29.1,680.6,28.7,680.7,28.3z"/>
<path d="M442.8,86.6h-6.7c-0.5-0.2-1.1,0-1.6-0.2c-3.1-0.2-6.2-1-9.1-2.2c-2.6-1.1-5.1-2.6-7.4-4.4c-2.4-1.9-4.3-4.2-5.8-6.9
	c-1.6-2.7-2.7-5.6-3.3-8.6c-0.2-1.1-0.4-2.3-0.5-3.4c-0.2-0.4,0-0.9-0.2-1.3c0-0.6,0-1.2-0.1-1.9c-0.1-0.8-0.1-1.6,0-2.4
	c0.1-3,0.6-6,1.5-8.9c2.4-7.2,7.8-13,14.9-15.9c3.3-1.3,6.7-2.2,10.3-2.6c0.5-0.2,1,0,1.5-0.2h6.5c0.5,0.2,1,0,1.5,0.2
	c3,0.4,5.9,1.3,8.7,2.4c4.1,1.9,7.3,5.1,9.3,9.1c0.1,0.3,0.3,0.5,0.5,0.8c-0.1,0.4-0.5,0.2-0.7,0.2c-1.6,0-3.2,0-4.8,0
	c-0.2,0-0.6,0.2-0.7-0.2c-1.8-4.3-5.3-6.4-9.4-7.8c-4.7-1.6-9.8-1.7-14.5-0.3c-7.4,2-13.2,7.8-15.2,15.2c-3,10-1.6,19.4,5.3,27.5
	c3.6,4.2,8.7,6.9,14.2,7.6c1,0.2,2,0.2,3,0.2c1.3,0.2,2.5,0.2,3.8,0l1.3-0.1c0.4-0.2,0.9,0.1,1.2-0.2c3.7-0.4,7.2-1.7,10.3-3.7
	c1.6-0.9,3-2,4.3-3.3c0.3-0.3,0.6-0.5,1-0.1c0.7,0.7,1.4,1.3,2.2,1.9c-5.4,5.6-12.2,8-19.6,9C443.9,86.6,443.3,86.4,442.8,86.6z"/>
<path d="M343.1,85.6c0-6.8,0-13.7,0-20.5c0-10.1,0-20.1,0-30.2c0-0.4,0-0.9-0.1-1.3c-0.4-0.2-0.9-0.2-1.3-0.1c-6.4,0-12.8,0-19.2,0
	c-1,0-1.4-0.2-1.2-1.2c0-1.2,0-2.3,0.1-3.4c16.6,0,33.1,0,49.7,0c0.9,0,1.3,0.2,1.2,1.2c-0.1,1.1,0,2.2,0,3.4
	c-0.4,0.3-0.8,0.2-1.3,0.2c-6.3,0-12.6,0-18.9,0c-1.7,0-1.5-0.2-1.5,1.5c0,16.5,0,32.9,0,49.4c0,1.7,0.1,1.5-1.5,1.5
	c-1.7,0-3.4,0-5,0C343.8,85.7,343.4,85.9,343.1,85.6z"/>
<path d="M0.2,28.5c16.6,0,33.1,0,49.7,0c0.9,0,1.3,0.2,1.2,1.2c-0.1,1.1,0,2.2,0,3.4c-0.4,0.3-0.8,0.2-1.3,0.2c-6.4,0-12.8,0-19.2,0
	c-1.3,0-1.3,0-1.3,1.3c0,16.5,0,33,0,49.5c0.1,0.5,0,1-0.1,1.4c-2.1,0-4.2-0.1-6.2,0c-1,0-1.2-0.3-1.2-1.2c0-16.5,0-33.1,0-49.6
	c0-0.4,0-0.9-0.1-1.3c-0.4-0.2-0.9-0.2-1.3-0.1c-6.4,0-12.8,0-19.2,0c-1,0-1.4-0.2-1.2-1.2C0,30.8,0,29.7,0.2,28.5z"/>
<path d="M167.9,81c0.4,0,0.8,0.1,1.2,0.1c9.3,0,18.6,0,27.9,0c0.1,1.3,0.2,2.7,0.1,4c0,0.5-0.2,0.6-0.6,0.6c-3.3,0-6.7,0.1-10-0.1
	l-25.9,0c-0.1-0.4-0.2-0.8-0.1-1.2c0-18.2,0-36.3,0-54.5c-0.1-0.4,0-0.8,0.1-1.2h7.2c0.1,0.5,0.2,0.9,0.1,1.4c0,16.5,0,33,0,49.5
	C167.7,80.1,167.7,80.6,167.9,81z"/>
<path class="st0" d="M730.2,85c2.3,0.2,4.7,0.2,7,0.1c0.8,0,0.4-0.7,0.4-1c0-6.5,0-13,0-19.5c0-1.3,0-2.6,0-4c0-0.4,0-0.7,0.6-0.7
	c1.7,0.1,3.5-0.2,5.2,0.2c-1.5,0-3,0.1-4.4,0c-1,0-1.2,0.3-1.2,1.2c0,7.5,0,15,0,22.5c0,1.2-0.3,1.6-1.5,1.5c-1.7-0.1-3.5,0-5.3,0
	C730.8,85.4,730.4,85.5,730.2,85z"/>
<path class="st1" d="M532.7,73.9c0,0.4-0.3,0.7-0.7,1c-0.1-0.4,0.1-0.8,0.4-1L532.7,73.9z"/>
<path class="st0" d="M775.4,82.1c-0.5,0.2-1.1,0.2-1.6,0H775.4z"/>
<path d="M775.4,82.1c0.7-0.1,1,0.1,1,0.9c0,2.4-0.2,2.9-2.5,3c-2.9,0.2-5.8,0.4-8.5-1.1c-2-1.2-3.7-2.8-4.9-4.8
	c-2.9-4.2-5.7-8.5-8.6-12.8c-1-1.5-1.9-3-3-4.4c-1.1-1.3-2.6-2.1-4.2-2.5c-0.4-0.1-0.8-0.5-1.2-0.3c-1.7-0.2-3.4,0-5.1-0.1
	c-0.5,0-0.6,0.3-0.6,0.7c0,0.3,0,0.6,0,0.8v21.8c0,1.9,0,1.9-1.9,1.9c-1.6,0-3.1,0-4.7,0c-0.3,0-0.7,0.2-0.9-0.2
	c0-0.5,0.1-0.9,0.1-1.4c0-18,0-36,0-54c0-1.1,0.2-1.4,1.3-1.4c5.9,0.1,11.8,0,17.7,0c4.2-0.1,8.3,1,11.8,3.4
	c3.2,2.2,5.3,5.6,5.8,9.4c0.8,4.9-0.9,10-4.7,13.3c-2.5,2.3-5.7,3.6-9,3.8c-0.2,0-0.5,0-0.7,0.1c0,0.1,0,0.3,0,0.3
	c2.7,1.2,4,3.7,5.5,6c2.9,4.4,5.7,8.9,8.9,13.2c1.3,1.9,3.2,3.4,5.4,4.1c0.5,0.1,1,0.2,1.5,0.2C774.3,82.2,774.9,82.2,775.4,82.1z
	 M737.7,55.4c0,0.4-0.2,1,0.6,1c3.4-0.1,6.9,0.2,10.3-0.2c6.1-0.9,10.7-6.2,10.8-12.3c0-6.2-4.3-10.9-10.8-11.7
	c-3.4-0.4-6.9-0.1-10.3-0.2c-0.8,0-0.6,0.5-0.6,1c0,3.8,0,7.5,0,11.3C737.7,47.9,737.7,51.6,737.7,55.4z"/>
<path d="M559.1,60.9c0.1,7.8,0,15.6,0.1,23.4c0,0.7-0.2,0.9-0.9,0.9c-2.1-0.3-4.5,0.4-6.5-0.3c0.8-4-1.7-19.4,1.5-20.4
	C555.5,63.8,558.3,63.6,559.1,60.9z"/>
<path d="M596.8,82.1c0.7-0.1,1,0.1,1,0.9c0,2.4-0.2,2.9-2.5,3c-2.9,0.2-5.8,0.4-8.5-1.1c-2-1.2-3.7-2.8-4.9-4.8
	c-2.9-4.2-5.7-8.5-8.6-12.8c-1-1.5-1.9-3-3-4.4c-1.1-1.3-2.6-2.1-4.2-2.5c-0.4-0.1-0.8-0.5-1.2-0.3c-1.7-0.2-3.4,0-5.1-0.1
	c-0.5,0-0.6,0.3-0.6,0.7c0,0.3,0,0.6,0,0.8v21.8c0,1.9,0,1.9-1.9,1.9c-1.6,0-3.1,0-4.7,0c-0.3,0-0.7,0.2-0.9-0.2
	c0-0.5,0.1-0.9,0.1-1.4c0-18,0-36,0-54c0-1.1,0.2-1.4,1.3-1.4c5.9,0.1,11.8,0,17.7,0c4.2-0.1,8.3,1,11.8,3.4
	c3.2,2.2,5.3,5.6,5.8,9.4c0.8,4.9-0.9,10-4.7,13.3c-2.5,2.3-5.7,3.6-9,3.8c-0.2,0-0.5,0-0.7,0.1c0,0.1,0,0.3,0,0.3
	c2.7,1.2,4,3.7,5.5,6c2.9,4.4,5.7,8.9,8.9,13.2c1.3,1.9,3.2,3.4,5.4,4.1c0.5,0.1,1,0.2,1.5,0.2C595.7,82.3,596.2,82.3,596.8,82.1z
	 M559,55.4c0,0.4-0.2,1,0.6,1c3.4-0.1,6.9,0.2,10.3-0.2c6.1-0.9,10.7-6.2,10.8-12.3c0-6.2-4.3-10.9-10.8-11.7
	c-3.4-0.4-6.9-0.1-10.3-0.2c-0.8,0-0.6,0.5-0.6,1c0,3.8,0,7.5,0,11.3C559,47.9,559,51.7,559,55.4L559,55.4z"/>
<path class="st2" d="M603.2,160.6c-0.2,0.2-0.3,0.4-0.6,0.6c0,0-0.1,0-0.1,0c0.2-0.2,0.3-0.5,0.5-0.7L603.2,160.6z"/>
<path class="st3" d="M531.7,75c0.5-0.6,1-1.2,1.5-1.8c1.4-1.8,3-3.5,4.7-5c2.2-2,4.5-3.8,6.9-5.5c2.3-1.7,4.8-3.1,7.5-4.2
	c1.9-0.7,3.7-1.5,5.4-2.5c0.2-0.1,0.5-0.3,0.7-0.4c0.3-0.2,0.5-0.1,0.5,0.3c0.1,0.8,0.1,1.7-0.1,2.5c-0.2,0.8-0.5,1.6-0.8,2.4
	c-0.3,0.8-0.9,1.4-1.8,1.7c-1.2,0.4-2.5,0.8-3.7,1.2c-1.8,0.7-3.5,1.6-5.1,2.7c-1.1,0.8-2.3,1.6-3.3,2.5c-1.5,1.3-3,2.6-4.4,4
	c-0.9,0.9-1.8,1.9-2.7,2.9s-1.7,2-2.6,3c-2.1,2.1-4.4,3.9-6.8,5.5c-1.6,1-3.2,1.9-4.9,2.7c-1.6,0.8-3.3,1.5-5,2
	c-1.6,0.5-3.2,1-4.8,1.3c-1.6,0.4-3.1,0.7-4.7,0.8c-1.7,0.1-3.4,0.4-5.1,0.4c-1.1,0-2.2,0-3.4-0.1c-2.9-0.3-5.7-0.9-8.4-1.8
	c-2.1-0.7-4.1-1.7-5.9-2.8c-1.3-0.8-2.6-1.7-3.9-2.7c-0.8-0.6-1.5-1.3-2.2-2c-1.3-1.2-2.5-2.5-3.6-4c-2.2-2.9-3.9-6.1-5.1-9.6
	c-0.6-1.7-1.1-3.4-1.4-5.1c-0.2-1.4-0.4-2.8-0.5-4.2c-0.1-1-0.1-2.1-0.1-3.1c0.1-2.5,0.4-5,1-7.4c0.6-2.3,1.3-4.5,2.4-6.6
	c1.3-2.6,2.9-5.1,4.7-7.4c1.3-1.5,2.7-2.9,4.2-4.1c1.8-1.5,3.8-2.8,5.9-3.9c1.3-0.7,2.7-1.4,4.1-1.9c0.9-0.3,1.7-0.5,2.6-0.8
	c1.5-0.4,3-0.8,4.6-0.9c3.6-0.5,7.3-0.3,10.9,0.4c2.5,0.5,4.9,1.3,7.2,2.4c1.7,0.8,3.3,1.7,4.9,2.7c2.4,1.6,4.7,3.6,6.6,5.8
	c1.7,1.9,3.1,3.9,4.3,6.1c1.1,2,2,4.2,2.7,6.4c0.4,1.4,0.8,2.9,1.1,4.3c0.1,0.7,0.2,1.4,0.3,2.1c0.2,1.6,0.3,3.2,0.2,4.8
	c0,1.5-0.2,3.1-0.4,4.6c-0.5,2.7-1.2,5.4-2.2,7.9c-0.4,1-0.9,2-1.4,3c-0.2,0.4-0.4,0.8-0.7,1.2c0,0.3-0.2,0.4-0.4,0.6
	c0,0,0,0.1,0,0.1c0,0,0,0.1-0.1,0.1c0,0,0,0,0,0.1l0,0l0,0c0,0,0,0,0-0.1c0,0,0.1-0.1,0.1-0.1c0,0,0-0.1,0.1-0.1
	C531.4,75.3,531.5,75.1,531.7,75z M523.2,65c-1.8-1.6-4.2-2-6.5-1.2c-1.7,0.5-3.1,1.8-3.9,3.4c-0.6,1.2-0.9,2.6-0.7,3.9
	c0.2,2.2,1.6,4.2,3.5,5.2c2,1.2,4.5,1.2,6.5,0c1.5-0.8,2.6-2.2,3.1-3.8c0.3-1,0.4-2,0.3-3C525.4,67.7,524.6,66.1,523.2,65L523.2,65z
	 M526.6,44.7c-2.2-2.4-5.8-2.8-8.6-1c-2.4,1.6-3.5,4.4-2.9,7.2c0.3,1.2,0.9,2.4,1.7,3.3c0.6,0.7,1.4,1.2,2.3,1.6
	c1.1,0.6,2.4,0.7,3.6,0.5c1.3-0.2,2.5-0.8,3.5-1.7c1.6-1.4,2.4-3.4,2.3-5.6C528.4,47.4,527.7,45.9,526.6,44.7L526.6,44.7z
	 M511.8,34.4c-0.7-2.1-2.3-3.7-4.3-4.5c-0.7-0.3-1.5-0.4-2.2-0.3c-1.8,0-3.6,0.7-4.8,2.1c-1.7,1.7-2.3,4.2-1.7,6.5
	c0.4,1.7,1.5,3.1,2.9,4.1c2.1,1.4,4.8,1.5,7,0.2c1.4-0.8,2.5-2.1,3-3.6c0.4-1,0.5-2,0.4-3.1C512.1,35.3,512,34.9,511.8,34.4
	L511.8,34.4z M482.3,58.3c-3.6,0.6-6.1,3.9-5.6,7.5c0.3,3.7,3.6,6.5,7.3,6.1c0.1,0,0.2,0,0.3,0c3.7-0.5,6.3-3.8,5.9-7.5
	c-0.4-3.8-3.8-6.5-7.5-6.1C482.5,58.3,482.4,58.3,482.3,58.3L482.3,58.3z M505.2,74.1c-1.1-1.6-2.8-2.7-4.8-2.9
	c-1.5-0.2-2.9,0.1-4.2,0.9c-2.6,1.6-3.9,4.8-3.1,7.7c0.5,1.7,1.5,3.1,2.9,4c0.8,0.5,1.6,0.8,2.5,1c0.8,0.2,1.6,0.2,2.3,0
	c0.6-0.1,1.1-0.3,1.6-0.6c1.9-0.9,3.2-2.5,3.7-4.5c0.2-0.9,0.3-1.9,0.1-2.8C506.2,75.9,505.8,75,505.2,74.1L505.2,74.1z M480.4,40.9
	c-1,1.6-1.2,3.5-0.6,5.3c0.5,1.9,1.8,3.4,3.5,4.3c1.5,0.8,3.2,1,4.8,0.5c1.2-0.3,2.2-0.9,3.1-1.8c1.6-1.6,2.3-3.9,1.8-6
	c-0.3-1.6-1.1-3-2.4-4.1c-1.4-1.2-3.3-1.8-5.2-1.5C483.2,37.8,481.4,39,480.4,40.9L480.4,40.9z M502,52.2c-2.7,0.3-4.7,2.8-4.4,5.5
	c0,0,0,0,0,0.1c0.3,2.8,2.7,4.8,5.5,4.6c0.1,0,0.1,0,0.2,0c2.8-0.4,4.7-2.9,4.4-5.6c-0.2-2.8-2.7-4.8-5.4-4.5
	C502.1,52.2,502,52.2,502,52.2L502,52.2z M511.1,60.9c1.3-0.2,2.2-1.3,2.1-2.6c-0.2-1.2-1.4-2.1-2.6-2c-1.2,0.2-2,1.3-1.9,2.5
	C508.8,60,509.8,61,511.1,60.9L511.1,60.9z M506.5,63.1c-0.7-0.3-1.6-0.2-2.2,0.3c-0.7,0.6-1.1,1.5-0.8,2.4c0.2,0.9,1,1.5,1.9,1.7
	c0.6,0.1,1.3-0.1,1.8-0.6c0.6-0.5,0.9-1.3,0.8-2.1C507.8,64.1,507.2,63.4,506.5,63.1L506.5,63.1z M498.8,51.5c0.4,0.2,1,0.2,1.4,0
	c0.3-0.2,0.6-0.4,0.9-0.6c0.8-0.8,0.9-1.9,0.3-2.8c-0.6-0.8-1.6-1.2-2.6-1c-1,0.3-1.7,1.4-1.6,2.4C497.4,50.4,497.9,51.2,498.8,51.5
	L498.8,51.5z M508,52.9c1.3-0.1,2.2-1.3,2.1-2.6c0,0,0-0.1,0-0.1c-0.2-1.2-1.3-2.1-2.6-1.9c-1.2,0.2-2.1,1.3-1.9,2.5c0,0,0,0,0,0
	C505.7,52.1,506.8,53,508,52.9L508,52.9z M497.5,66.3c1.3-0.1,2.2-1.2,2.1-2.5c0,0,0-0.1,0-0.1c-0.2-1.2-1.3-2.1-2.6-2
	c-1.2,0.2-2.1,1.3-1.9,2.5C495.2,65.4,496.2,66.3,497.5,66.3L497.5,66.3z M492,56.2c0.1,1.2,1.2,2.2,2.4,2.1
	c1.3-0.1,2.2-1.3,2.1-2.6c-0.1-1.2-1.3-2.1-2.5-2c0,0,0,0,0,0C492.7,53.8,491.9,54.9,492,56.2C492,56.2,492,56.2,492,56.2L492,56.2z
	"/>
<path class="st4" d="M602.5,161.2l0.1,0c0,0.1-0.1,0.1-0.1,0.1L602.5,161.2L602.5,161.2z"/>
<path class="st5" d="M602.4,161.4c0,0,0-0.1,0.1-0.1c0,0,0,0,0,0l0,0C602.5,161.3,602.5,161.4,602.4,161.4
	C602.4,161.4,602.4,161.4,602.4,161.4L602.4,161.4z"/>
<path class="st6" d="M602.3,161.4C602.3,161.4,602.4,161.4,602.3,161.4L602.3,161.4C602.4,161.4,602.4,161.4,602.3,161.4
	C602.3,161.4,602.3,161.4,602.3,161.4L602.3,161.4z"/>
<path class="st7" d="M602.3,161.4L602.3,161.4C602.3,161.5,602.3,161.5,602.3,161.4C602.3,161.5,602.3,161.4,602.3,161.4
	L602.3,161.4z"/>
<path class="st8" d="M83.9,44.9c0.1,0.9,0.4,1.7,0.7,2.6c0.2,0.7,0.4,1.4,0.6,2.1c-0.2,0.1-0.4,0.1-0.5,0c-3.4,0-6.9,0-10.3,0
	c-0.6,0-0.5-0.1-0.5,0.5c0,5.4,0,10.7,0,16.1c0,0.6,0,0.6,0.6,0.6h14.8c0.1,0,0.2,0,0.3,0c0.3,0,0.4,0.1,0.4,0.3
	c0.5,1.8,1,3.6,1.4,5.4c0.1,0.4,0.1,0.4,0.6,0.4h16.7c-0.6-2.1-1.1-4.1-1.6-6.1c0.1-0.1,0.2-0.1,0.3-0.1c1.4,0,2.8,0,4.2,0
	c0.4,0,0.4,0,0.4,0.4c0,3.8,0,7.7,0,11.5c0,0.3,0,0.3-0.3,0.4c-0.1,0-0.2,0-0.3,0H64.5c-0.6,0-0.6,0-0.6-0.6V36.7c0-0.2,0-0.4,0-0.6
	c0.1-0.1,0.3-0.1,0.5-0.1c7.2,0,14.3,0,21.5,0c0.6,0,0.7,0.1,0.8,0.6c0.6,2.4,1.3,4.7,1.9,7.1c0,0.1,0.1,0.2,0.1,0.3
	c0.1,0.5,0,0.6-0.5,0.6c-1.3,0-2.6,0-3.8,0C84.2,44.7,84,44.6,83.9,44.9z"/>
<path class="st8" d="M102.6,50.8h5.1c0.4,0,0.4,0,0.4-0.5V36.5c0-0.4,0-0.4,0.4-0.4h17.5c0.6,0,0.5,0,0.5,0.5v18.6
	c0,7.8,0,15.6,0,23.4c0,0.6,0.1,0.5-0.5,0.5c-4.1,0-8.3,0-12.4,0h-0.1c-0.5,0-0.4,0-0.4-0.4c0-0.6,0-1.2,0-1.8V66.1
	c0-0.1,0-0.2,0-0.3c0-0.2-0.1-0.2-0.2-0.2c-0.1,0-0.2,0-0.3,0h-5.5c-0.4,0-0.4,0-0.5-0.4c-1.3-4.7-2.5-9.4-3.8-14.1
	C102.7,51,102.6,51,102.6,50.8z"/>
<path class="st8" d="M94.8,80.3c0.2-0.1,0.3-0.1,0.5,0c5.4,0,10.7,0,16.1,0c0.1,0,0.1,0,0.2,0c0.2,0,0.3,0.1,0.4,0.3
	c0.3,1,0.6,2.1,0.8,3.1c2.3,8.4,4.5,16.9,6.8,25.3c0.4,1.4,0.7,2.8,1.1,4.2c0,0.1,0,0.1,0,0.2h-16.6c0,0-0.1,0-0.1,0
	c-0.3,0.1-0.4-0.1-0.5-0.3c-0.2-1-0.5-1.9-0.8-2.9c-2.2-8.4-4.5-16.7-6.7-25.1c-0.4-1.5-0.8-3-1.2-4.4
	C94.8,80.6,94.8,80.4,94.8,80.3z"/>
<path class="st8" d="M95.3,45.9h4.3c0.5,0,0.5,0,0.6,0.5l3.5,12.9c1.1,4,2.2,8,3.2,12.1c0,0.1,0,0.2,0.1,0.3c-0.1,0-0.3,0.1-0.4,0
	c-4.5,0-9.1,0-13.6,0h0c-0.4,0-0.4,0-0.5-0.4c-0.3-1.1-0.6-2.3-0.9-3.4c-1.7-6.3-3.4-12.6-5.1-18.9c-0.3-1-0.5-2-0.8-3.1h3.5
	c0.2,0.2,0.3,0.4,0.3,0.7c0.9,3.5,1.9,7,2.8,10.5c0.3,1,0.2,1,1.3,1h4.2c0.8,0,0.8,0,0.6-0.8c-0.2-0.6-0.3-1.1-0.5-1.7
	c-0.7-2.6-1.4-5.2-2.1-7.9c-0.1-0.5-0.2-1-0.4-1.5C95.2,46.2,95.1,46,95.3,45.9z"/>
<path class="st8" d="M148.6,38.9v36.9c-0.1,0.1-0.2,0-0.2-0.1c-3.1-2.6-6.2-5.1-9.3-7.7c-0.2-0.2-0.3-0.4-0.2-0.6c0-4.5,0-9,0-13.5
	c0-2.2,0-4.5,0-6.7c0-0.2,0.1-0.4,0.3-0.6c3.1-2.6,6.2-5.1,9.3-7.7C148.5,39,148.5,39,148.6,38.9z"/>
<path class="st8" d="M89.4,65.5c-0.2,0.1-0.3,0.1-0.5,0.1c-4.5,0-8.9,0-13.4,0c-0.1,0-0.2,0-0.2,0c-0.2,0-0.3-0.1-0.3-0.2
	c0-0.1,0-0.2,0-0.3V51.4c0-0.5,0-0.5,0.5-0.5H85c0.5,0,0.5,0,0.6,0.5l3.7,13.8C89.4,65.2,89.4,65.4,89.4,65.5z"/>
<path class="st8" d="M90.1,45.5c0-0.3-0.1-0.6-0.2-0.8c-0.1-0.2-0.2-0.4-0.3-0.6c-0.6-2.4-1.3-4.8-1.9-7.2c-0.1-0.3-0.1-0.5-0.1-0.8
	c-0.1-0.7-0.4-1.4-0.5-2.1c0-0.2-0.1-0.2-0.3-0.2c-0.5,0-1,0-1.5,0H79c-0.4,0-0.4,0-0.4-0.4c0-1.4,0-2.8,0-4.2c0-0.1,0-0.2,0.1-0.3
	c0.5,0,1,0.1,1.5,0.1c1.4,0.1,2.7,0.2,4.1,0.4l5.1,0.5c1.3,0.1,2.6,0.2,4,0.3c0.4,0,0.7,0.1,1.1,0.1c0.2,0,0.3,0.1,0.3,0.3
	c0,1,0,2,0,2.9c0,0.3-0.2,0.3-0.3,0.3h-3c-0.2,0-0.4,0-0.5,0.1c0.2,0.8,0.4,1.6,0.7,2.4c0.2,0.3,0.3,0.7,0.4,1
	c0.6,2.2,1.2,4.5,1.8,6.7c0.1,0.3,0.1,0.7,0.2,1c0,0.3,0.1,0.5,0.2,0.8c0.5,1.3,0.9,2.6,1.1,3.9c0.6,2,1.1,4,1.6,6
	c0.1,0.3,0.2,0.6,0.2,0.9c0.1,0.4,0,0.6-0.5,0.6c-1,0-2,0-3,0c-0.3,0-0.6-0.2-0.6-0.5c-0.1-0.2-0.1-0.5-0.2-0.8c-0.8-3-1.6-6-2.4-9
	C90.2,46.4,90.1,46,90.1,45.5z"/>
<path class="st8" d="M106.9,36.1c0,1.2,0,2.5,0,3.7c0,3,0,6.1,0,9.1v0.2c0,0.5,0,0.4-0.4,0.4h-2.7c-0.4,0-0.9,0-1.3,0
	c-0.2,0-0.3-0.1-0.4-0.3c-0.4-1.4-0.8-2.8-1.1-4.2c-0.1-0.4-0.1-0.4-0.5-0.4h-5.1c-0.2,0-0.4,0-0.5,0c-0.2-0.1-0.2-0.3-0.3-0.5
	c-0.7-2.5-1.3-4.9-2-7.4c-0.2-0.6-0.1-0.6,0.5-0.6c4.4,0,8.9,0,13.3,0C106.6,36.1,106.8,36,106.9,36.1z"/>
<path class="st8" d="M48.3,42.2h14c0.4,0,0.4,0,0.4,0.4c0,3.8,0,7.7,0,11.5c0,0.4,0,0.4-0.4,0.4c-2.1,0-4.3,0-6.4,0
	c-0.2,0-0.4-0.1-0.5-0.3c-2.2-3.7-4.5-7.5-6.7-11.2C48.5,42.7,48.4,42.5,48.3,42.2z"/>
<path class="st8" d="M127.8,57.4v-10c0-0.4,0-0.4,0.4-0.4c1,0,2,0,2.9,0c0.3,0,0.4,0.1,0.3,0.3c0,0.1,0,0.2,0,0.2
	c0,6.6,0,13.2,0,19.7c0,0.6,0.1,0.5-0.5,0.5c-0.9,0-1.8,0-2.7,0c-0.5,0-0.4,0-0.4-0.4C127.8,64.1,127.8,60.7,127.8,57.4z"/>
<path class="st8" d="M136.4,57.5v9.8c0,0.1,0,0.2,0,0.3c0,0.2-0.1,0.3-0.3,0.3c-0.6,0-1.3,0-1.9,0c-0.4,0-0.9,0-1.3,0
	c-0.2,0-0.3-0.1-0.3-0.3c0-0.1,0-0.2,0-0.3V47.5c0-0.5-0.1-0.5,0.5-0.5c0.9,0,1.9,0,2.8,0c0.4,0,0.4,0,0.4,0.4c0,2.5,0,5,0,7.6
	L136.4,57.5z"/>
<path class="st8" d="M113.1,80.3c0.1-0.1,0.3-0.1,0.4-0.1c2.2,0,4.4,0,6.5,0c0.1,0,0.2,0,0.2,0c0.2,0,0.2,0.1,0.2,0.2
	c0,0.1,0,0.2,0,0.3v7.6c0,0.1,0,0.2,0,0.3c0,0.1-0.1,0.2-0.2,0.2c0,0-0.1,0-0.1,0c-1.5,0-3,0-4.5,0c-0.2,0-0.4-0.1-0.4-0.3v0
	c-0.7-2.7-1.4-5.4-2.2-8C113.1,80.5,113.1,80.4,113.1,80.3z"/>
<path class="st9" d="M70.7,43.5c-0.9,0-1.8,0-2.7,0c-0.3,0-0.4,0-0.4-0.4c0-0.6,0-1.2,0-1.8c0-0.3,0.1-0.3,0.3-0.3
	c1.1,0,2.2,0,3.3,0c0.7,0,1.4,0,2.1,0c0.2,0,0.3,0.1,0.3,0.3c0,0.6,0,1.2,0,1.8c0,0.3,0,0.4-0.4,0.4C72.5,43.5,71.6,43.5,70.7,43.5z
	"/>
<path class="st10" d="M68.9,45.9c0.3,0,0.6,0,0.9,0c0.2,0,0.3,0.1,0.3,0.3c0,0.6,0,1.2,0,1.9c0,0.2-0.1,0.3-0.3,0.3
	c-0.6,0-1.3,0-1.9,0c-0.2,0-0.3-0.1-0.3-0.3c0-0.6,0-1.3,0-1.9c0-0.2,0.1-0.2,0.2-0.2C68.2,45.9,68.5,45.9,68.9,45.9L68.9,45.9z"/>
<path class="st11" d="M68.9,53.2c-0.7,0-1.2-0.5-1.2-1.2c0-0.7,0.5-1.2,1.2-1.2c0.7,0,1.2,0.5,1.2,1.2
	C70.1,52.7,69.5,53.2,68.9,53.2L68.9,53.2z"/>
</svg>
