<?xml version="1.0" encoding="utf-8"?>
<!-- Generator: Adobe Illustrator 25.4.0, SVG Export Plug-In . SVG Version: 6.00 Build 0)  -->
<svg version="1.1" id="Capa_2" xmlns="http://www.w3.org/2000/svg" xmlns:xlink="http://www.w3.org/1999/xlink" x="0px" y="0px"
	 viewBox="0 0 776.4 120" style="enable-background:new 0 0 776.4 120;" xml:space="preserve">
<style type="text/css">
	.st0{fill:#FDFCFB;}
	.st1{fill:#FDFDFD;}
	.st2{fill:#FEF4DD;}
	.st3{fill:#FFF0D4;}
	.st4{fill:#FFF5E2;}
	.st5{fill:#FFF0D3;}
	.st6{fill:#FFE4AF;}
	.st7{fill:#FFD278;}
	.st8{fill:#BE1622;}
	.st9{fill:#4EB106;}
	.st10{fill:#069CB1;}
</style>
<path class="st0" d="M610.4,85.3c0-0.5,0.1-0.9,0.1-1.4c0-18.4,0-36.7,0-55.1c0-0.4-0.2-0.9,0.1-1.1c0.5-0.2,0.7,0.4,1,0.6
	c3.8,3.8,7.6,7.7,11.5,11.4c6.2,5.9,12.1,12.1,18.3,18c4.7,4.5,9.2,9.1,13.8,13.6c0.2,0.2,0.4,0.7,0.8,0.5c0.3-0.2,0.1-0.7,0.1-1
	c0-13.7,0-27.4,0-41.1c0-1,0.2-1.3,1.2-1.2c2.6,0.1,2.6,0,2.6,2.6V85c0,0.2,0,0.5,0,0.7c0,0.2,0.1,0.5-0.2,0.6
	c-0.3,0.1-0.4-0.1-0.6-0.3c-1.1-1-2.2-2-3.2-3c-4.4-4.4-8.8-8.8-13.3-13.2c-6.1-6-12.3-12-18.3-18.1c-3.2-3.2-6.7-6.2-9.7-9.5
	c-0.7,0.3-0.3,0.8-0.3,1.2c0,8.5,0,16.9,0,25.4v14c0,2.7,0,2.7-2.8,2.7C611.2,85.5,610.7,85.8,610.4,85.3z"/>
<path class="st0" d="M259.5,28.1c0.5,0,0.7,0.4,1,0.7c3.5,3.5,7,7,10.6,10.5c6.6,6.3,13,12.9,19.5,19.3c4.5,4.4,8.9,8.8,13.4,13.2
	c0.3,0.3,0.5,0.8,0.9,0.7c0.4-0.2,0.2-0.7,0.2-1.1c0-13.6,0-27.3,0-40.9c0-1.1,0.2-1.5,1.4-1.4c2.4,0.1,2.4,0,2.4,2.4
	c0,18.1,0,36.1,0,54.2c0,0.4,0.3,1-0.2,1.2c-0.4,0.2-0.6-0.4-0.9-0.6c-5.6-5-10.8-10.5-16.2-15.8c-6.1-6-12.3-12-18.3-18.1
	c-3.2-3.2-6.7-6.2-9.7-9.5c-0.7,0.3-0.3,0.8-0.3,1.2c0,9.1,0,18.2,0,27.3c0,4.5,0,9,0,13.5c0,0.9-0.2,1.2-1.2,1.2
	c-2.7-0.1-2.7,0-2.7-2.7c0-17.9,0-35.9,0-53.8C259.4,29,259.4,28.6,259.5,28.1z"/>
<path class="st0" d="M209.8,29.1h36.5c0.1,1.3,0.2,2.7,0.1,4.1c0,0.5-0.2,0.6-0.6,0.6c-0.3,0-0.6,0-0.8,0h-26.5
	c-1.3,0-1.3,0-1.3,1.3c0,5.9,0,11.8,0,17.7c-0.1,0.4,0,0.8,0.1,1.2c0.9,0,1.8,0.1,2.7,0.1c7.4,0,14.8,0,22.2,0
	c0.2,1.1,0.2,2.3,0.1,3.4c0,0.3-0.2,0.5-0.5,0.5c-0.3,0-0.6,0-1,0c-7.5,0-15,0-22.5,0c-0.9,0-1.2,0.2-1.2,1.2c0,7,0,14.1,0,21.1
	c-0.1,0.4,0,0.7,0.1,1c0.4,0,0.8,0.1,1.2,0.1c9.3,0,18.6,0,27.9,0c0.1,1.3,0.2,2.7,0.1,4.1c0,0.5-0.2,0.7-0.6,0.6
	c-0.2,0-0.5,0-0.7,0h-34c-1.3,0-1.3,0-1.3-1.3c0-18.2,0-36.3,0-54.5C209.7,29.8,209.7,29.4,209.8,29.1z"/>
<path class="st0" d="M680.5,28.6H717c0.1,1.3,0.2,2.7,0.1,4.1c0,0.5-0.2,0.6-0.6,0.6c-0.3,0-0.6,0-0.8,0h-26.5c-1.3,0-1.3,0-1.3,1.3
	c0,5.9,0,11.8,0,17.7c-0.1,0.4,0,0.8,0.1,1.2c0.8,0,1.7,0.1,2.5,0.1c7.5,0,15,0,22.4,0c0.2,1.1,0.2,2.3,0.1,3.4
	c0,0.3-0.2,0.5-0.5,0.5c-0.3,0-0.6,0-1,0c-7.5,0-15,0-22.5,0c-0.9,0-1.2,0.2-1.2,1.2c0,7,0,14.1,0,21.1c-0.1,0.4,0,0.7,0.1,1.1
	c0.4,0,0.8,0.1,1.2,0.1c9.3,0,18.6,0,27.9,0c0.1,1.3,0.2,2.7,0.1,4.1c0,0.5-0.2,0.7-0.6,0.6c-0.2,0-0.5,0-0.7,0h-34
	c-1.3,0-1.3,0-1.3-1.3c0-18.2,0-36.4,0-54.5C680.3,29.4,680.3,29,680.5,28.6z"/>
<path class="st0" d="M442.6,86.9h-6.7c-0.5-0.2-1.1,0-1.6-0.2c-3.1-0.2-6.2-1-9.1-2.2c-2.6-1.1-5.1-2.6-7.4-4.4
	c-2.4-1.9-4.3-4.2-5.8-6.9c-1.6-2.7-2.7-5.6-3.3-8.6c-0.2-1.1-0.4-2.3-0.5-3.4c-0.2-0.4,0-0.9-0.2-1.3c0-0.6,0-1.2-0.1-1.9
	c-0.1-0.8-0.1-1.6,0-2.4c0.1-3,0.6-6,1.5-8.9c2.4-7.2,7.8-13,14.9-15.9c3.3-1.3,6.7-2.2,10.3-2.6c0.5-0.2,1,0,1.5-0.2h6.5
	c0.5,0.2,1,0,1.5,0.2c3,0.4,5.9,1.3,8.7,2.4c4.1,1.9,7.3,5.1,9.3,9.1c0.1,0.3,0.3,0.5,0.5,0.8c-0.1,0.4-0.5,0.2-0.7,0.2
	c-1.6,0-3.2,0-4.8,0c-0.2,0-0.6,0.2-0.7-0.2c-1.8-4.3-5.3-6.4-9.4-7.8c-4.7-1.6-9.8-1.7-14.5-0.3c-7.4,2-13.2,7.8-15.2,15.2
	c-3,10-1.6,19.4,5.3,27.5c3.6,4.2,8.7,6.9,14.2,7.6c1,0.2,2,0.2,3,0.2c1.3,0.2,2.5,0.2,3.8,0l1.3-0.1c0.4-0.2,0.9,0.1,1.2-0.2
	c3.7-0.4,7.2-1.7,10.3-3.7c1.6-0.9,3-2,4.3-3.3c0.3-0.3,0.6-0.5,1-0.1c0.7,0.7,1.4,1.3,2.2,1.9c-5.4,5.6-12.2,8-19.6,9
	C443.6,86.9,443,86.6,442.6,86.9z"/>
<path class="st0" d="M342.8,85.9c0-6.8,0-13.7,0-20.5c0-10.1,0-20.1,0-30.2c0-0.4,0-0.9-0.1-1.3c-0.4-0.2-0.9-0.2-1.3-0.1
	c-6.4,0-12.8,0-19.2,0c-1,0-1.4-0.2-1.2-1.2c0-1.2,0-2.3,0.1-3.4c16.6,0,33.1,0,49.7,0c0.9,0,1.3,0.2,1.2,1.2c-0.1,1.1,0,2.2,0,3.4
	c-0.4,0.3-0.8,0.2-1.3,0.2c-6.3,0-12.6,0-18.9,0c-1.7,0-1.5-0.2-1.5,1.5c0,16.5,0,32.9,0,49.4c0,1.7,0.1,1.5-1.5,1.5
	c-1.7,0-3.4,0-5,0C343.5,86,343.1,86.2,342.8,85.9z"/>
<path class="st0" d="M-0.1,28.8c16.6,0,33.1,0,49.7,0c0.9,0,1.3,0.2,1.2,1.2c-0.1,1.1,0,2.2,0,3.4c-0.4,0.3-0.8,0.2-1.3,0.2
	c-6.4,0-12.8,0-19.2,0c-1.3,0-1.3,0-1.3,1.3c0,16.5,0,33,0,49.5c0.1,0.5,0,1-0.1,1.4c-2.1,0-4.2-0.1-6.2,0c-1,0-1.2-0.3-1.2-1.2
	c0-16.5,0-33.1,0-49.6c0-0.4,0-0.9-0.1-1.3c-0.4-0.2-0.9-0.2-1.3-0.1c-6.4,0-12.8,0-19.2,0c-1,0-1.4-0.2-1.2-1.2
	C-0.3,31.1-0.2,30-0.1,28.8z"/>
<path class="st0" d="M167.6,81.3c0.4,0,0.8,0.1,1.2,0.1c9.3,0,18.6,0,27.9,0c0.1,1.3,0.2,2.7,0.1,4c0,0.5-0.2,0.6-0.6,0.6
	c-3.3,0-6.7,0.1-10-0.1l-25.9,0c-0.1-0.4-0.2-0.8-0.1-1.2c0-18.2,0-36.3,0-54.5c-0.1-0.4,0-0.8,0.1-1.2h7.2c0.1,0.5,0.2,0.9,0.1,1.4
	c0,16.5,0,33,0,49.5C167.4,80.4,167.5,80.9,167.6,81.3z"/>
<path class="st1" d="M729.9,85.3c2.3,0.2,4.7,0.2,7,0.1c0.8,0,0.4-0.7,0.4-1c0-6.5,0-13,0-19.5c0-1.3,0-2.6,0-4c0-0.4,0-0.7,0.6-0.7
	c1.7,0.1,3.5-0.2,5.2,0.2c-1.5,0-3,0.1-4.4,0c-1,0-1.2,0.3-1.2,1.2c0,7.5,0,15,0,22.5c0,1.2-0.3,1.6-1.5,1.5c-1.7-0.1-3.5,0-5.3,0
	C730.5,85.7,730.1,85.8,729.9,85.3z"/>
<path class="st2" d="M532.4,74.2c0,0.4-0.3,0.7-0.7,1c-0.1-0.4,0.1-0.8,0.4-1L532.4,74.2z"/>
<path class="st1" d="M775.2,82.3c-0.5,0.2-1.1,0.2-1.6,0H775.2z"/>
<path class="st0" d="M775.2,82.3c0.7-0.1,1,0.1,1,0.9c0,2.4-0.2,2.9-2.5,3c-2.9,0.2-5.8,0.4-8.5-1.1c-2-1.2-3.7-2.8-4.9-4.8
	c-2.9-4.2-5.7-8.5-8.6-12.8c-1-1.5-1.9-3-3-4.4c-1.1-1.3-2.6-2.1-4.2-2.5c-0.4-0.1-0.8-0.5-1.2-0.3c-1.7-0.2-3.4,0-5.1-0.1
	c-0.5,0-0.6,0.3-0.6,0.7c0,0.3,0,0.6,0,0.8v21.8c0,1.9,0,1.9-1.9,1.9c-1.6,0-3.1,0-4.7,0c-0.3,0-0.7,0.2-0.9-0.2
	c0-0.5,0.1-0.9,0.1-1.4c0-18,0-36,0-54c0-1.1,0.2-1.4,1.3-1.4c5.9,0.1,11.8,0,17.7,0c4.2-0.1,8.3,1,11.8,3.4
	c3.2,2.2,5.3,5.6,5.8,9.4c0.8,4.9-0.9,10-4.7,13.3c-2.5,2.3-5.7,3.6-9,3.8c-0.2,0-0.5,0-0.7,0.1c0,0.1,0,0.3,0,0.3
	c2.7,1.2,4,3.7,5.5,6c2.9,4.4,5.7,8.9,8.9,13.2c1.3,1.9,3.2,3.4,5.4,4.1c0.5,0.1,1,0.2,1.5,0.2C774.1,82.5,774.6,82.5,775.2,82.3z
	 M737.4,55.7c0,0.4-0.2,1,0.6,1c3.4-0.1,6.9,0.2,10.3-0.2c6.1-0.9,10.7-6.2,10.8-12.3c0-6.2-4.3-10.9-10.8-11.7
	c-3.4-0.4-6.9-0.1-10.3-0.2c-0.8,0-0.6,0.5-0.6,1c0,3.8,0,7.5,0,11.3C737.4,48.2,737.4,51.9,737.4,55.7z"/>
<path d="M558.8,61.2c0.1,7.8,0,15.6,0.1,23.4c0,0.7-0.2,0.9-0.9,0.9c-2.1-0.3-4.5,0.4-6.5-0.3c0.8-4-1.7-19.4,1.5-20.4
	C555.2,64.1,558,63.9,558.8,61.2z"/>
<path class="st0" d="M596.5,82.4c0.7-0.1,1,0.1,1,0.9c0,2.4-0.2,2.9-2.5,3c-2.9,0.2-5.8,0.4-8.5-1.1c-2-1.2-3.7-2.8-4.9-4.8
	c-2.9-4.2-5.7-8.5-8.6-12.8c-1-1.5-1.9-3-3-4.4c-1.1-1.3-2.6-2.1-4.2-2.5c-0.4-0.1-0.8-0.5-1.2-0.3c-1.7-0.2-3.4,0-5.1-0.1
	c-0.5,0-0.6,0.3-0.6,0.7c0,0.3,0,0.6,0,0.8v21.8c0,1.9,0,1.9-1.9,1.9c-1.6,0-3.1,0-4.7,0c-0.3,0-0.7,0.2-0.9-0.2
	c0-0.5,0.1-0.9,0.1-1.4c0-18,0-36,0-54c0-1.1,0.2-1.4,1.3-1.4c5.9,0.1,11.8,0,17.7,0c4.2-0.1,8.3,1,11.8,3.4
	c3.2,2.2,5.3,5.6,5.8,9.4c0.8,4.9-0.9,10-4.7,13.3c-2.5,2.3-5.7,3.6-9,3.8c-0.2,0-0.5,0-0.7,0.1c0,0.1,0,0.3,0,0.3
	c2.7,1.2,4,3.7,5.5,6c2.9,4.4,5.7,8.9,8.9,13.2c1.3,1.9,3.2,3.4,5.4,4.1c0.5,0.1,1,0.2,1.5,0.2C595.4,82.6,596,82.6,596.5,82.4z
	 M558.7,55.7c0,0.4-0.2,1,0.6,1c3.4-0.1,6.9,0.2,10.3-0.2c6.1-0.9,10.7-6.2,10.8-12.3c0-6.2-4.3-10.9-10.8-11.7
	c-3.4-0.4-6.9-0.1-10.3-0.2c-0.8,0-0.6,0.5-0.6,1c0,3.8,0,7.5,0,11.3C558.7,48.2,558.7,52,558.7,55.7L558.7,55.7z"/>
<path class="st3" d="M602.9,160.9c-0.2,0.2-0.3,0.4-0.6,0.6c0,0-0.1,0-0.1,0c0.2-0.2,0.3-0.5,0.5-0.7L602.9,160.9z"/>
<path class="st0" d="M531.5,75.3c0.5-0.6,1-1.2,1.5-1.8c1.4-1.8,3-3.5,4.7-5c2.2-2,4.5-3.8,6.9-5.5c2.3-1.7,4.8-3.1,7.5-4.2
	c1.9-0.7,3.7-1.5,5.4-2.5c0.2-0.1,0.5-0.3,0.7-0.4c0.3-0.2,0.5-0.1,0.5,0.3c0.1,0.8,0.1,1.7-0.1,2.5c-0.2,0.8-0.5,1.6-0.8,2.4
	c-0.3,0.8-0.9,1.4-1.8,1.7c-1.2,0.4-2.5,0.8-3.7,1.2c-1.8,0.7-3.5,1.6-5,2.7c-1.1,0.8-2.3,1.6-3.3,2.5c-1.5,1.3-3,2.6-4.4,4
	c-0.9,0.9-1.8,1.9-2.7,2.9s-1.7,2-2.6,3c-2.1,2.1-4.4,3.9-6.8,5.5c-1.6,1-3.2,1.9-4.9,2.7c-1.6,0.8-3.3,1.5-5,2
	c-1.6,0.5-3.2,1-4.8,1.3c-1.6,0.4-3.1,0.7-4.7,0.8c-1.7,0.1-3.4,0.4-5.1,0.4c-1.1,0-2.2,0-3.4-0.1c-2.9-0.3-5.7-0.9-8.4-1.8
	c-2.1-0.7-4.1-1.7-5.9-2.8c-1.3-0.8-2.6-1.7-3.9-2.7c-0.8-0.6-1.5-1.3-2.2-2c-1.3-1.2-2.5-2.5-3.6-4c-2.2-2.9-3.9-6.1-5.1-9.6
	c-0.6-1.7-1.1-3.4-1.4-5.1c-0.2-1.4-0.4-2.8-0.5-4.2c-0.1-1-0.1-2.1-0.1-3.1c0.1-2.5,0.4-5,1-7.4c0.6-2.3,1.3-4.5,2.4-6.6
	c1.3-2.6,2.9-5.1,4.7-7.4c1.3-1.5,2.7-2.9,4.2-4.1c1.8-1.5,3.8-2.8,5.9-3.9c1.3-0.7,2.7-1.4,4.1-1.9c0.9-0.3,1.7-0.5,2.6-0.8
	c1.5-0.4,3-0.8,4.6-0.9c3.6-0.5,7.3-0.3,10.9,0.4c2.5,0.5,4.9,1.3,7.2,2.4c1.7,0.8,3.3,1.7,4.9,2.7c2.4,1.6,4.7,3.6,6.6,5.8
	c1.7,1.9,3.1,3.9,4.3,6.1c1.1,2,2,4.2,2.7,6.4c0.4,1.4,0.8,2.9,1.1,4.3c0.1,0.7,0.2,1.4,0.3,2.1c0.2,1.6,0.3,3.2,0.2,4.8
	c0,1.5-0.2,3.1-0.4,4.6c-0.5,2.7-1.2,5.4-2.2,7.9c-0.4,1-0.9,2-1.4,3c-0.2,0.4-0.4,0.8-0.7,1.2c0,0.3-0.2,0.4-0.4,0.6
	c0,0,0,0.1,0,0.1c0,0,0,0.1-0.1,0.1c0,0,0,0,0,0.1l0,0l0,0c0,0,0,0,0-0.1c0,0,0.1-0.1,0.1-0.1c0,0,0-0.1,0.1-0.1
	C531.2,75.6,531.2,75.4,531.5,75.3z M522.9,65.2c-1.8-1.6-4.2-2-6.5-1.2c-1.7,0.5-3.1,1.8-3.9,3.4c-0.6,1.2-0.9,2.6-0.7,3.9
	c0.2,2.2,1.6,4.2,3.5,5.2c2,1.2,4.5,1.2,6.5,0c1.5-0.8,2.6-2.2,3.1-3.8c0.3-1,0.4-2,0.3-3C525.2,67.9,524.3,66.4,522.9,65.2
	L522.9,65.2z M526.3,45c-2.2-2.4-5.8-2.8-8.6-1c-2.4,1.6-3.5,4.4-2.9,7.2c0.3,1.2,0.9,2.4,1.7,3.3c0.6,0.7,1.4,1.2,2.3,1.6
	c1.1,0.6,2.4,0.7,3.6,0.5c1.3-0.2,2.5-0.8,3.5-1.7c1.6-1.4,2.4-3.4,2.3-5.6C528.1,47.7,527.4,46.2,526.3,45L526.3,45z M511.6,34.7
	c-0.7-2.1-2.3-3.7-4.3-4.5c-0.7-0.3-1.5-0.4-2.2-0.3c-1.8,0-3.6,0.7-4.8,2.1c-1.7,1.7-2.3,4.2-1.7,6.5c0.4,1.7,1.5,3.1,2.9,4.1
	c2.1,1.4,4.8,1.5,7,0.2c1.4-0.8,2.5-2.1,3-3.6c0.4-1,0.5-2,0.4-3.1C511.8,35.6,511.7,35.1,511.6,34.7L511.6,34.7z M482,58.6
	c-3.6,0.6-6.1,3.9-5.6,7.5c0.3,3.7,3.6,6.5,7.3,6.1c0.1,0,0.2,0,0.3,0c3.7-0.5,6.3-3.8,5.9-7.5c-0.4-3.8-3.8-6.5-7.5-6.1
	C482.2,58.6,482.1,58.6,482,58.6L482,58.6z M505,74.4c-1.1-1.6-2.8-2.7-4.8-2.9c-1.5-0.2-2.9,0.1-4.2,0.9c-2.6,1.6-3.9,4.8-3.1,7.7
	c0.5,1.7,1.5,3.1,2.9,4c0.8,0.5,1.6,0.8,2.5,1c0.8,0.2,1.6,0.2,2.3,0c0.6-0.1,1.1-0.3,1.6-0.6c1.9-0.9,3.2-2.5,3.7-4.5
	c0.2-0.9,0.3-1.9,0.1-2.8C505.9,76.2,505.5,75.2,505,74.4L505,74.4z M480.1,41.2c-1,1.6-1.2,3.5-0.6,5.3c0.5,1.9,1.8,3.4,3.5,4.3
	c1.5,0.8,3.2,1,4.8,0.5c1.2-0.3,2.2-0.9,3.1-1.8c1.6-1.6,2.3-3.9,1.8-6c-0.3-1.6-1.1-3-2.4-4.1c-1.4-1.2-3.3-1.8-5.2-1.5
	C482.9,38,481.1,39.3,480.1,41.2L480.1,41.2z M501.7,52.5c-2.7,0.3-4.7,2.8-4.4,5.5c0,0,0,0,0,0.1c0.3,2.8,2.7,4.8,5.5,4.6
	c0.1,0,0.1,0,0.2,0c2.8-0.4,4.7-2.9,4.4-5.6c-0.2-2.8-2.7-4.8-5.4-4.5C501.8,52.5,501.8,52.5,501.7,52.5L501.7,52.5z M510.8,61.2
	c1.3-0.2,2.2-1.3,2.1-2.6c-0.2-1.2-1.4-2.1-2.6-2c-1.2,0.2-2,1.3-1.9,2.5C508.5,60.3,509.6,61.2,510.8,61.2L510.8,61.2z M506.2,63.4
	c-0.7-0.3-1.6-0.2-2.2,0.3c-0.7,0.6-1.1,1.5-0.8,2.4c0.2,0.9,1,1.5,1.9,1.7c0.6,0.1,1.3-0.1,1.8-0.6c0.6-0.5,0.9-1.3,0.8-2.1
	C507.5,64.4,506.9,63.7,506.2,63.4L506.2,63.4z M498.5,51.8c0.4,0.2,1,0.2,1.4,0c0.3-0.2,0.6-0.4,0.9-0.6c0.8-0.8,0.9-1.9,0.3-2.8
	c-0.6-0.8-1.6-1.2-2.6-1c-1,0.3-1.7,1.4-1.6,2.4C497.1,50.7,497.7,51.5,498.5,51.8L498.5,51.8z M507.8,53.2c1.3-0.1,2.2-1.3,2.1-2.6
	c0,0,0-0.1,0-0.1c-0.2-1.2-1.3-2.1-2.6-1.9c-1.2,0.2-2.1,1.3-1.9,2.5c0,0,0,0,0,0C505.4,52.4,506.5,53.3,507.8,53.2L507.8,53.2z
	 M497.2,66.5c1.3-0.1,2.2-1.2,2.1-2.5c0,0,0-0.1,0-0.1c-0.2-1.2-1.3-2.1-2.6-2c-1.2,0.2-2.1,1.3-1.9,2.5
	C494.9,65.7,496,66.6,497.2,66.5L497.2,66.5z M491.7,56.4c0.1,1.2,1.2,2.2,2.4,2.1c1.3-0.1,2.2-1.3,2.1-2.6c-0.1-1.2-1.3-2.1-2.5-2
	c0,0,0,0,0,0C492.5,54.1,491.6,55.2,491.7,56.4C491.7,56.4,491.7,56.4,491.7,56.4L491.7,56.4z"/>
<path class="st4" d="M602.3,161.4l0.1,0c0,0.1-0.1,0.1-0.1,0.1L602.3,161.4L602.3,161.4z"/>
<path class="st5" d="M602.1,161.6c0,0,0-0.1,0.1-0.1c0,0,0,0,0,0l0,0C602.2,161.6,602.2,161.6,602.1,161.6
	C602.2,161.6,602.2,161.6,602.1,161.6L602.1,161.6z"/>
<path class="st6" d="M602.1,161.7C602.1,161.7,602.1,161.6,602.1,161.7L602.1,161.7C602.2,161.7,602.1,161.7,602.1,161.7
	C602.1,161.7,602.1,161.7,602.1,161.7L602.1,161.7z"/>
<path class="st7" d="M602.1,161.7L602.1,161.7C602,161.8,602,161.7,602.1,161.7C602,161.7,602,161.7,602.1,161.7L602.1,161.7z"/>
<path class="st0" d="M83.7,45.2c0.1,0.9,0.4,1.7,0.7,2.6c0.2,0.7,0.4,1.4,0.6,2.1c-0.2,0.1-0.4,0.1-0.5,0c-3.4,0-6.9,0-10.3,0
	c-0.6,0-0.5-0.1-0.5,0.5c0,5.4,0,10.7,0,16.1c0,0.6,0,0.6,0.6,0.6h14.8c0.1,0,0.2,0,0.3,0c0.3,0,0.4,0.1,0.4,0.3
	c0.5,1.8,1,3.6,1.4,5.4c0.1,0.4,0.1,0.4,0.6,0.4h16.7c-0.6-2.1-1.1-4.1-1.6-6.1c0.1-0.1,0.2-0.1,0.3-0.1c1.4,0,2.8,0,4.2,0
	c0.4,0,0.4,0,0.4,0.4c0,3.8,0,7.7,0,11.5c0,0.3,0,0.3-0.3,0.4c-0.1,0-0.2,0-0.3,0H64.3c-0.6,0-0.6,0-0.6-0.6V37c0-0.2,0-0.4,0-0.6
	c0.1-0.1,0.3-0.1,0.5-0.1c7.2,0,14.3,0,21.5,0c0.6,0,0.7,0.1,0.8,0.6c0.6,2.4,1.3,4.7,1.9,7.1c0,0.1,0.1,0.2,0.1,0.3
	c0.1,0.5,0,0.6-0.5,0.6c-1.3,0-2.6,0-3.8,0C83.9,45,83.7,44.9,83.7,45.2z"/>
<path class="st0" d="M102.3,51.1h5.1c0.4,0,0.4,0,0.4-0.5V36.8c0-0.4,0-0.4,0.4-0.4h17.5c0.6,0,0.5,0,0.5,0.5v18.6
	c0,7.8,0,15.6,0,23.4c0,0.6,0.1,0.5-0.5,0.5c-4.1,0-8.3,0-12.4,0h-0.1c-0.5,0-0.4,0-0.4-0.4c0-0.6,0-1.2,0-1.8V66.4
	c0-0.1,0-0.2,0-0.3c0-0.2-0.1-0.2-0.2-0.2c-0.1,0-0.2,0-0.3,0h-5.5c-0.4,0-0.4,0-0.5-0.4c-1.3-4.7-2.5-9.4-3.8-14.1
	C102.4,51.3,102.4,51.2,102.3,51.1z"/>
<path class="st0" d="M94.5,80.6c0.2-0.1,0.3-0.1,0.5,0c5.4,0,10.7,0,16.1,0c0.1,0,0.1,0,0.2,0c0.2,0,0.3,0.1,0.4,0.3
	c0.3,1,0.6,2.1,0.8,3.1c2.3,8.4,4.5,16.9,6.8,25.3c0.4,1.4,0.7,2.8,1.1,4.2c0,0.1,0,0.1,0,0.2h-16.6c0,0-0.1,0-0.1,0
	c-0.3,0.1-0.4-0.1-0.5-0.3c-0.2-1-0.5-1.9-0.8-2.9c-2.2-8.4-4.5-16.7-6.7-25.1c-0.4-1.5-0.8-3-1.2-4.4
	C94.5,80.8,94.5,80.7,94.5,80.6z"/>
<path class="st0" d="M95,46.1h4.3c0.5,0,0.5,0,0.6,0.5l3.5,12.9c1.1,4,2.2,8,3.2,12.1c0,0.1,0,0.2,0.1,0.3c-0.1,0-0.3,0.1-0.4,0
	c-4.5,0-9.1,0-13.6,0h0c-0.4,0-0.4,0-0.5-0.4c-0.3-1.1-0.6-2.3-0.9-3.4c-1.7-6.3-3.4-12.6-5.1-18.9c-0.3-1-0.5-2-0.8-3.1h3.5
	c0.2,0.2,0.3,0.4,0.3,0.7c0.9,3.5,1.9,7,2.8,10.5c0.3,1,0.2,1,1.3,1h4.2c0.8,0,0.8,0,0.6-0.8c-0.2-0.6-0.3-1.1-0.5-1.7
	c-0.7-2.6-1.4-5.2-2.1-7.9c-0.1-0.5-0.2-1-0.4-1.5C94.9,46.4,94.8,46.3,95,46.1z"/>
<path class="st0" d="M148.4,39.2v36.9c-0.1,0.1-0.2,0-0.2-0.1c-3.1-2.6-6.2-5.1-9.3-7.7c-0.2-0.2-0.3-0.4-0.2-0.6c0-4.5,0-9,0-13.5
	c0-2.2,0-4.5,0-6.7c0-0.2,0.1-0.4,0.3-0.6c3.1-2.6,6.2-5.1,9.3-7.7C148.2,39.3,148.2,39.3,148.4,39.2z"/>
<path class="st0" d="M89.1,65.8c-0.2,0.1-0.3,0.1-0.5,0.1c-4.5,0-8.9,0-13.4,0c-0.1,0-0.2,0-0.2,0c-0.2,0-0.3-0.1-0.3-0.2
	c0-0.1,0-0.2,0-0.3V51.6c0-0.5,0-0.5,0.5-0.5h9.5c0.5,0,0.5,0,0.6,0.5L89,65.4C89.1,65.5,89.1,65.6,89.1,65.8z"/>
<path class="st0" d="M89.8,45.8c0-0.3-0.1-0.6-0.2-0.8c-0.1-0.2-0.2-0.4-0.3-0.6c-0.6-2.4-1.3-4.8-1.9-7.2c-0.1-0.3-0.1-0.5-0.1-0.8
	c-0.1-0.7-0.4-1.4-0.5-2.1c0-0.2-0.1-0.2-0.3-0.2c-0.5,0-1,0-1.5,0h-6.1c-0.4,0-0.4,0-0.4-0.4c0-1.4,0-2.8,0-4.2
	c0-0.1,0-0.2,0.1-0.3c0.5,0,1,0.1,1.5,0.1c1.4,0.1,2.7,0.2,4.1,0.4L89,30c1.3,0.1,2.6,0.2,4,0.3c0.4,0,0.7,0.1,1.1,0.1
	c0.2,0,0.3,0.1,0.3,0.3c0,1,0,2,0,2.9c0,0.3-0.2,0.3-0.3,0.3h-3c-0.2,0-0.4,0-0.5,0.1c0.2,0.8,0.4,1.6,0.7,2.4
	c0.2,0.3,0.3,0.7,0.4,1c0.6,2.2,1.2,4.5,1.8,6.7c0.1,0.3,0.1,0.7,0.2,1c0,0.3,0.1,0.5,0.2,0.8c0.5,1.3,0.9,2.6,1.1,3.9
	c0.6,2,1.1,4,1.6,6c0.1,0.3,0.2,0.6,0.2,0.9c0.1,0.4,0,0.6-0.5,0.6c-1,0-2,0-3,0c-0.3,0-0.6-0.2-0.6-0.5c-0.1-0.2-0.1-0.5-0.2-0.8
	c-0.8-3-1.6-6-2.4-9C89.9,46.7,89.8,46.2,89.8,45.8z"/>
<path class="st0" d="M106.7,36.4c0,1.2,0,2.5,0,3.7c0,3,0,6.1,0,9.1v0.2c0,0.5,0,0.4-0.4,0.4h-2.7c-0.4,0-0.9,0-1.3,0
	c-0.2,0-0.3-0.1-0.4-0.3c-0.4-1.4-0.8-2.8-1.1-4.2c-0.1-0.4-0.1-0.4-0.5-0.4h-5.1c-0.2,0-0.4,0-0.5,0c-0.2-0.1-0.2-0.3-0.3-0.5
	c-0.7-2.5-1.3-4.9-2-7.4c-0.2-0.6-0.1-0.6,0.5-0.6c4.4,0,8.9,0,13.3,0C106.3,36.4,106.5,36.3,106.7,36.4z"/>
<path class="st0" d="M48,42.5h14c0.4,0,0.4,0,0.4,0.4c0,3.8,0,7.7,0,11.5c0,0.4,0,0.4-0.4,0.4c-2.1,0-4.3,0-6.4,0
	c-0.2,0-0.4-0.1-0.5-0.3c-2.2-3.7-4.5-7.5-6.7-11.2C48.3,43,48.1,42.8,48,42.5z"/>
<path class="st0" d="M127.5,57.7v-10c0-0.4,0-0.4,0.4-0.4c1,0,2,0,2.9,0c0.3,0,0.4,0.1,0.3,0.3c0,0.1,0,0.2,0,0.2
	c0,6.6,0,13.2,0,19.7c0,0.6,0.1,0.5-0.5,0.5c-0.9,0-1.8,0-2.7,0c-0.5,0-0.4,0-0.4-0.4C127.5,64.4,127.5,61,127.5,57.7z"/>
<path class="st0" d="M136.1,57.8v9.8c0,0.1,0,0.2,0,0.3c0,0.2-0.1,0.3-0.3,0.3c-0.6,0-1.3,0-1.9,0c-0.4,0-0.9,0-1.3,0
	c-0.2,0-0.3-0.1-0.3-0.3c0-0.1,0-0.2,0-0.3V47.8c0-0.5-0.1-0.5,0.5-0.5c0.9,0,1.9,0,2.8,0c0.4,0,0.4,0,0.4,0.4c0,2.5,0,5,0,7.6
	L136.1,57.8z"/>
<path class="st0" d="M112.8,80.6c0.1-0.1,0.3-0.1,0.4-0.1c2.2,0,4.4,0,6.5,0c0.1,0,0.2,0,0.2,0c0.2,0,0.2,0.1,0.2,0.2
	c0,0.1,0,0.2,0,0.3v7.6c0,0.1,0,0.2,0,0.3c0,0.1-0.1,0.2-0.2,0.2c0,0-0.1,0-0.1,0c-1.5,0-3,0-4.5,0c-0.2,0-0.4-0.1-0.4-0.3v0
	c-0.7-2.7-1.4-5.4-2.2-8C112.9,80.8,112.8,80.7,112.8,80.6z"/>
<path class="st8" d="M70.4,43.8c-0.9,0-1.8,0-2.7,0c-0.3,0-0.4,0-0.4-0.4c0-0.6,0-1.2,0-1.8c0-0.3,0.1-0.3,0.3-0.3
	c1.1,0,2.2,0,3.3,0c0.7,0,1.4,0,2.1,0c0.2,0,0.3,0.1,0.3,0.3c0,0.6,0,1.2,0,1.8c0,0.3,0,0.4-0.4,0.4C72.2,43.8,71.3,43.8,70.4,43.8z
	"/>
<path class="st9" d="M68.6,46.2c0.3,0,0.6,0,0.9,0c0.2,0,0.3,0.1,0.3,0.3c0,0.6,0,1.2,0,1.9c0,0.2-0.1,0.3-0.3,0.3
	c-0.6,0-1.3,0-1.9,0c-0.2,0-0.3-0.1-0.3-0.3c0-0.6,0-1.3,0-1.9c0-0.2,0.1-0.2,0.2-0.2C67.9,46.2,68.3,46.2,68.6,46.2L68.6,46.2z"/>
<path class="st10" d="M68.6,53.5c-0.7,0-1.2-0.5-1.2-1.2c0-0.7,0.5-1.2,1.2-1.2c0.7,0,1.2,0.5,1.2,1.2C69.8,53,69.3,53.5,68.6,53.5
	L68.6,53.5z"/>
</svg>
