<svg id="Capa_1" data-name="Capa 1" xmlns="http://www.w3.org/2000/svg" viewBox="0 0 1800.437 2000.245"><defs><style>.cls-1{fill:#090807;}</style></defs><path class="cls-1" d="M-260.668,949.239H-441.645c-2,0-4-.021-6,0-8.556.1-8.649.11-8.654,8.843q-.043,84.489-.022,168.978a65.263,65.263,0,0,1-.214,8.985c-1.072,7.64-6.316,12.444-14.046,13.106-2.318.2-4.663.1-7,.1q-78.99.006-157.979,0c-1.667,0-3.336.049-5-.022-10.585-.454-15.446-5.5-15.757-16.366-.067-2.332-.018-4.666-.018-7V963.889c0-2,.022-4,0-6-.11-8.544-.115-8.631-8.9-8.636q-78.49-.043-156.98-.014h-210.972c-2.667,0-5.338.094-8-.037-9.545-.47-14.74-5.481-15.108-14.938-.259-6.656-.07-13.33-.068-20,0-16.665,1.327-33.467-.4-49.949-1.315-12.538,2.729-22.555,7.672-33.1q73.356-156.492,146.515-313.076c2.117-4.527,4.17-8.935,8.107-12.4,9.365-8.253,17.636-9.118,27.866-2.155a549.482,549.482,0,0,0,165.168,76.361,541.71,541.71,0,0,0,176.093,18.487c101.305-6,194.33-37.321,278.4-94.513,4.214-2.867,8.205-5.226,13.7-4.823,9.586.7,14.792,4.468,16.693,13.948a36.368,36.368,0,0,0,2.905,8.39Q-137.208,684.759-60.724,848.06a44.579,44.579,0,0,1,4.556,20.161c-.322,20.659-.051,41.327-.134,61.99-.057,14.2-4.966,19-19.39,19.013Q-168.18,949.272-260.668,949.239Z" transform="translate(1456.622 850.967)"/><path class="cls-1" d="M343.754,48.994V523.011c0,2.333.024,4.667,0,7-.174,14.318-4.964,19.16-19.267,19.179-24.665.032-49.331-.157-73.994.026-5.307.039-9.673-2-14.192-4.111Q84.635,474.326-67.033,403.559c-8.752-4.084-17.523-8.128-26.213-12.342-9.25-4.485-14.357-11.288-13.192-22.275.466-4.4,2.754-7.387,4.956-10.627A544.406,544.406,0,0,0-36.011,227.307,532.974,532.974,0,0,0-9.484,104.585Q9.092-94.5-102.314-260.546c-3.475-5.157-4.217-10.241-3.93-15.971.342-6.817,3.848-11.707,10.22-13.219,5.945-1.412,11.135-4.131,16.515-6.647Q82.049-371.95,243.568-447.594c6.273-2.943,12.363-3.732,19.243-3.536,19.319.552,38.662.223,58,.247,2.667,0,5.352-.156,8,.1,8.667.832,13.94,6.039,14.824,14.769a99.627,99.627,0,0,1,.125,9.993Q343.757-188.515,343.754,48.994Z" transform="translate(1456.622 850.967)"/><path class="cls-1" d="M-555.91-850.918q237.937,0,475.877,0c19.982,0,23.748,3.82,23.753,24.042.005,18.662-.143,37.325.08,55.985A40.76,40.76,0,0,1-60.072-752.6q-76.816,164.223-153.4,328.552c-1.108,2.376-2.37,4.62-2.88,7.364-2.981,16.032-15.874,21.322-29.564,12.077a571.354,571.354,0,0,0-56.52-33.909c-62.793-32.579-129.323-52.631-199.8-59.2q-198.541-18.51-364.148,92.654c-11.342,7.59-21.133,5.933-29.386-4.7a53.03,53.03,0,0,1-6.151-10.227q-75.81-162.489-151.777-324.9c-3.456-7.373-3.2-14.415-2.882-22.16.722-17.3.224-34.648.225-51.977,0-5.332-.142-10.669.045-16,.347-9.9,5.508-15.132,15.535-15.831,2.985-.208,6-.062,8.995-.062Z" transform="translate(1456.622 850.967)"/><path class="cls-1" d="M-1456.394,48.977q0-238.485-.227-476.969c-.052-20.064,8.314-23.332,22.805-23.071,21.309.385,42.654.882,63.963-.417,4.956-.3,9,1.958,13.22,3.924q121.329,56.594,242.666,113.168c25.051,11.684,49.911,23.8,75.228,34.875,9.59,4.194,17.366,10.8,26.112,16.06,7.5,4.513,8.059,13.588,2.429,21.846a555.059,555.059,0,0,0-56.159,104.557,530.97,530.97,0,0,0-36.116,141.806c-14.948,135.808,15.247,260.65,91.566,374.077,4.809,7.148,5.073,14.224,4.191,21.783a13.659,13.659,0,0,1-12.548,12.3c-4.479.494-8.326,2.111-12.237,3.935q-157.089,73.284-314.125,146.679c-8.045,3.768-15.952,5.867-24.87,5.739-22.993-.331-45.995.009-68.993-.108-11.862-.061-16.8-5.117-16.865-17.216-.121-24.331-.04-48.663-.04-72.995Q-1456.4,253.964-1456.394,48.977Z" transform="translate(1456.622 850.967)"/><path class="cls-1" d="M-555.985,549.2c-274.581,1.524-499.6-223.087-500.651-498.123-1.035-270.825,217.607-501.213,499.151-501.843C-280.865-451.385-56.956-228.118-56.4,48.092-55.838,330.608-286.193,550.443-555.985,549.2Zm-.2-900.046c-226.441.576-399.858,184.655-400.409,398.874-.567,221.063,179.553,400.62,398.789,401.423,214.39.785,400.507-171.751,401.349-398.808C-155.63-171.489-334.79-350.15-556.182-350.846Z" transform="translate(1456.622 850.967)"/><path class="cls-1" d="M-560.942-189.417a213.813,213.813,0,0,0-42.975,3.569,43.338,43.338,0,0,1-11.911.683c-6.865-.655-11.928-4.358-13.84-11.185-3.946-14.1-7.608-28.27-11.395-42.41-1.491-5.57,1.088-9.735,4.814-13.347,4.208-4.078,9.5-6,15.187-7,93.208-16.355,178.028,3.653,253.819,60.034,50.754,37.755,86.468,87.165,108.3,146.569,1.965,5.346,3.659,10.684,3.228,16.51-.637,8.618-3.578,12.6-12.005,14.952q-19.227,5.356-38.573,10.281c-9,2.29-15.5-.593-19.979-8.7a71.351,71.351,0,0,1-3.474-8.266C-364.993-116.4-429.932-168.99-523.381-186.655A163.772,163.772,0,0,0-560.942-189.417Z" transform="translate(1456.622 850.967)"/></svg>