<svg xmlns="http://www.w3.org/2000/svg" width="83.104" height="122.472" viewBox="0 0 83.104 122.472">
  <g id="Group_125" data-name="Group 125" transform="translate(-1584.65 -2191.182)">
    <path id="Path_183" data-name="Path 183" d="M96.088,33.976a27.032,27.032,0,0,0-6.968.884,31.853,31.853,0,0,0-6.968,2.86l-3.536-9.672A36.6,36.6,0,0,1,87.4,24.564a39.676,39.676,0,0,1,10.14-1.3,26.6,26.6,0,0,1,10.3,1.716,18.281,18.281,0,0,1,6.448,4.316,14.59,14.59,0,0,1,3.328,5.72,20.957,20.957,0,0,1,.936,6.032,14.929,14.929,0,0,1-1.3,6.344,23.894,23.894,0,0,1-3.276,5.2,47.72,47.72,0,0,1-4.264,4.524q-2.288,2.132-4.264,4.368a23.616,23.616,0,0,0-3.276,4.732,11.974,11.974,0,0,0-1.3,5.616v1.2a7.9,7.9,0,0,0,.1,1.3H90.16a20.457,20.457,0,0,1-.312-2.236q-.1-1.2-.1-2.236a15.616,15.616,0,0,1,1.144-6.136A22.4,22.4,0,0,1,93.8,58.728a40.621,40.621,0,0,1,3.8-4.264q2.028-1.976,3.8-3.952a22.018,22.018,0,0,0,2.912-4.056,9.338,9.338,0,0,0,1.144-4.576,7.5,7.5,0,0,0-2.34-5.668Q100.768,33.976,96.088,33.976Zm8.112,56.16a7.835,7.835,0,0,1-2.392,5.928,8.756,8.756,0,0,1-11.8,0,7.751,7.751,0,0,1-2.444-5.928A7.918,7.918,0,0,1,90,84.156a8.613,8.613,0,0,1,11.8,0A8,8,0,0,1,104.2,90.136Z" transform="translate(1549.202 2167.918)" fill="#fff"/>
    <path id="Path_184" data-name="Path 184" d="M96.088,33.976a27.032,27.032,0,0,0-6.968.884,31.853,31.853,0,0,0-6.968,2.86l-3.536-9.672A36.6,36.6,0,0,1,87.4,24.564a39.676,39.676,0,0,1,10.14-1.3,26.6,26.6,0,0,1,10.3,1.716,18.281,18.281,0,0,1,6.448,4.316,14.59,14.59,0,0,1,3.328,5.72,20.957,20.957,0,0,1,.936,6.032,14.929,14.929,0,0,1-1.3,6.344,23.894,23.894,0,0,1-3.276,5.2,47.72,47.72,0,0,1-4.264,4.524q-2.288,2.132-4.264,4.368a23.616,23.616,0,0,0-3.276,4.732,11.974,11.974,0,0,0-1.3,5.616v1.2a7.9,7.9,0,0,0,.1,1.3H90.16a20.457,20.457,0,0,1-.312-2.236q-.1-1.2-.1-2.236a15.616,15.616,0,0,1,1.144-6.136A22.4,22.4,0,0,1,93.8,58.728a40.621,40.621,0,0,1,3.8-4.264q2.028-1.976,3.8-3.952a22.018,22.018,0,0,0,2.912-4.056,9.338,9.338,0,0,0,1.144-4.576,7.5,7.5,0,0,0-2.34-5.668Q100.768,33.976,96.088,33.976Zm8.112,56.16a7.835,7.835,0,0,1-2.392,5.928,8.756,8.756,0,0,1-11.8,0,7.751,7.751,0,0,1-2.444-5.928A7.918,7.918,0,0,1,90,84.156a8.613,8.613,0,0,1,11.8,0A8,8,0,0,1,104.2,90.136Z" transform="translate(1703.202 2336.918) rotate(180)" fill="#fff"/>
  </g>
</svg>
