<svg id="Capa_1" data-name="Capa 1" xmlns="http://www.w3.org/2000/svg" viewBox="0 0 1600.331 1955.003"><defs><style>.cls-1{fill:#090807;}</style></defs><path class="cls-1" d="M-1100.262,884.311c-3.171-4.059-6.466-5.763-9.436-7.843q-180.13-126.19-360.264-252.38a39.02,39.02,0,0,0-15.351-6.606q-107.358-21.1-212.489-51.455c-3.522-1.025-7.1-1.9-10.2-3.953-6.26-4.15-8.48-10.174-6.157-18.256,4.966-17.276,10.18-34.48,15.289-51.715a42.41,42.41,0,0,1,1.709-5.735c1.567-3.406-.022-4.962-3.019-5.839-7.028-2.055-14.088-4.007-21.1-6.111-15.274-4.582-18.381-10.5-13.78-25.962,2.45-8.237,4.869-16.482,7.731-26.174-6.911,0-12.756.132-18.594-.029-10.674-.293-15.891-5.411-16.2-15.972-.193-6.661-.045-13.332-.045-20q0-126-.015-252c0-13.3,1.334-11.942-11.525-12.011-7.333-.039-14.669.118-22-.045-10.805-.24-16.288-5.281-16.387-15.749q-.318-34-.006-68c.085-9.933,5.5-15.4,15.257-16.162,2.983-.233,6-.073,9-.073q130.5,0,261,0c1.667,0,3.334-.009,5,0,10.83.063,9.7.017,9.7-9.816q.009-203,0-406,0-108.5.006-217a73.556,73.556,0,0,1,.187-8.99c.974-7.851,6.454-12.621,15.182-12.811,11.328-.247,22.665-.076,34-.078,11,0,22-.1,33,.032,12.155.15,17.44,5.48,17.6,17.882.165,12.664.262,25.338-.065,38-.138,5.376,1.786,7.4,7.034,8.592q76.022,17.244,153.187,28.175c103.911,14.745,208.321,19.173,313.1,15.21,50.941-1.927,101.7-6.528,152.281-13.187q83.25-10.962,165.092-29.591c10.43-2.388,9.445-1.726,9.469-12.468.026-11.666-.08-23.334.034-35,.122-12.487,5.114-17.545,17.583-17.608q32.5-.167,65,.009c11.673.075,16.959,5.452,17.384,17.108.1,2.663.018,5.333.018,8q0,308.5.033,617c0,14.543-1.991,12.5,12.834,12.508q131.5.105,263,.035c2.667,0,5.343-.132,8,.046,9.757.656,15.868,6.08,16.015,15.685q.531,34.491-.009,69c-.156,9.754-6.151,15-16.1,15.238q-13.992.33-28,0c-4.351-.1-6.078,1.587-5.768,5.834.169,2.321.021,4.665.021,7q0,132,0,264a80.9,80.9,0,0,1-.137,8.992c-.973,8.689-6.367,13.8-15.159,14.187-5.961.263-11.944.05-17.524.05-2.177,3.254-.74,5.756-.028,8.207,2.137,7.353,4.617,14.611,6.572,22.009q4.184,15.841-11.362,21.02c-6.625,2.215-13.435,3.868-20.128,5.888-6.876,2.076-7,2.18-5.061,8.794,4.692,15.968,9.533,31.892,14.314,47.834.669,2.233,1.392,4.451,1.992,6.7,2.98,11.193-.4,18.245-11.487,21.719-15.241,4.775-30.641,9.071-46.07,13.212-57.888,15.536-116.167,29.412-175.088,40.477-5.474,1.028-9.846,3.78-14.23,6.852q-144.5,101.256-289.034,202.471Q-880.092,852.4-915.7,877.366c-2.642,1.86-5.84,3.135-7.676,6.333,1.612,3.158,4.827,4.458,7.467,6.307q243.982,170.952,488.124,341.674c18.131,12.654,15.424,20.662,6.032,33.28-10.74,14.429-21.109,29.167-30.96,44.215-10.175,15.544-18.671,14.517-31.173,5.718Q-633.49,1209.6-783.5,1104.87-892.4,1028.6-1001.307,952.313c-.818-.573-1.642-1.139-2.462-1.71-10.13-7.053-8-5.958-16.221-.23q-48.8,34.006-97.459,68.224-212.49,148.809-424.981,297.613c-1.364.956-2.678,1.992-4.09,2.872-8.929,5.57-16.45,4.409-22.659-4.01-6.721-9.116-13.054-18.52-19.551-27.8-5.925-8.463-11.921-16.877-17.746-25.408-7.8-11.42-6.681-18.12,4.635-26.1q40.854-28.8,81.866-57.377,203.9-142.787,407.8-285.578C-1108.4,890.167-1104.67,887.459-1100.262,884.311ZM-1412.135-58.355v13.327q0,228.992.064,457.983c.013,17.674-3.172,13.736,14.356,16.83,56.1,9.9,112.544,17.276,169.255,22.759,48.11,4.652,96.3,7.894,144.6,9.313,60.316,1.772,120.617,1.425,180.916-1.459,40.619-1.943,81.156-4.862,121.589-8.976,52.68-5.361,105.153-12.452,157.307-21.694,14.8-2.622,11.917-.8,11.924-14.044q.123-230.992.052-461.983c0-1.667.044-3.335-.009-5-.23-7.112-.247-7.149-7.558-5.841Q-720.016-39.18-821.626-30.585c-64.44,5.486-129.032,8.37-193.717,8.093a2235.283,2235.283,0,0,1-237.422-13.173c-39.395-4.377-78.688-9.389-117.784-15.929C-1383.986-53.842-1397.444-55.97-1412.135-58.355ZM-511.1,406.134c2.895.607,5.766-.2,8.619-.862q58.344-13.529,115.93-29.987c7.888-2.27,15.6-4.911,24.5-2.221v-5.913q0-117.927,0-235.854c0-1.332-.09-2.67,0-4,.263-4.016-1.883-5.275-5.514-5.047-1.659.1-3.33.011-5,.011q-64.459,0-128.92.01c-11.258.007-10.574-1.227-10.574,10.919q-.007,131.418.029,262.837C-512.028,399.309-512.686,402.689-511.1,406.134Zm-1150.087-32.269c7.364-3.3,14.587-1.781,22.05.352q34.563,9.878,69.339,19.008c16.742,4.387,33.617,8.277,50.472,12.217,6.456,1.509,6.9,1,7.173-5.3.057-1.331.011-2.667.011-4q0-131.5,0-263c0-2.333,0-4.667-.059-7s-1.174-3.751-3.623-3.81c-2.332-.056-4.666-.062-7-.063q-64,0-128,.016c-12.21.013-11.315-1.5-11.318,11.175q-.021,115,.023,230.005C-1662.123,366.75-1662.739,370.123-1661.189,373.865Zm408.951,277.793-.912,1.843c1.74,1.353,3.424,2.784,5.227,4.047q114.594,80.265,229.212,160.491c6.676,4.673,6.734,4.648,13.7-.229q114.188-79.972,228.328-160.01c1.986-1.393,4.919-2.118,5.5-6.081A2454.676,2454.676,0,0,1-1252.238,651.658Z" transform="translate(1812.246 632.501)"/></svg>